<svg width="228" height="106" viewBox="0 0 228 106" fill="none" xmlns="http://www.w3.org/2000/svg">
<path d="M0 29H205.756L228 53L205.756 77H0L22.2439 53L0 29Z" fill="#333333"/>
<rect x="66" y="5" width="96" height="96" rx="48" fill="#D83432"/>
<path d="M125.062 39.8897C125.624 39.262 126.089 38.6737 126.626 38.1603C127.012 37.7855 126.765 37.4764 126.677 37.141C126.443 36.2925 126.481 35.3919 126.787 34.5664C127.093 33.741 127.65 33.0325 128.38 32.541C129.108 32.0448 129.975 31.7921 130.855 31.819C131.736 31.846 132.585 32.1512 133.282 32.6909C133.996 33.2335 134.517 33.9914 134.768 34.8528C135.019 35.7141 134.986 36.6333 134.674 37.4745C134.366 38.2991 133.809 39.0078 133.082 39.5028C132.354 39.9978 131.49 40.2548 130.61 40.2383C130.517 40.253 130.423 40.2472 130.333 40.2214C129.021 39.4944 128.369 40.4537 127.522 41.1807C126.349 42.1757 125.974 43.1575 126.272 44.7689C127.022 48.803 126.15 52.6386 124.129 56.208C123.849 56.6989 123.893 57.0006 124.35 57.2779C124.376 57.2952 124.401 57.3153 124.423 57.3379C124.985 57.9 126.109 58.2897 126.077 58.9493C126.042 59.5713 125.109 60.1597 124.539 60.7312C123.175 62.1046 121.777 63.4443 120.428 64.8309C120.023 65.2469 119.793 65.2787 119.429 64.7934C118.944 64.147 118.481 63.2645 117.818 63.034C117.155 62.8035 116.403 63.628 115.674 63.954C104.578 68.9325 91.7095 61.7055 90.1524 49.6256C88.6816 38.209 98.0595 28.1583 109.484 29.0559C116.285 29.5917 121.297 33.0357 124.537 39.0447C124.625 39.2096 124.708 39.3782 124.798 39.5412C124.82 39.5956 124.861 39.6387 125.062 39.8897ZM123.295 45.243C122.583 46.0224 121.91 46.8394 121.148 47.5645C120.664 48.0254 120.533 48.4114 120.72 49.0897C121.204 50.8323 120.604 52.29 119.221 53.4087C118.568 53.928 117.772 54.2353 116.939 54.2896C116.106 54.3438 115.277 54.1424 114.561 53.7122C113.139 52.8934 112.079 51.1396 112.54 49.6219C112.937 48.3103 112.382 47.6676 111.567 46.9612C111.4 46.8203 111.245 46.6655 111.104 46.4984C110.524 45.7882 109.915 45.2823 108.907 45.7901C108.735 45.8679 108.549 45.9108 108.361 45.9163C108.172 45.9218 107.985 45.8897 107.809 45.8219C106.542 45.228 105.794 45.9044 105.077 46.7888C104.819 47.1038 104.529 47.3897 104.209 47.6413C103.735 48.0161 103.647 48.4039 103.834 49.0035C104.082 49.8658 104.04 50.7854 103.715 51.6216C103.39 52.4578 102.8 53.1645 102.036 53.6335C101.278 54.1153 100.386 54.3392 99.4906 54.2717C98.5956 54.2041 97.7465 53.8488 97.0702 53.2588C96.3847 52.68 95.9049 51.895 95.7022 51.021C95.4996 50.147 95.5851 49.2309 95.946 48.4096C96.6749 46.7232 98.513 45.4847 100.231 45.9344C101.554 46.2773 102.251 45.8107 102.969 44.9301C103.226 44.617 103.516 44.3324 103.834 44.0813C104.31 43.7065 104.38 43.3187 104.209 42.7191C103.709 40.9784 104.256 39.4925 105.639 38.3776C107.022 37.2628 108.603 37.1035 110.194 37.9467C111.785 38.7899 112.817 40.2626 112.358 41.9302C111.918 43.551 112.77 44.1787 113.623 45.0406C113.887 45.3067 114.168 45.5578 114.413 45.8388C114.687 46.1555 114.944 46.2679 115.382 46.0936C116.202 45.7554 117.123 45.7554 117.944 46.0936C118.434 46.2979 118.693 46.1068 118.987 45.7957C120.057 44.7033 121.123 43.6035 122.238 42.556C122.682 42.1382 122.71 41.8066 122.463 41.2669C119.84 35.5914 115.427 32.303 109.197 31.8758C99.4274 31.2069 91.6645 39.678 92.9555 49.3802C93.9055 56.534 99.8771 62.1664 107.063 62.6836C114.312 63.2101 121.035 58.5914 123.048 51.683C123.64 49.6312 123.894 47.5439 123.295 45.243Z" fill="#FEFEFE"/>
<path d="M137.936 71.0029C137.936 73.5905 136.58 75.6872 134.459 76.5248C132.21 77.4073 130.059 77.0869 128.416 75.3425C126.177 72.9535 124.147 70.3715 122.009 67.8776C121.742 67.5646 121.787 67.3717 122.06 67.1C124.076 65.1013 126.084 63.0927 128.084 61.0741C128.373 60.7836 128.566 60.8043 128.862 61.0553C131.286 63.1164 133.733 65.1457 136.145 67.2386C136.688 67.708 137.127 68.2849 137.435 68.9329C137.744 69.5808 137.914 70.2857 137.936 71.0029Z" fill="#FEFEFE"/>
</svg>
