<svg width="228" height="106" viewBox="0 0 228 106" fill="none" xmlns="http://www.w3.org/2000/svg">
<path d="M0 29H205.756L228 53L205.756 77H0L22.2439 53L0 29Z" fill="#333333"/>
<rect x="66" y="5" width="96" height="96" rx="48" fill="#D83432"/>
<path d="M118.133 35.3998C118.133 36.9576 118.091 38.5214 118.133 40.1027C118.133 40.8787 117.956 40.9316 117.257 40.7435C115.608 40.2827 113.882 40.1627 112.185 40.391C110.488 40.6192 108.855 41.1909 107.386 42.0711C105.917 42.9513 104.643 44.1215 103.641 45.5105C102.64 46.8994 101.932 48.4778 101.561 50.1495C99.45 59.238 107.927 67.4799 116.98 65.152C117.195 65.1057 117.407 65.0468 117.615 64.9756C117.98 64.8286 118.121 64.9227 118.121 65.3225C118.121 68.6968 118.121 72.0712 118.121 75.4456C118.128 75.6208 118.099 75.7957 118.035 75.9589C117.972 76.1222 117.874 76.2703 117.75 76.3938C117.625 76.5172 117.476 76.6133 117.312 76.6757C117.148 76.7382 116.973 76.7658 116.798 76.7566C114.893 76.8036 112.989 76.8095 111.084 76.7566C110.155 76.7566 109.726 76.1687 109.703 75.1047C109.667 73.5762 109.673 73.5644 108.233 73.1764C106.364 72.6734 104.581 71.8948 102.942 70.8661C102.466 70.5663 102.143 70.5016 101.766 70.9837C101.553 71.2542 101.31 71.5006 101.043 71.7185C100.915 71.8687 100.755 71.9893 100.575 72.072C100.396 72.1547 100.2 72.1975 100.003 72.1975C99.8049 72.1975 99.6095 72.1547 99.4299 72.072C99.2503 71.9893 99.0907 71.8687 98.9621 71.7185C97.661 70.4605 96.3794 69.1809 95.1174 67.8797C94.4238 67.1625 94.4649 66.4159 95.1762 65.6517C96.2403 64.4759 96.2403 64.4759 95.4995 63.165C94.5611 61.5414 93.8734 59.7854 93.4596 57.9564C93.3009 57.2216 92.9717 57.0393 92.3192 57.104C92.0083 57.1334 91.6953 57.1334 91.3844 57.104C91.2027 57.1073 91.0222 57.0735 90.8539 57.0046C90.6857 56.9357 90.5334 56.8331 90.4062 56.7032C90.2791 56.5733 90.1798 56.4188 90.1145 56.2491C90.0492 56.0795 90.0192 55.8983 90.0265 55.7166C89.9912 53.8433 89.9912 51.968 90.0265 50.0907C90.0265 49.1795 90.6143 48.7268 91.6608 48.6857C93.1951 48.621 93.1892 48.6151 93.6301 47.1102C94.1404 45.2747 94.9168 43.5239 95.9346 41.9134C96.2638 41.4019 96.2226 41.0904 95.7817 40.7376C95.5158 40.5187 95.2717 40.2746 95.0528 40.0087C94.9163 39.8786 94.8078 39.7221 94.7336 39.5488C94.6594 39.3755 94.6211 39.189 94.6211 39.0005C94.6211 38.812 94.6594 38.6254 94.7336 38.4521C94.8078 38.2788 94.9163 38.1224 95.0528 37.9923C96.3343 36.6715 97.6355 35.3684 98.9562 34.0829C99.6852 33.3775 100.373 33.448 101.173 34.2005C102.289 35.2528 102.295 35.2528 103.647 34.4944C105.298 33.5484 107.082 32.8549 108.938 32.4369C109.526 32.3076 109.791 32.0548 109.691 31.4375C109.658 31.1268 109.658 30.8135 109.691 30.5028C109.673 30.3139 109.696 30.1235 109.757 29.944C109.819 29.7645 109.917 29.5999 110.046 29.4612C110.176 29.3224 110.333 29.2125 110.508 29.1388C110.683 29.065 110.871 29.029 111.061 29.0331C112.965 28.992 114.87 28.9861 116.775 29.0331C117.668 29.0331 118.109 29.621 118.115 30.6204C118.144 32.2135 118.133 33.8066 118.133 35.3998Z" fill="#FEFEFE"/>
<path d="M118.133 52.9948C118.133 55.652 118.133 58.2856 118.133 60.9604C118.182 61.2164 118.131 61.4816 117.99 61.7007C117.848 61.9197 117.628 62.0758 117.374 62.1362C115.533 62.8241 113.528 62.9465 111.617 62.4878C109.705 62.029 107.974 61.01 106.646 59.5613C105.316 58.115 104.451 56.3035 104.162 54.3607C103.873 52.4178 104.173 50.4329 105.023 48.6622C105.875 46.8918 107.237 45.417 108.934 44.4279C110.632 43.4388 112.586 42.9807 114.547 43.1126C115.51 43.1883 116.46 43.3858 117.374 43.7005C117.614 43.7451 117.827 43.8809 117.968 44.0794C118.11 44.2779 118.169 44.5235 118.133 44.7646C118.115 47.4982 118.133 50.2494 118.133 52.9948Z" fill="#FEFEFE"/>
<path d="M125.287 47.751C123.706 47.751 122.647 47.751 121.583 47.751C121.119 47.751 120.949 47.6216 120.925 47.1161C120.837 44.9233 120.819 44.9292 123.012 44.9292H124.605C127.827 44.9292 127.827 44.9292 130.225 42.7952C130.373 42.6914 130.485 42.5455 130.548 42.3766C130.611 42.2077 130.621 42.0236 130.578 41.8487C130.419 41.029 130.542 40.1795 130.928 39.4388C131.313 38.698 131.938 38.1094 132.7 37.7689C133.432 37.4402 134.249 37.3542 135.033 37.5234C135.817 37.6927 136.526 38.1083 137.056 38.7095C137.591 39.3063 137.917 40.0607 137.986 40.859C138.055 41.6574 137.863 42.4565 137.438 43.1362C137.008 43.8522 136.347 44.4005 135.564 44.6911C134.781 44.9817 133.922 44.9972 133.129 44.7352C132.932 44.6437 132.71 44.6194 132.498 44.6661C132.285 44.7129 132.094 44.828 131.953 44.9938C131.865 45.0879 131.754 45.1526 131.665 45.2407C129.79 47.2277 127.627 48.4446 125.287 47.751Z" fill="#FEFEFE"/>
<path d="M124.787 58.0505C127.662 57.3274 129.796 58.6383 131.689 60.5724C131.881 60.8095 132.143 60.9798 132.437 61.059C132.732 61.1382 133.044 61.1222 133.329 61.0134C134.12 60.7906 134.963 60.8439 135.72 61.1645C136.476 61.4851 137.101 62.0538 137.491 62.777C137.888 63.4554 138.057 64.2429 137.975 65.0244C137.892 65.806 137.562 66.5407 137.033 67.1213C136.498 67.7189 135.786 68.1296 135.001 68.2936C134.217 68.4575 133.4 68.3661 132.671 68.0325C131.926 67.6943 131.314 67.1181 130.932 66.3946C130.55 65.671 130.419 64.841 130.56 64.035C130.611 63.8316 130.597 63.6174 130.52 63.4224C130.443 63.2274 130.307 63.0613 130.131 62.9475C127.727 60.8958 127.733 60.8899 124.576 60.8899C123.576 60.8899 122.577 60.8899 121.578 60.8899C121.113 60.8899 120.943 60.7606 120.919 60.255C120.831 58.0622 120.813 58.0622 123.006 58.0622L124.787 58.0505Z" fill="#FEFEFE"/>
<path d="M125.904 51.4898C127.28 51.4898 128.656 51.4898 130.019 51.4898C130.234 51.5093 130.45 51.4637 130.639 51.3588C130.828 51.254 130.981 51.0948 131.078 50.9019C131.511 50.1955 132.173 49.6579 132.953 49.3779C133.733 49.0979 134.585 49.0922 135.369 49.3617C136.134 49.6036 136.802 50.0849 137.273 50.7348C137.744 51.3847 137.993 52.1687 137.985 52.9713C137.972 53.7706 137.703 54.5448 137.217 55.1798C136.732 55.8148 136.055 56.277 135.287 56.4985C134.505 56.7474 133.662 56.7223 132.897 56.4273C132.132 56.1323 131.49 55.585 131.078 54.876C130.967 54.668 130.794 54.4998 130.583 54.3944C130.373 54.2891 130.135 54.2519 129.902 54.2881C127.245 54.2881 124.611 54.2881 121.936 54.2881C121.166 54.2881 120.837 54.1823 120.872 53.2887C120.954 51.4604 120.872 51.4545 122.771 51.4545L125.904 51.4898Z" fill="#FEFEFE"/>
<path d="M127.644 29.474C128.495 29.4633 129.323 29.7429 129.994 30.2666C130.664 30.7903 131.135 31.5268 131.33 32.3546C131.529 33.1807 131.439 34.0499 131.077 34.8184C130.715 35.5869 130.101 36.2088 129.337 36.5814C128.6 36.9772 127.745 37.0975 126.926 36.9209C126.108 36.7443 125.379 36.2822 124.87 35.6173C124.647 35.2582 124.324 34.9722 123.941 34.7946C123.557 34.617 123.13 34.5556 122.712 34.6179C120.949 34.6649 120.984 34.6179 120.919 32.8837C120.919 32.043 121.107 31.6668 121.989 31.8079C122.259 31.849 122.577 31.8079 122.83 31.8079C123.219 31.8987 123.628 31.8546 123.989 31.6826C124.35 31.5106 124.642 31.2211 124.817 30.8614C125.137 30.4146 125.563 30.054 126.056 29.8119C126.549 29.5698 127.095 29.4537 127.644 29.474Z" fill="#FEFEFE"/>
<path d="M120.943 72.5356C120.943 71.1718 120.943 71.1718 122.348 71.1718C122.724 71.1718 123.1 71.1718 123.471 71.1718C123.686 71.1997 123.904 71.1577 124.094 71.0518C124.283 70.9459 124.434 70.7819 124.523 70.5839C124.95 69.866 125.609 69.3159 126.392 69.0249C127.175 68.734 128.034 68.7199 128.826 68.9849C129.591 69.2289 130.257 69.7118 130.727 70.3626C131.197 71.0134 131.445 71.7977 131.436 72.6003C131.423 73.3997 131.154 74.1738 130.669 74.8088C130.183 75.4438 129.506 75.9061 128.738 76.1275C127.956 76.3732 127.114 76.3465 126.35 76.0517C125.585 75.757 124.943 75.2118 124.529 74.505C124.436 74.3083 124.284 74.1457 124.095 74.0402C123.905 73.9347 123.686 73.8916 123.471 73.9171C123.13 73.9465 122.783 73.9171 122.442 73.9171C120.943 73.9877 120.943 73.9877 120.943 72.5356Z" fill="#FEFEFE"/>
</svg>
