<svg width="228" height="106" viewBox="0 0 228 106" fill="none" xmlns="http://www.w3.org/2000/svg">
<path d="M0 29H205.756L228 53L205.756 77H0L22.2439 53L0 29Z" fill="#333333"/>
<rect x="66" y="5" width="96" height="96" rx="48" fill="#D83432"/>
<path d="M106.268 29C114.979 29 122.212 35.685 122.806 44.1123C123.133 48.2961 121.843 52.4461 119.202 55.7076C116.561 58.9691 112.77 61.0939 108.61 61.6443C97.3887 63.2188 87.8774 52.875 90.4133 41.8538C90.6327 40.9117 90.9876 40.0793 92.0071 39.7954C93.0267 39.5115 93.6913 40.0083 94.3495 40.6859C96.1821 42.5572 98.0598 44.3833 99.8859 46.2675C100.054 46.4928 100.292 46.657 100.562 46.7351C100.832 46.8131 101.12 46.8007 101.383 46.6998C102.803 46.2546 104.254 45.8739 105.706 45.5254C105.921 45.4943 106.12 45.3945 106.274 45.241C106.427 45.0875 106.527 44.8885 106.558 44.6736C106.919 43.1895 107.3 41.7054 107.758 40.2471C107.849 40.016 107.862 39.7615 107.794 39.5226C107.726 39.2837 107.582 39.0735 107.384 38.9243C105.448 37.0401 103.577 35.1301 101.66 33.2394C101.319 32.9822 101.06 32.6308 100.916 32.2284C100.771 31.826 100.747 31.3902 100.847 30.9745C100.972 30.5661 101.213 30.2028 101.541 29.929C101.868 29.6551 102.269 29.4826 102.693 29.4323C103.869 29.1796 105.065 29.0349 106.268 29Z" fill="#FEFEFE"/>
<path d="M112.301 64.9932C119.141 62.6574 123.658 58.1663 125.987 51.4425C126.278 51.3651 126.4 51.6168 126.555 51.7716C128.388 53.5913 130.201 55.4368 132.053 57.2371C132.485 57.663 132.543 57.8824 132.053 58.3599C127.794 62.567 123.567 66.8065 119.328 71.033C119.115 71.2524 118.928 71.6395 118.521 71.233C116.495 69.2069 114.43 67.1485 112.301 64.9932Z" fill="#FEFEFE"/>
<path d="M122.593 73.8206L134.853 61.612L135.944 66.1676C136.589 68.8391 137.234 71.504 137.879 74.1819C138.338 76.1177 137.163 77.3631 135.227 76.905C131.136 75.9371 127.052 74.924 122.967 73.9303L122.593 73.8206Z" fill="#FEFEFE"/>
</svg>
