<svg width="228" height="106" viewBox="0 0 228 106" fill="none" xmlns="http://www.w3.org/2000/svg">
<path d="M0 29H205.756L228 53L205.756 77H0L22.2439 53L0 29Z" fill="#333333"/>
<rect x="66" y="5" width="96" height="96" rx="48" fill="#D83432"/>
<path d="M101.662 43.3668C104.029 44.0133 105.535 42.8241 107.035 41.153C110.548 37.1463 114.877 33.9377 119.733 31.7428C123.866 29.8623 128.366 28.9269 132.906 29.0045C136.23 29.0837 137.968 30.8341 137.998 34.1517C138.09 43.3363 134.455 50.9902 128.283 57.5768C126.96 58.9855 125.539 60.3029 124.136 61.6385C123.971 61.776 123.839 61.95 123.753 62.1468C123.666 62.3437 123.626 62.5579 123.636 62.7728C123.636 64.3951 123.636 66.0234 123.636 67.6518C123.693 68.4522 123.498 69.2505 123.078 69.9343C122.658 70.6181 122.034 71.1529 121.294 71.4634C119.22 72.4819 117.171 73.537 115.098 74.5555C113.238 75.4764 112.103 74.7811 112.097 72.7259C112.097 71.6037 112.097 70.4755 112.097 69.3533C112.097 68.8959 112 68.7861 111.487 68.8776C110.553 69.0819 109.58 69.0294 108.673 68.7255C107.765 68.4216 106.957 67.8778 106.334 67.1517C104.24 64.9074 102.069 62.7281 99.8206 60.6139C99.1082 59.9999 98.5746 59.2049 98.2762 58.313C97.9778 57.421 97.9256 56.465 98.1252 55.5459C98.2289 54.997 98.0886 54.9055 97.6068 54.936C96.3871 54.9604 95.1673 54.9604 93.9476 54.936C92.368 54.936 91.5935 53.7163 92.2766 52.3197C93.3926 49.9839 94.5574 47.6664 95.7528 45.3733C96.0424 44.7768 96.4965 44.2755 97.0617 43.9286C97.6268 43.5817 98.2794 43.4037 98.9424 43.4156C99.8511 43.3485 100.76 43.3668 101.662 43.3668ZM123.465 37.384C122.659 37.384 121.86 37.5439 121.116 37.8546C120.371 38.1653 119.696 38.6205 119.129 39.194C118.562 39.7674 118.114 40.4476 117.811 41.1953C117.509 41.943 117.358 42.7433 117.366 43.5498C117.366 44.3564 117.526 45.1549 117.837 45.8993C118.148 46.6436 118.603 47.3189 119.176 47.8861C119.75 48.4533 120.43 48.9011 121.178 49.2036C121.925 49.5062 122.726 49.6573 123.532 49.6485C124.339 49.6485 125.137 49.4886 125.882 49.1779C126.626 48.8672 127.301 48.412 127.869 47.8386C128.436 47.2651 128.884 46.5849 129.186 45.8372C129.489 45.0895 129.64 44.2892 129.631 43.4827C129.631 42.6762 129.471 41.8776 129.16 41.1333C128.85 40.3889 128.394 39.7136 127.821 39.1464C127.248 38.5792 126.567 38.1314 125.82 37.8289C125.072 37.5264 124.272 37.3752 123.465 37.384Z" fill="#FEFEFE"/>
<path d="M90.0201 74.4335C90.0628 72.0733 90.3067 69.7497 91.5142 67.6579C91.9131 66.921 92.4646 66.2779 93.1319 65.7713C93.7993 65.2648 94.5672 64.9066 95.3841 64.7207C96.201 64.5348 97.0483 64.5255 97.8691 64.6933C98.6899 64.8612 99.4655 65.2024 100.144 65.6941C100.9 66.245 101.513 66.969 101.933 67.8055C102.352 68.642 102.565 69.5667 102.553 70.5023C102.542 71.4379 102.307 72.3572 101.868 73.1833C101.428 74.0094 100.797 74.7183 100.028 75.2507C98.8493 76.0162 97.5346 76.5483 96.1553 76.8181C96.0054 76.8872 95.8403 76.9172 95.6756 76.9052C95.5109 76.8932 95.352 76.8396 95.2137 76.7494C95.0753 76.6592 94.9621 76.5354 94.8847 76.3896C94.8073 76.2437 94.7681 76.0806 94.7709 75.9155C94.714 75.5483 94.6875 75.177 94.6916 74.8055C94.6916 74.4518 94.5941 74.1956 94.2525 74.0615C93.911 73.9273 93.5939 74.1834 93.4231 74.5067C93.283 74.784 93.1588 75.0691 93.0511 75.3605C92.9283 75.7173 92.7188 76.0379 92.4412 76.2936C92.2037 76.567 91.8979 76.7725 91.5551 76.8893C91.2123 77.006 90.8447 77.0299 90.4896 76.9583C89.7944 76.7327 90.0871 75.946 90.014 75.391C89.9935 75.0721 89.9955 74.7521 90.0201 74.4335Z" fill="#FEFEFE"/>
<path d="M98.6497 39.1161C98.3323 39.1109 98.0225 39.0189 97.7537 38.8501C97.4849 38.6813 97.2675 38.4422 97.125 38.1586C96.9391 37.8635 96.8557 37.5153 96.8877 37.168C96.9197 36.8207 97.0653 36.4937 97.3019 36.2375C98.9241 34.5603 100.565 32.8954 102.26 31.2854C102.582 31.0009 103.004 30.8548 103.433 30.8788C103.862 30.9027 104.265 31.0948 104.553 31.4134C104.876 31.6943 105.078 32.0884 105.117 32.5142C105.157 32.94 105.032 33.3648 104.767 33.7004C103.12 35.4447 101.394 37.1096 99.6804 38.7928C99.3912 39.0292 99.022 39.1449 98.6497 39.1161Z" fill="#FEFEFE"/>
<path d="M129.503 69.9388C129.172 69.9444 128.847 69.8526 128.569 69.6747C128.29 69.4968 128.07 69.2408 127.936 68.9386C127.766 68.6534 127.694 68.3211 127.729 67.9913C127.764 67.6616 127.905 67.3521 128.131 67.109C129.753 65.4257 131.4 63.773 133.089 62.1569C133.427 61.8709 133.864 61.7281 134.305 61.7589C134.747 61.7896 135.16 61.9915 135.455 62.3215C135.62 62.4888 135.75 62.6875 135.836 62.9059C135.923 63.1242 135.965 63.3576 135.96 63.5925C135.955 63.8273 135.903 64.0588 135.807 64.2731C135.71 64.4874 135.572 64.6803 135.4 64.8403C134.101 66.1881 132.766 67.4932 131.442 68.8105C131.204 69.0545 130.96 69.2984 130.704 69.5241C130.374 69.8151 129.942 69.9642 129.503 69.9388Z" fill="#FEFEFE"/>
<path d="M130.759 76.6473C130.408 76.6812 130.054 76.6086 129.744 76.439C129.434 76.2693 129.182 76.0104 129.021 75.6959C128.839 75.3995 128.76 75.0515 128.795 74.7054C128.83 74.3594 128.978 74.0345 129.216 73.7809C130.052 72.86 130.924 71.9513 131.845 71.1341C132.18 70.8461 132.612 70.696 133.053 70.7141C133.495 70.7322 133.913 70.9172 134.223 71.2317C134.547 71.5348 134.74 71.9517 134.761 72.3944C134.783 72.8371 134.631 73.2709 134.339 73.6041C133.51 74.525 132.601 75.3788 131.711 76.2448C131.459 76.4994 131.117 76.6441 130.759 76.6473Z" fill="#FEFEFE"/>
<path d="M96.1188 33.8834C96.0883 34.9751 93.1304 37.9695 92.0875 38.0244C91.747 38.0537 91.4057 37.9783 91.1092 37.8083C90.8128 37.6383 90.5753 37.3817 90.4287 37.073C90.2464 36.7763 90.1674 36.4276 90.2038 36.0813C90.2402 35.735 90.39 35.4104 90.6299 35.158C91.4655 34.2432 92.3498 33.3284 93.2646 32.5173C93.5262 32.2882 93.8539 32.1483 94.2003 32.1176C94.5467 32.0869 94.8939 32.1671 95.1917 32.3465C95.4719 32.4936 95.7064 32.7146 95.8698 32.9855C96.0333 33.2565 96.1194 33.567 96.1188 33.8834Z" fill="#FEFEFE"/>
</svg>
