<svg width="60" height="61" viewBox="0 0 60 61" fill="none" xmlns="http://www.w3.org/2000/svg">
<path d="M32.8242 56.7521H2.65078C0.564843 56.7521 0 56.1942 0 54.1316C0 39.5992 0 25.0669 0 10.5345C0 6.50532 2.28047 4.24812 6.32812 4.23875H9.3C9.51797 2.70582 8.86172 0.521282 11.2898 0.558785C13.6055 0.596287 13.0148 2.68941 13.1531 4.18484H20.5641C20.768 2.70582 20.1117 0.457996 22.6195 0.563473C24.8438 0.654886 24.2602 2.68941 24.4008 4.17312H31.8703C31.8703 3.63636 31.8516 3.06913 31.8703 2.50659C31.9195 1.30415 32.6555 0.51425 33.7172 0.500186C34.7789 0.486123 35.5523 1.26899 35.6109 2.45502C35.6367 2.99647 35.6109 3.54026 35.6109 4.1614H43.0852C43.2492 2.68004 42.6164 0.673637 45.0586 0.521282C46.3664 0.439244 46.7719 1.30181 46.9336 4.23875C47.9531 4.23875 48.9914 4.23875 50.0273 4.23875C53.9367 4.25984 56.2453 6.53345 56.25 10.4103C56.2594 17.6749 56.2594 24.9411 56.25 32.2088V33.2894C49.8984 29.5391 43.657 29.586 37.6055 33.2448C37.3922 32.5416 37.3852 31.5806 36.9023 31.154C36.382 30.6853 35.4352 30.622 34.6547 30.5282C33.8373 30.4657 33.0167 30.4594 32.1984 30.5095C30.8297 30.5306 29.9883 31.2666 30.007 32.4057C30.0258 33.5448 30.8531 34.234 32.2523 34.248C33.4828 34.248 34.7156 34.248 36.2367 34.248C32.8711 37.2506 30.8461 40.6891 30.2063 44.9105C29.5664 49.132 30.5203 52.9572 32.8242 56.7521ZM52.4859 15.4404C52.4859 13.4855 52.5211 11.6198 52.4719 9.75401C52.4484 8.8305 51.8672 8.14373 50.9719 8.06169C49.6336 7.94215 48.2766 8.03122 46.9406 8.03122C46.7367 10.9471 46.357 11.6784 45.082 11.7346C43.807 11.7909 43.4414 11.1486 43.0102 8.06403H35.6742C35.5102 9.54071 36.1031 11.5799 33.8719 11.6713C31.3664 11.7721 32.0227 9.52899 31.8234 8.08982H24.4219C24.2766 10.9307 23.8664 11.7979 22.5469 11.7135C20.1188 11.5565 20.7445 9.55008 20.5758 8.07341H13.1156C13.1156 8.73205 13.1484 9.31569 13.1156 9.89464C13.0406 10.9986 12.2508 11.7463 11.2406 11.7346C10.2305 11.7229 9.45938 10.9682 9.39375 9.85948C9.35859 9.25709 9.39375 8.65002 9.39375 8.00544C8.03906 8.00544 6.86954 7.982 5.70235 8.00544C4.61719 8.03356 3.8625 8.62189 3.81094 9.69541C3.71719 11.5916 3.78515 13.4949 3.78515 15.4404H52.4859ZM11.175 26.7381C11.8383 26.7381 12.5039 26.7756 13.1625 26.7381C14.2641 26.6631 15.0117 25.8591 14.9883 24.8395C14.9847 24.3643 14.7958 23.9093 14.4618 23.5714C14.1278 23.2334 13.6751 23.0391 13.2 23.03C11.9156 22.9737 10.6219 22.9761 9.3375 23.03C9.0922 23.0305 8.8495 23.0803 8.62386 23.1765C8.39822 23.2728 8.19426 23.4134 8.02411 23.5902C7.85397 23.7669 7.72113 23.976 7.6335 24.2052C7.54588 24.4343 7.50526 24.6787 7.51406 24.9239C7.52282 25.3979 7.71326 25.8504 8.04605 26.188C8.37884 26.5256 8.82856 26.7225 9.30234 26.7381C9.92344 26.7756 10.5492 26.7357 11.175 26.7381ZM22.4766 26.7381C23.1398 26.7381 23.8055 26.7803 24.4664 26.7381C24.9403 26.72 25.3889 26.5199 25.719 26.1793C26.049 25.8388 26.235 25.3841 26.2383 24.9098C26.2561 24.4333 26.0852 23.9691 25.7626 23.6179C25.44 23.2668 24.9919 23.0572 24.5156 23.0347C23.1914 22.9667 21.8602 22.9714 20.5313 23.0347C20.0559 23.0457 19.6038 23.243 19.2724 23.5841C18.941 23.9252 18.7568 24.3827 18.7594 24.8583C18.743 25.8779 19.493 26.6678 20.5992 26.7334C21.225 26.7733 21.8508 26.7404 22.4766 26.7404V26.7381ZM33.7523 23.0089C33.1664 23.0089 32.5805 23.0089 31.9969 23.0089C31.9188 23.0042 31.8406 23.0042 31.7625 23.0089C30.7313 23.1284 30.0141 23.8926 30.0141 24.8676C30.0045 25.3431 30.1823 25.8032 30.5089 26.1487C30.8356 26.4943 31.285 26.6975 31.7602 26.7147C33.0844 26.7779 34.4156 26.7756 35.7445 26.7147C36.2201 26.6987 36.6704 26.4963 36.9979 26.1512C37.3255 25.806 37.5042 25.3458 37.4953 24.87C37.4995 24.3956 37.3202 23.938 36.9947 23.5929C36.6693 23.2478 36.223 23.0419 35.7492 23.0183C35.0836 22.9667 34.4156 23.0112 33.7523 23.0112V23.0089ZM44.9133 26.7428C45.5367 26.7428 46.1625 26.7662 46.7883 26.7428C47.9719 26.6889 48.7594 25.9107 48.7406 24.8489C48.7242 23.8316 47.9648 23.0558 46.8469 23.0183C45.6 22.9784 44.3484 22.9714 43.0969 23.0183C42.8523 23.0176 42.6101 23.0659 42.3845 23.1604C42.1589 23.2549 41.9546 23.3936 41.7835 23.5684C41.6124 23.7432 41.4781 23.9505 41.3885 24.1781C41.2989 24.4057 41.2558 24.6489 41.2617 24.8934C41.2781 25.9107 42.0375 26.6631 43.1555 26.7264C43.7414 26.7686 44.3273 26.7428 44.9133 26.7428ZM11.2453 30.5118C10.582 30.5118 9.91406 30.4673 9.25547 30.5118C8.78172 30.5366 8.33591 30.7436 8.01134 31.0897C7.68676 31.4357 7.50857 31.8938 7.51406 32.3682C7.50643 32.8436 7.68597 33.3029 8.01393 33.6472C8.3419 33.9914 8.79201 34.1929 9.26719 34.2082C10.5914 34.2691 11.9227 34.2715 13.2516 34.2082C13.7267 34.1898 14.1757 33.9854 14.5015 33.639C14.8272 33.2926 15.0038 32.8319 14.993 32.3565C14.9947 31.8817 14.8131 31.4246 14.486 31.0805C14.159 30.7364 13.7117 30.5318 13.2375 30.5095C12.5742 30.4696 11.9086 30.5118 11.2453 30.5118ZM22.4297 34.2387C23.093 34.2387 23.7586 34.2762 24.4195 34.2387C25.5164 34.1636 26.2641 33.355 26.2383 32.3354C26.2335 31.8602 26.0434 31.4057 25.7085 31.0686C25.3736 30.7315 24.9204 30.5385 24.4453 30.5306C23.1609 30.4743 21.8672 30.4767 20.5828 30.5306C20.3376 30.532 20.0952 30.5826 19.8699 30.6795C19.6446 30.7765 19.4411 30.9177 19.2715 31.0947C19.1018 31.2718 18.9695 31.4812 18.8823 31.7104C18.7952 31.9397 18.755 32.1841 18.7641 32.4291C18.7746 32.9029 18.9664 33.3546 19.3 33.6912C19.6335 34.0279 20.0834 34.2238 20.557 34.2387C21.1781 34.2762 21.8039 34.2387 22.4297 34.2387ZM11.2242 41.7392C11.8875 41.7392 12.5555 41.7814 13.2141 41.7392C13.6879 41.7217 14.1368 41.5222 14.4673 41.1821C14.7978 40.842 14.9844 40.3875 14.9883 39.9133C15.0055 39.437 14.8343 38.973 14.5119 38.6221C14.1894 38.2711 13.7417 38.0613 13.2656 38.0382C11.9438 37.9702 10.6125 37.9749 9.28125 38.0382C8.80585 38.0486 8.35356 38.2453 8.02173 38.5859C7.6899 38.9265 7.50507 39.3838 7.50703 39.8594C7.49062 40.879 8.24063 41.6712 9.34453 41.7345C9.97266 41.7744 10.6008 41.7416 11.2242 41.7416V41.7392ZM22.4273 41.7392C23.0906 41.7392 23.7563 41.7767 24.4172 41.7392C25.5141 41.6642 26.2641 40.8579 26.2383 39.8383C26.2341 39.3631 26.0446 38.9084 25.7101 38.5708C25.3757 38.2333 24.9227 38.0397 24.4477 38.0311C23.1609 37.9749 21.8695 37.9772 20.5852 38.0311C20.3398 38.0319 20.0972 38.082 19.8717 38.1786C19.6462 38.2751 19.4424 38.416 19.2724 38.5929C19.1025 38.7699 18.9699 38.9792 18.8826 39.2085C18.7952 39.4377 18.7549 39.6822 18.7641 39.9274C18.774 40.4012 18.9652 40.8531 19.2983 41.1902C19.6314 41.5272 20.0811 41.7237 20.5547 41.7392C21.1758 41.7767 21.8016 41.7392 22.4273 41.7392ZM11.2102 49.2398H12.9656C13.0437 49.2445 13.1219 49.2445 13.2 49.2398C14.2406 49.132 14.9672 48.3913 14.9883 47.4185C14.9968 47.1733 14.9558 46.9288 14.868 46.6996C14.7801 46.4705 14.647 46.2614 14.4767 46.0847C14.3063 45.908 14.1022 45.7674 13.8765 45.6712C13.6507 45.575 13.4079 45.5251 13.1625 45.5247C11.8781 45.4731 10.5844 45.4707 9.30234 45.5247C8.82709 45.5332 8.37402 45.7273 8.03989 46.0654C7.70575 46.4035 7.51704 46.8588 7.51406 47.3342C7.49062 48.3538 8.23828 49.1577 9.3375 49.2327C9.9586 49.2749 10.5773 49.2398 11.2102 49.2398ZM22.5117 49.2398C23.175 49.2398 23.843 49.2867 24.5016 49.2398C24.9751 49.2132 25.4201 49.0048 25.7437 48.6581C26.0673 48.3113 26.2445 47.853 26.2383 47.3787C26.2446 46.9027 26.0637 46.4433 25.7344 46.0995C25.4051 45.7557 24.9539 45.5552 24.4781 45.5411C23.1562 45.4825 21.825 45.4801 20.4938 45.5411C20.0186 45.5606 19.5701 45.7662 19.2452 46.1135C18.9203 46.4608 18.7449 46.922 18.757 47.3975C18.7565 47.8718 18.939 48.328 19.2664 48.6712C19.5939 49.0144 20.041 49.2181 20.5148 49.2398C21.1828 49.2796 21.8484 49.2374 22.5117 49.2351V49.2398Z" fill="#FEFEFE"/>
<path d="M60 47.4279C59.9753 50.9002 58.5799 54.2221 56.1178 56.6704C53.6556 59.1187 50.326 60.4951 46.8539 60.5C45.1244 60.492 43.4134 60.1432 41.8187 59.4736C40.2241 58.8039 38.777 57.8266 37.5603 56.5973C36.3435 55.3681 35.3809 53.911 34.7275 52.3096C34.0742 50.7081 33.7428 48.9935 33.7523 47.2639C33.7925 43.7916 35.2027 40.4758 37.6758 38.0385C40.149 35.6012 43.4848 34.2396 46.957 34.2504C50.4292 34.2831 53.748 35.6862 56.1907 38.1542C58.6335 40.6222 60.0026 43.9553 60 47.4279ZM48.75 45.5036C48.75 43.6284 48.75 41.9267 48.75 40.2157C48.7359 38.8398 48.0094 38.0053 46.875 38.0124C45.7406 38.0194 45.0258 38.8538 45.0164 40.2368C45.0023 42.4979 45.0023 44.7637 45.0164 47.0341C45.0164 48.5624 45.7078 49.2445 47.2359 49.2538C49.4969 49.2695 51.7586 49.2695 54.0211 49.2538C55.4039 49.2538 56.2406 48.5319 56.2477 47.3975C56.2547 46.263 55.4203 45.5223 54.0469 45.5223C52.3266 45.4918 50.6156 45.5036 48.7477 45.5036H48.75Z" fill="#FEFEFE"/>
</svg>
