<svg width="60" height="61" viewBox="0 0 60 61" fill="none" xmlns="http://www.w3.org/2000/svg">
<path d="M44.1348 39.2686C44.369 38.0181 44.5868 36.9573 44.8209 35.756H49.9376C50.3685 35.756 50.7994 35.7724 51.2256 35.7349C52.2676 35.6413 52.9491 34.9645 52.9678 34.0372C52.9889 33.0701 52.2817 32.3067 51.1764 32.2762C49.303 32.2224 47.4296 32.2551 45.5562 32.2481C45.3221 32.2481 45.0879 32.2083 44.8092 32.1825C44.5914 31.0726 44.3783 29.979 44.1325 28.7308H49.9165C50.3451 28.7308 50.7783 28.7496 51.2045 28.7121C52.2536 28.6208 52.935 27.9557 52.9631 27.0284C52.9912 26.1011 52.2817 25.2768 51.1881 25.2534C48.8089 25.2019 46.4274 25.1902 44.0482 25.2534C43.0623 25.2745 42.3691 25.1035 41.9031 24.1106C41.5308 23.3144 40.8962 22.6424 40.2335 21.7127H50.2912C50.6027 21.7127 50.9164 21.7127 51.2279 21.694C52.2583 21.5792 52.9608 20.9048 52.9608 19.9915C52.9818 19.022 52.2723 18.2586 51.1694 18.2305C49.1789 18.179 47.1884 18.2071 45.1979 18.2071C43.6782 18.2071 42.1537 18.1626 40.6339 18.2071C38.0073 18.3253 35.3864 17.8707 32.9531 16.8747C26.8107 14.3714 20.8791 15.3455 15.4533 19.1766C15.1419 19.3967 14.8398 19.6286 14.4066 19.9494C14.3761 19.5302 14.341 19.2469 14.341 18.9541C14.341 14.3113 14.341 9.66763 14.341 5.02321C14.348 2.37003 15.9615 0.64886 18.61 0.639493C27.4687 0.604368 36.3345 0.625443 45.1816 0.627785C45.4406 0.646781 45.6985 0.678826 45.9543 0.723796C45.9543 3.28564 45.9543 5.81471 45.9543 8.34377C45.9965 15.472 45.0762 14.636 52.3379 14.6664C54.4454 14.6664 56.553 14.6664 58.6605 14.6664H60V15.9661C60 29.1937 60 42.4214 60 55.649C60 58.7401 58.4217 60.3324 55.3165 60.3324C43.2207 60.3324 31.1218 60.3324 19.0198 60.3324C16.5305 60.3324 14.9616 59.2178 14.4347 57.1617C14.2567 56.4592 14.327 55.9159 14.903 55.3773C16.2121 54.1503 17.4274 52.8225 18.7458 51.6095C18.9237 51.4703 19.1301 51.3721 19.3503 51.3219C19.5705 51.2717 19.7991 51.2708 20.0197 51.3191C28.7965 54.2112 37.1775 51.2489 42.2263 43.479C42.3818 43.2827 42.5763 43.1208 42.7976 43.0035C43.0189 42.8862 43.2621 42.8161 43.5119 42.7976C45.6944 42.7273 47.8792 42.7648 50.0687 42.7648C50.3825 42.7648 50.694 42.7648 51.0054 42.7648C52.2067 42.7016 52.9537 42.0389 52.9655 41.0366C52.9772 40.0344 52.2372 39.3084 51.0406 39.2827C49.2866 39.2429 47.528 39.2686 45.774 39.2663L44.1348 39.2686ZM31.911 14.6805H37.6389C38.6505 14.6805 39.6668 14.7109 40.6831 14.6547C41.7205 14.5892 42.4019 13.903 42.423 12.9663C42.4534 12.0016 41.7462 11.2803 40.6527 11.1796C40.4185 11.1585 40.1843 11.1656 39.9501 11.1656C34.5735 11.1656 29.1969 11.1656 23.8203 11.1656C23.4339 11.1656 22.9211 11.0766 22.6846 11.2803C22.1788 11.7276 21.5816 12.2779 21.4318 12.8844C21.2397 13.7063 21.8158 14.3714 22.6869 14.5751C23.1071 14.6569 23.5356 14.6884 23.9632 14.6688C26.6117 14.6781 29.2625 14.6735 31.911 14.6735V14.6805ZM46.5304 46.3055C45.0504 46.3055 43.5704 46.2797 42.0811 46.3055C40.8704 46.3313 40.1258 47.008 40.0953 47.9962C40.0649 49.036 40.84 49.7759 42.0975 49.7877C45.0559 49.8126 48.0143 49.8126 50.9726 49.7877C52.181 49.7759 52.9256 49.0851 52.9561 48.0969C52.9889 47.0572 52.2138 46.3313 50.9539 46.3055C49.488 46.2727 48.008 46.2985 46.5304 46.2985V46.3055Z" fill="#FEFEFE"/>
<path d="M37.3672 43.9404C36.6553 41.0671 35.0091 38.9595 32.3723 37.6833C34.782 33.3581 34.3698 29.5645 31.2553 26.9746C29.8892 25.8471 28.1733 25.2305 26.4021 25.2305C24.6309 25.2305 22.9149 25.8471 21.5489 26.9746C18.4203 29.5786 18.0082 33.3745 20.4295 37.6856C17.7951 38.9595 16.1395 41.0671 15.4346 43.938C10.8144 39.5075 9.49833 30.1359 15.5447 23.7687C16.9336 22.28 18.6139 21.093 20.4811 20.2813C22.3483 19.4697 24.3626 19.0509 26.3986 19.0509C28.4346 19.0509 30.4488 19.4697 32.316 20.2813C34.1833 21.093 35.8636 22.28 37.2525 23.7687C43.3105 30.164 41.9687 39.5098 37.3672 43.9404Z" fill="#FEFEFE"/>
<path d="M15.4791 49.701C12.5168 52.7054 9.17049 56.1876 5.7141 59.5667C4.43318 60.8148 2.30221 60.5572 1.05172 59.2716C-0.198758 57.986 -0.404829 55.9628 0.817552 54.7006C4.1873 51.2442 7.66944 47.8955 10.7371 44.8653C12.3248 46.4741 13.9172 48.1039 15.4791 49.701Z" fill="#FEFEFE"/>
<path d="M26.4407 40.4488C27.2603 40.4488 28.0799 40.3997 28.8972 40.4488C32.6135 40.7041 33.9108 43.3362 34.1684 46.3289C34.1848 46.5397 33.9015 46.8769 33.6743 46.9986C28.8426 49.5792 24.003 49.5792 19.1556 46.9986C19.0114 46.9004 18.8916 46.7703 18.8055 46.6185C18.7194 46.4667 18.6694 46.2971 18.6592 46.1228C18.9683 42.2918 21.0384 40.4231 24.9163 40.4137H26.436L26.4407 40.4488Z" fill="#FEFEFE"/>
<path d="M26.4267 36.9128C25.6183 36.9165 24.827 36.6805 24.1528 36.2346C23.4785 35.7888 22.9515 35.153 22.6385 34.4077C22.3254 33.6625 22.2403 32.8411 22.3938 32.0475C22.5474 31.2539 22.9328 30.5236 23.5012 29.9489C24.0697 29.3742 24.7958 28.9809 25.5877 28.8187C26.3796 28.6565 27.2018 28.7327 27.9505 29.0377C28.6991 29.3426 29.3405 29.8626 29.7937 30.532C30.2469 31.2014 30.4915 31.9901 30.4966 32.7984C30.4997 33.3359 30.3968 33.8686 30.1939 34.3663C29.991 34.864 29.6921 35.3168 29.3141 35.6989C28.9362 36.081 28.4866 36.3849 27.9912 36.5932C27.4957 36.8014 26.9641 36.9101 26.4267 36.9128Z" fill="#FEFEFE"/>
<path d="M49.495 11.093V2.22484C52.4034 5.14263 55.429 8.17517 58.328 11.093H49.495Z" fill="#FEFEFE"/>
</svg>
