<svg width="60" height="61" viewBox="0 0 60 61" fill="none" xmlns="http://www.w3.org/2000/svg">
<path d="M0.0818637 60.4977V53.4955H24.6459V49.9732H0.0982618V42.9288H7.00814V35.9548H17.6564V42.8818H24.6998V49.9732C27.1007 49.9732 29.354 49.9732 31.605 49.9568C31.728 49.9369 31.8456 49.8921 31.9507 49.8251C32.0559 49.7581 32.1462 49.6702 32.2163 49.567C35.2028 45.2159 39.3956 45.3638 42.0682 49.9216C46.0502 50.309 49.381 49.2171 51.6109 45.6644C48.6829 41.743 48.6806 40.0617 51.557 36.8236C50.1867 33.6958 46.5936 32.0357 42.0495 32.4278C40.4286 35.2902 38.2525 36.3986 35.6596 35.6894C34.2752 35.309 33.1486 34.5294 32.5208 33.2473C32.1343 32.4631 31.6401 32.348 30.8812 32.3503C22.9173 32.3723 14.9533 32.3723 6.9894 32.3503C3.54617 32.3363 0.749432 29.8918 0.107633 26.4541C-0.468581 23.3757 1.31628 20.0648 4.32383 18.8532C5.23183 18.5071 6.19165 18.3173 7.16274 18.292C9.34579 18.2121 11.5359 18.292 13.7213 18.2379C13.9291 18.2143 14.1296 18.1466 14.3093 18.0394C14.489 17.9321 14.6439 17.7876 14.7636 17.6157C17.0497 13.7624 21.8984 13.7647 24.1798 17.6298C24.3414 17.9069 24.7185 18.2356 24.9996 18.2379C29.4875 18.2685 33.9754 18.2497 38.4633 18.2379C38.5313 18.2379 38.6015 18.1745 38.7795 18.0853V0.5H59.9496C58.7784 2.5335 57.7173 4.51299 56.5344 6.42439C56.0496 7.20633 56.0964 7.77693 56.5555 8.53773C57.7079 10.4327 58.7737 12.3817 59.9777 14.4903H42.3165V21.7954H24.5382C22.8025 24.7494 20.685 25.8342 18.1131 25.1392C16.682 24.7541 15.5553 23.9322 14.8971 22.6149C14.5551 21.9316 14.1452 21.779 13.4496 21.7931C11.3415 21.8377 9.23336 21.793 7.12526 21.8165C5.01716 21.84 3.52509 23.3874 3.54383 25.3646C3.545 25.8265 3.63781 26.2835 3.81688 26.7091C3.99595 27.1347 4.25768 27.5203 4.58684 27.8435C4.91601 28.1667 5.30602 28.4211 5.73418 28.5917C6.16234 28.7624 6.62008 28.8459 7.08076 28.8375C15.2789 28.861 23.4771 28.8375 31.6753 28.8375C31.7885 28.83 31.9012 28.8151 32.0126 28.7929C33.6522 25.8835 35.8891 24.7752 38.5172 25.5477C39.8523 25.9399 40.9439 26.7101 41.5482 27.9546C41.9276 28.7365 42.4195 28.8939 43.1878 28.8563C47.062 28.6966 50.3882 29.9529 53.0772 32.7988C53.1914 32.9058 53.2956 33.0229 53.3887 33.1487C54.4287 34.7267 55.5835 35.997 57.4807 36.7954C59.4975 37.6454 60.2588 39.7235 59.9238 41.9355C59.5888 44.1475 58.2678 45.5587 56.1292 46.2678C55.6027 46.4302 55.1431 46.7599 54.8199 47.2071C52.2995 51.2999 48.6829 53.4555 43.8788 53.4743C42.724 53.4743 41.9839 53.6528 41.2648 54.7682C39.2668 57.8724 34.7062 57.7433 32.659 54.6672C32.4248 54.3103 32.2351 53.9228 32.0266 53.5542H24.749V60.5L0.0818637 60.4977ZM10.5989 42.8419H14.1124V39.4934H10.5989V42.8419Z" fill="#FEFEFE"/>
</svg>
