<svg width="60" height="61" viewBox="0 0 60 61" fill="none" xmlns="http://www.w3.org/2000/svg">
<path d="M28.9854 43.9879C29.0394 44.1924 29.0764 44.401 29.096 44.6115C28.7339 48.4403 29.3139 47.7631 25.7098 47.7865C19.9532 47.8234 14.1999 47.7865 8.44333 47.7865H6.40825V45.8219C6.40825 32.411 6.40825 19.0002 6.40825 5.58941C6.40825 1.87126 7.74933 0.503353 11.4373 0.5C21.0484 0.5 30.6595 0.5 40.2706 0.5H42.2989C39.8146 3.73871 40.4415 7.26911 40.4315 10.6788C40.3913 21.6857 40.4114 32.6927 40.408 43.6996C40.408 44.0919 40.5153 44.5244 40.3846 44.863C40.149 45.3476 39.8684 45.8089 39.5464 46.241C39.2111 45.8152 38.6412 45.4296 38.5406 44.9535C38.1818 43.1498 37.9773 41.3125 37.7125 39.492C37.6152 38.8214 37.5213 38.1509 37.3973 37.5072C37.2915 36.8077 36.98 36.1555 36.5023 35.6337C36.0247 35.1118 35.4025 34.744 34.7151 34.5769C33.2768 34.1779 31.8486 34.4361 30.9199 35.6732C30.2493 36.5818 29.4514 36.679 28.469 36.679C25.0057 36.6522 21.5424 36.6589 18.0757 36.679C17.0698 36.679 15.8662 36.5818 15.893 38.0671C15.9165 39.445 17.0598 39.3344 18.0053 39.3377C21.4686 39.3377 24.9353 39.3377 28.3986 39.3377C28.7736 39.3566 29.1474 39.3947 29.5184 39.4517C29.8537 40.7928 29.4715 41.3628 28.0533 41.3292C24.8682 41.2521 21.6832 41.3024 18.4981 41.3058C18.1058 41.3058 17.6331 41.1717 17.3414 41.346C16.8133 41.7228 16.3206 42.147 15.8696 42.6133C16.3825 43.0659 16.8754 43.8874 17.4085 43.9075C20.6438 44.0315 23.8859 43.9745 27.1313 43.9779L28.9854 43.9879ZM35.5097 18.4403C35.5359 16.8446 35.2472 15.2594 34.6601 13.7754C34.0731 12.2913 33.1991 10.9376 32.0884 9.79169C30.9776 8.64574 29.6518 7.73005 28.1868 7.09699C26.7218 6.46394 25.1464 6.12595 23.5506 6.10237C16.9827 5.99173 11.4172 11.3594 11.2596 17.9575C11.2299 19.5666 11.5193 21.1656 12.1112 22.6622C12.703 24.1588 13.5856 25.5232 14.7079 26.6767C15.8302 27.8302 17.17 28.7498 18.6498 29.3824C20.1295 30.0151 21.7201 30.3482 23.3293 30.3625C26.5208 30.3806 29.5903 29.1385 31.8711 26.9061C34.1518 24.6737 35.4594 21.6314 35.5097 18.4403Z" fill="#FEFEFE"/>
<path d="M43.0835 29.6048C45.3734 30.728 46.6977 32.2367 47.0397 34.53C47.1484 35.2481 47.3431 35.9505 47.6197 36.622C49.8191 41.9093 50.0001 47.2736 48.3539 52.7452C48.0187 53.8583 47.9348 55.0452 47.6834 56.1884C47.1034 58.7801 45.2594 60.3558 42.6074 60.4464C40.5958 60.5179 38.5842 60.5179 36.5725 60.4464C33.4277 60.3458 31.2317 58.2369 31.3658 55.1122C31.6005 49.6607 32.0363 44.2159 32.4856 38.7745C32.5292 38.2112 33.1997 37.7016 33.5786 37.1652C34.0245 37.6949 34.7453 38.171 34.866 38.7611C35.2951 40.89 35.4829 43.0626 35.8282 45.2083C36.254 47.8905 37.6488 49.141 39.8515 48.9466C41.9033 48.7655 43.0734 47.2166 43.0768 44.6451C43.0768 40.2374 43.0768 35.8286 43.0768 31.4186L43.0835 29.6048Z" fill="#FEFEFE"/>
<path d="M53.4199 12.8748H43.1405C43.1405 10.1927 42.9661 7.58426 43.1874 5.00268C43.4154 2.29034 45.8495 0.439651 48.5517 0.543585C49.851 0.562654 51.0932 1.08093 52.0207 1.99099C52.9483 2.90106 53.4901 4.13312 53.5339 5.43183C53.6378 7.65802 53.5707 9.89428 53.5674 12.1372C53.5398 12.3869 53.4905 12.6337 53.4199 12.8748Z" fill="#FEFEFE"/>
<path d="M15.6449 23.4727C13.0064 19.9658 13.4221 14.8026 16.7715 11.5136C20.1208 8.22463 25.1968 7.8793 28.6601 10.5078L15.6449 23.4727Z" fill="#FEFEFE"/>
<path d="M17.9885 25.8532C22.347 21.4946 26.6284 17.173 30.9165 12.8648C33.5987 15.6442 33.4545 21.0655 30.531 24.4215C29.0109 26.2051 26.8703 27.3449 24.542 27.6107C22.2137 27.8764 19.8714 27.2483 17.9885 25.8532Z" fill="#FEFEFE"/>
</svg>
