<svg width="510" height="420" viewBox="0 0 510 420" fill="none" xmlns="http://www.w3.org/2000/svg">
<rect width="245" height="200" fill="#D83432"/>
<path d="M56.8242 104.752H26.6508C24.5648 104.752 24 104.194 24 102.132C24 87.5992 24 73.0669 24 58.5345C24 54.5053 26.2805 52.2481 30.3281 52.2387H33.3C33.518 50.7058 32.8617 48.5213 35.2898 48.5588C37.6055 48.5963 37.0148 50.6894 37.1531 52.1848H44.5641C44.768 50.7058 44.1117 48.458 46.6195 48.5635C48.8438 48.6549 48.2602 50.6894 48.4008 52.1731H55.8703C55.8703 51.6364 55.8516 51.0691 55.8703 50.5066C55.9195 49.3042 56.6555 48.5142 57.7172 48.5002C58.7789 48.4861 59.5523 49.269 59.6109 50.455C59.6367 50.9965 59.6109 51.5403 59.6109 52.1614H67.0852C67.2492 50.68 66.6164 48.6736 69.0586 48.5213C70.3664 48.4392 70.7719 49.3018 70.9336 52.2387C71.9531 52.2387 72.9914 52.2387 74.0273 52.2387C77.9367 52.2598 80.2453 54.5335 80.25 58.4103C80.2594 65.6749 80.2594 72.9411 80.25 80.2088V81.2894C73.8984 77.5391 67.657 77.586 61.6055 81.2448C61.3922 80.5416 61.3852 79.5806 60.9023 79.154C60.382 78.6853 59.4352 78.622 58.6547 78.5282C57.8373 78.4657 57.0167 78.4594 56.1984 78.5095C54.8297 78.5306 53.9883 79.2666 54.007 80.4057C54.0258 81.5448 54.8531 82.234 56.2523 82.248C57.4828 82.248 58.7156 82.248 60.2367 82.248C56.8711 85.2506 54.8461 88.6891 54.2063 92.9105C53.5664 97.132 54.5203 100.957 56.8242 104.752ZM76.4859 63.4404C76.4859 61.4855 76.5211 59.6198 76.4719 57.754C76.4484 56.8305 75.8672 56.1437 74.9719 56.0617C73.6336 55.9422 72.2766 56.0312 70.9406 56.0312C70.7367 58.9471 70.357 59.6784 69.082 59.7346C67.807 59.7909 67.4414 59.1486 67.0102 56.064H59.6742C59.5102 57.5407 60.1031 59.5799 57.8719 59.6713C55.3664 59.7721 56.0227 57.529 55.8234 56.0898H48.4219C48.2766 58.9307 47.8664 59.7979 46.5469 59.7135C44.1188 59.5565 44.7445 57.5501 44.5758 56.0734H37.1156C37.1156 56.7321 37.1484 57.3157 37.1156 57.8946C37.0406 58.9986 36.2508 59.7463 35.2406 59.7346C34.2305 59.7229 33.4594 58.9682 33.3938 57.8595C33.3586 57.2571 33.3938 56.65 33.3938 56.0054C32.0391 56.0054 30.8695 55.982 29.7023 56.0054C28.6172 56.0336 27.8625 56.6219 27.8109 57.6954C27.7172 59.5916 27.7852 61.4949 27.7852 63.4404H76.4859ZM35.175 74.7381C35.8383 74.7381 36.5039 74.7756 37.1625 74.7381C38.2641 74.6631 39.0117 73.8591 38.9883 72.8395C38.9847 72.3643 38.7958 71.9093 38.4618 71.5714C38.1278 71.2334 37.6751 71.0391 37.2 71.03C35.9156 70.9737 34.6219 70.9761 33.3375 71.03C33.0922 71.0305 32.8495 71.0803 32.6239 71.1765C32.3982 71.2728 32.1943 71.4134 32.0241 71.5902C31.854 71.7669 31.7211 71.976 31.6335 72.2052C31.5459 72.4343 31.5053 72.6787 31.5141 72.9239C31.5228 73.3979 31.7133 73.8504 32.046 74.188C32.3788 74.5256 32.8286 74.7225 33.3023 74.7381C33.9234 74.7756 34.5492 74.7357 35.175 74.7381ZM46.4766 74.7381C47.1398 74.7381 47.8055 74.7803 48.4664 74.7381C48.9403 74.72 49.3889 74.5199 49.719 74.1793C50.049 73.8388 50.235 73.3841 50.2383 72.9098C50.2561 72.4333 50.0852 71.9691 49.7626 71.6179C49.44 71.2668 48.9919 71.0572 48.5156 71.0347C47.1914 70.9667 45.8602 70.9714 44.5313 71.0347C44.0559 71.0457 43.6038 71.243 43.2724 71.5841C42.941 71.9252 42.7568 72.3827 42.7594 72.8583C42.743 73.8779 43.493 74.6678 44.5992 74.7334C45.225 74.7733 45.8508 74.7404 46.4766 74.7404V74.7381ZM57.7523 71.0089C57.1664 71.0089 56.5805 71.0089 55.9969 71.0089C55.9188 71.0042 55.8406 71.0042 55.7625 71.0089C54.7313 71.1284 54.0141 71.8926 54.0141 72.8676C54.0045 73.3431 54.1823 73.8032 54.5089 74.1487C54.8356 74.4943 55.285 74.6975 55.7602 74.7147C57.0844 74.7779 58.4156 74.7756 59.7445 74.7147C60.2201 74.6987 60.6704 74.4963 60.9979 74.1512C61.3255 73.806 61.5042 73.3458 61.4953 72.87C61.4995 72.3956 61.3202 71.938 60.9947 71.5929C60.6693 71.2478 60.223 71.0419 59.7492 71.0183C59.0836 70.9667 58.4156 71.0112 57.7523 71.0112V71.0089ZM68.9133 74.7428C69.5367 74.7428 70.1625 74.7662 70.7883 74.7428C71.9719 74.6889 72.7594 73.9107 72.7406 72.8489C72.7242 71.8316 71.9648 71.0558 70.8469 71.0183C69.6 70.9784 68.3484 70.9714 67.0969 71.0183C66.8523 71.0176 66.6101 71.0659 66.3845 71.1604C66.1589 71.2549 65.9546 71.3936 65.7835 71.5684C65.6124 71.7432 65.4781 71.9505 65.3885 72.1781C65.2989 72.4057 65.2558 72.6489 65.2617 72.8934C65.2781 73.9107 66.0375 74.6631 67.1555 74.7264C67.7414 74.7686 68.3273 74.7428 68.9133 74.7428ZM35.2453 78.5118C34.582 78.5118 33.9141 78.4673 33.2555 78.5118C32.7817 78.5366 32.3359 78.7436 32.0113 79.0897C31.6868 79.4357 31.5086 79.8938 31.5141 80.3682C31.5064 80.8436 31.686 81.3029 32.0139 81.6472C32.3419 81.9914 32.792 82.1929 33.2672 82.2082C34.5914 82.2691 35.9227 82.2715 37.2516 82.2082C37.7267 82.1898 38.1757 81.9854 38.5015 81.639C38.8272 81.2926 39.0038 80.8319 38.993 80.3565C38.9947 79.8817 38.8131 79.4246 38.486 79.0805C38.159 78.7364 37.7117 78.5318 37.2375 78.5095C36.5742 78.4696 35.9086 78.5118 35.2453 78.5118ZM46.4297 82.2387C47.093 82.2387 47.7586 82.2762 48.4195 82.2387C49.5164 82.1636 50.2641 81.355 50.2383 80.3354C50.2335 79.8602 50.0434 79.4057 49.7085 79.0686C49.3736 78.7315 48.9204 78.5385 48.4453 78.5306C47.1609 78.4743 45.8672 78.4767 44.5828 78.5306C44.3376 78.532 44.0952 78.5826 43.8699 78.6795C43.6446 78.7765 43.4411 78.9177 43.2715 79.0947C43.1018 79.2718 42.9695 79.4812 42.8823 79.7104C42.7952 79.9397 42.755 80.1841 42.7641 80.4291C42.7746 80.9029 42.9664 81.3546 43.3 81.6912C43.6335 82.0279 44.0834 82.2238 44.557 82.2387C45.1781 82.2762 45.8039 82.2387 46.4297 82.2387ZM35.2242 89.7392C35.8875 89.7392 36.5555 89.7814 37.2141 89.7392C37.6879 89.7217 38.1368 89.5222 38.4673 89.1821C38.7978 88.842 38.9844 88.3875 38.9883 87.9133C39.0055 87.437 38.8343 86.973 38.5119 86.6221C38.1894 86.2711 37.7417 86.0613 37.2656 86.0382C35.9438 85.9702 34.6125 85.9749 33.2813 86.0382C32.8059 86.0486 32.3536 86.2453 32.0217 86.5859C31.6899 86.9265 31.5051 87.3838 31.507 87.8594C31.4906 88.879 32.2406 89.6712 33.3445 89.7345C33.9727 89.7744 34.6008 89.7416 35.2242 89.7416V89.7392ZM46.4273 89.7392C47.0906 89.7392 47.7563 89.7767 48.4172 89.7392C49.5141 89.6642 50.2641 88.8579 50.2383 87.8383C50.2341 87.3631 50.0446 86.9084 49.7101 86.5708C49.3757 86.2333 48.9227 86.0397 48.4477 86.0311C47.1609 85.9749 45.8695 85.9772 44.5852 86.0311C44.3398 86.0319 44.0972 86.082 43.8717 86.1786C43.6462 86.2751 43.4424 86.416 43.2724 86.5929C43.1025 86.7699 42.9699 86.9792 42.8826 87.2085C42.7952 87.4377 42.7549 87.6822 42.7641 87.9274C42.774 88.4012 42.9652 88.8531 43.2983 89.1902C43.6314 89.5272 44.0811 89.7237 44.5547 89.7392C45.1758 89.7767 45.8016 89.7392 46.4273 89.7392ZM35.2102 97.2398H36.9656C37.0437 97.2445 37.1219 97.2445 37.2 97.2398C38.2406 97.132 38.9672 96.3913 38.9883 95.4185C38.9968 95.1733 38.9558 94.9288 38.868 94.6996C38.7801 94.4705 38.647 94.2614 38.4767 94.0847C38.3063 93.908 38.1022 93.7674 37.8765 93.6712C37.6507 93.575 37.4079 93.5251 37.1625 93.5247C35.8781 93.4731 34.5844 93.4707 33.3023 93.5247C32.8271 93.5332 32.374 93.7273 32.0399 94.0654C31.7058 94.4035 31.517 94.8588 31.5141 95.3342C31.4906 96.3538 32.2383 97.1577 33.3375 97.2327C33.9586 97.2749 34.5773 97.2398 35.2102 97.2398ZM46.5117 97.2398C47.175 97.2398 47.843 97.2867 48.5016 97.2398C48.9751 97.2132 49.4201 97.0048 49.7437 96.6581C50.0673 96.3113 50.2445 95.853 50.2383 95.3787C50.2446 94.9027 50.0637 94.4433 49.7344 94.0995C49.4051 93.7557 48.9539 93.5552 48.4781 93.5411C47.1562 93.4825 45.825 93.4801 44.4938 93.5411C44.0186 93.5606 43.5701 93.7662 43.2452 94.1135C42.9203 94.4608 42.7449 94.922 42.757 95.3975C42.7565 95.8718 42.939 96.328 43.2664 96.6712C43.5939 97.0144 44.041 97.2181 44.5148 97.2398C45.1828 97.2796 45.8484 97.2374 46.5117 97.2351V97.2398Z" fill="#FEFEFE"/>
<path d="M84 95.4279C83.9753 98.9002 82.5799 102.222 80.1178 104.67C77.6556 107.119 74.326 108.495 70.8539 108.5C69.1244 108.492 67.4134 108.143 65.8187 107.474C64.2241 106.804 62.777 105.827 61.5603 104.597C60.3435 103.368 59.3809 101.911 58.7275 100.31C58.0742 98.7081 57.7428 96.9935 57.7523 95.2639C57.7925 91.7916 59.2027 88.4758 61.6758 86.0385C64.149 83.6012 67.4848 82.2396 70.957 82.2504C74.4292 82.2831 77.748 83.6862 80.1907 86.1542C82.6335 88.6222 84.0026 91.9553 84 95.4279ZM72.75 93.5036C72.75 91.6284 72.75 89.9267 72.75 88.2157C72.7359 86.8398 72.0094 86.0053 70.875 86.0124C69.7406 86.0194 69.0258 86.8538 69.0164 88.2368C69.0023 90.4979 69.0023 92.7637 69.0164 95.0341C69.0164 96.5624 69.7078 97.2445 71.2359 97.2538C73.4969 97.2695 75.7586 97.2695 78.0211 97.2538C79.4039 97.2538 80.2406 96.5319 80.2477 95.3975C80.2547 94.263 79.4203 93.5223 78.0469 93.5223C76.3266 93.4918 74.6156 93.5036 72.7477 93.5036H72.75Z" fill="#FEFEFE"/>
<path d="M24.864 151.5V149.898H26.448L26.466 142.5H24.864V140.898H29.382V142.5H28.302L28.284 149.898H31.794L31.812 142.5H30.75V140.898H34.728V142.5H33.648L33.63 149.898H37.266L37.284 142.5H36.222V140.898H40.704V142.5H39.12L39.102 149.898H40.704V151.5H24.864ZM41.8147 143.58H50.0407V146.586H48.6907V145.002H46.8367V150.06H48.3847V151.5H43.4707V150.06H45.0367V145.002H43.1827V146.586H41.8147V143.58ZM56.9008 151.068C56.0848 151.56 55.2328 151.806 54.3448 151.806C53.2648 151.806 52.4428 151.596 51.8788 151.176C51.3268 150.756 51.0448 150.144 51.0328 149.34C51.0208 147.696 52.0828 146.874 54.2188 146.874L56.3428 146.892C56.3428 146.136 56.1928 145.578 55.8928 145.218C55.6048 144.846 55.1968 144.66 54.6688 144.66C54.3928 144.66 54.1288 144.678 53.8768 144.714C53.6248 144.75 53.3848 144.804 53.1568 144.876L52.9768 145.812L51.4828 145.578L51.8068 143.778C52.2748 143.61 52.7488 143.484 53.2288 143.4C53.7088 143.304 54.1888 143.256 54.6688 143.256C55.8088 143.256 56.6728 143.562 57.2608 144.174C57.8608 144.774 58.1608 145.662 58.1608 146.838V149.88L59.7448 150.402L59.2768 151.878L56.9008 151.068ZM54.2728 148.152C53.8288 148.152 53.4868 148.254 53.2468 148.458C53.0068 148.65 52.8868 148.932 52.8868 149.304C52.8868 150.048 53.3968 150.42 54.4168 150.42C55.1368 150.42 55.7788 150.228 56.3428 149.844V148.152H54.2728ZM60.465 143.58H68.691V146.586H67.341V145.002H65.487V150.06H67.035V151.5H62.121V150.06H63.687V145.002H61.833V146.586H60.465V143.58ZM69.8452 143.58H74.0212V145.002H73.1752V146.838H76.8112V145.002H75.9652V143.58H80.1412V145.002H78.6292V150.06H80.1412V151.5H75.9652V150.06H76.8112V148.278H73.1752V150.06H74.0212V151.5H69.8452V150.06H71.3572V145.002H69.8452V143.58ZM85.4616 143.256C86.3256 143.256 87.0636 143.43 87.6756 143.778C88.2996 144.114 88.7796 144.606 89.1156 145.254C89.4516 145.89 89.6196 146.658 89.6196 147.558C89.6196 148.89 89.2476 149.934 88.5036 150.69C87.7596 151.434 86.7456 151.806 85.4616 151.806C84.6216 151.806 83.8896 151.638 83.2656 151.302C82.6536 150.966 82.1796 150.48 81.8436 149.844C81.5196 149.196 81.3576 148.434 81.3576 147.558C81.3576 146.658 81.5196 145.89 81.8436 145.254C82.1796 144.606 82.6536 144.114 83.2656 143.778C83.8896 143.43 84.6216 143.256 85.4616 143.256ZM85.4616 144.732C84.7056 144.732 84.1296 144.978 83.7336 145.47C83.3496 145.95 83.1576 146.646 83.1576 147.558C83.1576 148.458 83.3496 149.148 83.7336 149.628C84.1296 150.108 84.7056 150.348 85.4616 150.348C86.2536 150.348 86.8416 150.108 87.2256 149.628C87.6216 149.148 87.8196 148.458 87.8196 147.558C87.8196 146.646 87.6216 145.95 87.2256 145.47C86.8416 144.978 86.2536 144.732 85.4616 144.732ZM98.6914 150.546C98.1874 150.978 97.6594 151.296 97.1074 151.5C96.5674 151.704 95.9974 151.806 95.3974 151.806C94.5094 151.806 93.7354 151.632 93.0754 151.284C92.4154 150.936 91.9054 150.444 91.5454 149.808C91.1974 149.16 91.0234 148.404 91.0234 147.54C91.0234 146.688 91.1914 145.944 91.5274 145.308C91.8634 144.66 92.3374 144.156 92.9494 143.796C93.5734 143.436 94.2874 143.256 95.0914 143.256C95.8834 143.256 96.5674 143.424 97.1434 143.76C97.7194 144.084 98.1634 144.54 98.4754 145.128C98.7994 145.716 98.9614 146.406 98.9614 147.198C98.9614 147.33 98.9554 147.474 98.9434 147.63C98.9314 147.786 98.9134 147.936 98.8894 148.08L92.7694 148.098C92.8054 148.626 92.9434 149.058 93.1834 149.394C93.4354 149.718 93.7474 149.964 94.1194 150.132C94.5034 150.288 94.9174 150.366 95.3614 150.366C95.8774 150.366 96.3574 150.288 96.8014 150.132C97.2454 149.976 97.6474 149.748 98.0074 149.448L98.6914 150.546ZM97.1614 146.802C97.1614 146.178 96.9754 145.674 96.6034 145.29C96.2434 144.894 95.7514 144.696 95.1274 144.696C94.5394 144.696 94.0174 144.894 93.5614 145.29C93.1174 145.674 92.8654 146.178 92.8054 146.802H97.1614ZM104.45 155.37V153.948H105.962V145.29L104.27 144.732L104.738 143.256L107.24 144.12C107.624 143.856 108.038 143.646 108.482 143.49C108.926 143.334 109.34 143.256 109.724 143.256C110.96 143.256 111.926 143.628 112.622 144.372C113.33 145.104 113.684 146.112 113.684 147.396C113.684 148.272 113.516 149.046 113.18 149.718C112.844 150.39 112.364 150.912 111.74 151.284C111.128 151.644 110.402 151.824 109.562 151.824C108.926 151.824 108.332 151.74 107.78 151.572V153.948H109.292V155.37H104.45ZM109.544 150.366C110.264 150.366 110.828 150.108 111.236 149.592C111.644 149.076 111.848 148.35 111.848 147.414C111.848 146.538 111.662 145.872 111.29 145.416C110.918 144.96 110.372 144.732 109.652 144.732C109.304 144.732 108.956 144.792 108.608 144.912C108.26 145.032 107.978 145.194 107.762 145.398V150.006C107.966 150.114 108.23 150.204 108.554 150.276C108.89 150.336 109.22 150.366 109.544 150.366ZM120.832 151.068C120.016 151.56 119.164 151.806 118.276 151.806C117.196 151.806 116.374 151.596 115.81 151.176C115.258 150.756 114.976 150.144 114.964 149.34C114.952 147.696 116.014 146.874 118.15 146.874L120.274 146.892C120.274 146.136 120.124 145.578 119.824 145.218C119.536 144.846 119.128 144.66 118.6 144.66C118.324 144.66 118.06 144.678 117.808 144.714C117.556 144.75 117.316 144.804 117.088 144.876L116.908 145.812L115.414 145.578L115.738 143.778C116.206 143.61 116.68 143.484 117.16 143.4C117.64 143.304 118.12 143.256 118.6 143.256C119.74 143.256 120.604 143.562 121.192 144.174C121.792 144.774 122.092 145.662 122.092 146.838V149.88L123.676 150.402L123.208 151.878L120.832 151.068ZM118.204 148.152C117.76 148.152 117.418 148.254 117.178 148.458C116.938 148.65 116.818 148.932 116.818 149.304C116.818 150.048 117.328 150.42 118.348 150.42C119.068 150.42 119.71 150.228 120.274 149.844V148.152H118.204ZM129.863 144.858C129.635 144.774 129.413 144.72 129.197 144.696C128.981 144.66 128.753 144.642 128.513 144.642C127.745 144.642 127.145 144.888 126.713 145.38C126.293 145.872 126.083 146.604 126.083 147.576C126.083 148.464 126.311 149.148 126.767 149.628C127.235 150.096 127.805 150.33 128.477 150.33C128.861 150.33 129.257 150.264 129.665 150.132C130.073 149.988 130.475 149.778 130.871 149.502L131.609 150.6C131.273 150.852 130.949 151.068 130.637 151.248C130.325 151.428 129.989 151.566 129.629 151.662C129.281 151.758 128.861 151.806 128.369 151.806C127.541 151.806 126.815 151.644 126.191 151.32C125.567 150.984 125.087 150.498 124.751 149.862C124.415 149.226 124.247 148.464 124.247 147.576C124.247 146.628 124.421 145.836 124.769 145.2C125.117 144.552 125.609 144.066 126.245 143.742C126.893 143.406 127.643 143.238 128.495 143.238C128.975 143.238 129.431 143.286 129.863 143.382C130.307 143.478 130.775 143.604 131.267 143.76L131.627 145.956L130.115 146.28L129.863 144.858ZM133.091 143.562H143.297V145.002H141.767V150.06H143.297V151.5H139.103V150.06H139.967V145.002H136.421V150.06H137.267V151.5H133.091V150.06H134.603V145.002H133.091V143.562ZM144.904 143.562H149.008V145.002H148.144V149.304L151.798 143.58L155.038 143.562V145.002H153.508V150.06H155.038V151.5H150.934V150.06H151.798V145.704L148.144 151.5H144.904V150.06H146.416V145.002H144.904V143.562ZM161.82 144.858C161.592 144.774 161.37 144.72 161.154 144.696C160.938 144.66 160.71 144.642 160.47 144.642C159.702 144.642 159.102 144.888 158.67 145.38C158.25 145.872 158.04 146.604 158.04 147.576C158.04 148.464 158.268 149.148 158.724 149.628C159.192 150.096 159.762 150.33 160.434 150.33C160.818 150.33 161.214 150.264 161.622 150.132C162.03 149.988 162.432 149.778 162.828 149.502L163.566 150.6C163.23 150.852 162.906 151.068 162.594 151.248C162.282 151.428 161.946 151.566 161.586 151.662C161.238 151.758 160.818 151.806 160.326 151.806C159.498 151.806 158.772 151.644 158.148 151.32C157.524 150.984 157.044 150.498 156.708 149.862C156.372 149.226 156.204 148.464 156.204 147.576C156.204 146.628 156.378 145.836 156.726 145.2C157.074 144.552 157.566 144.066 158.202 143.742C158.85 143.406 159.6 143.238 160.452 143.238C160.932 143.238 161.388 143.286 161.82 143.382C162.264 143.478 162.732 143.604 163.224 143.76L163.584 145.956L162.072 146.28L161.82 144.858ZM170.754 151.068C169.938 151.56 169.086 151.806 168.198 151.806C167.118 151.806 166.296 151.596 165.732 151.176C165.18 150.756 164.898 150.144 164.886 149.34C164.874 147.696 165.936 146.874 168.072 146.874L170.196 146.892C170.196 146.136 170.046 145.578 169.746 145.218C169.458 144.846 169.05 144.66 168.522 144.66C168.246 144.66 167.982 144.678 167.73 144.714C167.478 144.75 167.238 144.804 167.01 144.876L166.83 145.812L165.336 145.578L165.66 143.778C166.128 143.61 166.602 143.484 167.082 143.4C167.562 143.304 168.042 143.256 168.522 143.256C169.662 143.256 170.526 143.562 171.114 144.174C171.714 144.774 172.014 145.662 172.014 146.838V149.88L173.598 150.402L173.13 151.878L170.754 151.068ZM168.126 148.152C167.682 148.152 167.34 148.254 167.1 148.458C166.86 148.65 166.74 148.932 166.74 149.304C166.74 150.048 167.25 150.42 168.27 150.42C168.99 150.42 169.632 150.228 170.196 149.844V148.152H168.126ZM174.242 143.58H178.418V145.002H177.572V146.838H181.208V145.002H180.362V143.58H184.538V145.002H183.026V150.06H184.538V151.5H180.362V150.06H181.208V148.278H177.572V150.06H178.418V151.5H174.242V150.06H175.754V145.002H174.242V143.58ZM186.16 143.562H190.264V145.002H189.4V149.304L193.054 143.58L196.294 143.562V145.002H194.764V150.06H196.294V151.5H192.19V150.06H193.054V145.704L189.4 151.5H186.16V150.06H187.672V145.002H186.16V143.562ZM205.074 150.546C204.57 150.978 204.042 151.296 203.49 151.5C202.95 151.704 202.38 151.806 201.78 151.806C200.892 151.806 200.118 151.632 199.458 151.284C198.798 150.936 198.288 150.444 197.928 149.808C197.58 149.16 197.406 148.404 197.406 147.54C197.406 146.688 197.574 145.944 197.91 145.308C198.246 144.66 198.72 144.156 199.332 143.796C199.956 143.436 200.67 143.256 201.474 143.256C202.266 143.256 202.95 143.424 203.526 143.76C204.102 144.084 204.546 144.54 204.858 145.128C205.182 145.716 205.344 146.406 205.344 147.198C205.344 147.33 205.338 147.474 205.326 147.63C205.314 147.786 205.296 147.936 205.272 148.08L199.152 148.098C199.188 148.626 199.326 149.058 199.566 149.394C199.818 149.718 200.13 149.964 200.502 150.132C200.886 150.288 201.3 150.366 201.744 150.366C202.26 150.366 202.74 150.288 203.184 150.132C203.628 149.976 204.03 149.748 204.39 149.448L205.074 150.546ZM203.544 146.802C203.544 146.178 203.358 145.674 202.986 145.29C202.626 144.894 202.134 144.696 201.51 144.696C200.922 144.696 200.4 144.894 199.944 145.29C199.5 145.674 199.248 146.178 199.188 146.802H203.544Z" fill="#FEFEFE"/>
<rect width="245" height="200" transform="translate(265)" fill="#333333"/>
<path d="M333.135 87.2686C333.369 86.0181 333.587 84.9573 333.821 83.756H338.938C339.368 83.756 339.799 83.7724 340.226 83.7349C341.268 83.6413 341.949 82.9645 341.968 82.0372C341.989 81.0701 341.282 80.3067 340.176 80.2762C338.303 80.2224 336.43 80.2551 334.556 80.2481C334.322 80.2481 334.088 80.2083 333.809 80.1825C333.591 79.0726 333.378 77.979 333.132 76.7308H338.917C339.345 76.7308 339.778 76.7496 340.204 76.7121C341.254 76.6208 341.935 75.9557 341.963 75.0284C341.991 74.1011 341.282 73.2768 340.188 73.2534C337.809 73.2019 335.427 73.1902 333.048 73.2534C332.062 73.2745 331.369 73.1035 330.903 72.1106C330.531 71.3144 329.896 70.6424 329.233 69.7127H339.291C339.603 69.7127 339.916 69.7127 340.228 69.694C341.258 69.5792 341.961 68.9048 341.961 67.9915C341.982 67.022 341.272 66.2586 340.169 66.2305C338.179 66.179 336.188 66.2071 334.198 66.2071C332.678 66.2071 331.154 66.1626 329.634 66.2071C327.007 66.3253 324.386 65.8707 321.953 64.8747C315.811 62.3714 309.879 63.3455 304.453 67.1766C304.142 67.3967 303.84 67.6286 303.407 67.9494C303.376 67.5302 303.341 67.2469 303.341 66.9541C303.341 62.3113 303.341 57.6676 303.341 53.0232C303.348 50.37 304.961 48.6489 307.61 48.6395C316.469 48.6044 325.335 48.6254 334.182 48.6278C334.441 48.6468 334.699 48.6788 334.954 48.7238C334.954 51.2856 334.954 53.8147 334.954 56.3438C334.996 63.472 334.076 62.636 341.338 62.6664C343.445 62.6664 345.553 62.6664 347.661 62.6664H349V63.9661C349 77.1937 349 90.4214 349 103.649C349 106.74 347.422 108.332 344.317 108.332C332.221 108.332 320.122 108.332 308.02 108.332C305.531 108.332 303.962 107.218 303.435 105.162C303.257 104.459 303.327 103.916 303.903 103.377C305.212 102.15 306.427 100.823 307.746 99.6095C307.924 99.4703 308.13 99.3721 308.35 99.3219C308.571 99.2717 308.799 99.2708 309.02 99.3191C317.796 102.211 326.178 99.2489 331.226 91.479C331.382 91.2827 331.576 91.1208 331.798 91.0035C332.019 90.8862 332.262 90.8161 332.512 90.7976C334.694 90.7273 336.879 90.7648 339.069 90.7648C339.383 90.7648 339.694 90.7648 340.005 90.7648C341.207 90.7016 341.954 90.0389 341.965 89.0366C341.977 88.0344 341.237 87.3084 340.041 87.2827C338.287 87.2429 336.528 87.2686 334.774 87.2663L333.135 87.2686ZM320.911 62.6805H326.639C327.65 62.6805 328.667 62.7109 329.683 62.6547C330.72 62.5892 331.402 61.903 331.423 60.9663C331.453 60.0016 330.746 59.2803 329.653 59.1796C329.418 59.1585 329.184 59.1656 328.95 59.1656C323.574 59.1656 318.197 59.1656 312.82 59.1656C312.434 59.1656 311.921 59.0766 311.685 59.2803C311.179 59.7276 310.582 60.2779 310.432 60.8844C310.24 61.7063 310.816 62.3714 311.687 62.5751C312.107 62.6569 312.536 62.6884 312.963 62.6688C315.612 62.6781 318.263 62.6735 320.911 62.6735V62.6805ZM335.53 94.3055C334.05 94.3055 332.57 94.2797 331.081 94.3055C329.87 94.3313 329.126 95.008 329.095 95.9962C329.065 97.036 329.84 97.7759 331.098 97.7877C334.056 97.8126 337.014 97.8126 339.973 97.7877C341.181 97.7759 341.926 97.0851 341.956 96.0969C341.989 95.0572 341.214 94.3313 339.954 94.3055C338.488 94.2727 337.008 94.2985 335.53 94.2985V94.3055Z" fill="#FEFEFE"/>
<path d="M326.367 91.9404C325.655 89.0671 324.009 86.9595 321.372 85.6833C323.782 81.3581 323.37 77.5645 320.255 74.9746C318.889 73.8471 317.173 73.2305 315.402 73.2305C313.631 73.2305 311.915 73.8471 310.549 74.9746C307.42 77.5786 307.008 81.3745 309.43 85.6856C306.795 86.9595 305.139 89.0671 304.435 91.938C299.814 87.5075 298.498 78.1359 304.545 71.7687C305.934 70.28 307.614 69.093 309.481 68.2813C311.348 67.4697 313.363 67.0509 315.399 67.0509C317.435 67.0509 319.449 67.4697 321.316 68.2813C323.183 69.093 324.864 70.28 326.252 71.7687C332.311 78.164 330.969 87.5098 326.367 91.9404Z" fill="#FEFEFE"/>
<path d="M304.479 97.701C301.517 100.705 298.17 104.188 294.714 107.567C293.433 108.815 291.302 108.557 290.052 107.272C288.801 105.986 288.595 103.963 289.818 102.701C293.187 99.2442 296.669 95.8955 299.737 92.8653C301.325 94.4741 302.917 96.1039 304.479 97.701Z" fill="#FEFEFE"/>
<path d="M315.441 88.4488C316.26 88.4488 317.08 88.3997 317.897 88.4488C321.614 88.7041 322.911 91.3362 323.168 94.3289C323.185 94.5397 322.901 94.8769 322.674 94.9986C317.843 97.5792 313.003 97.5792 308.156 94.9986C308.011 94.9004 307.892 94.7703 307.806 94.6185C307.719 94.4667 307.669 94.2971 307.659 94.1228C307.968 90.2918 310.038 88.4231 313.916 88.4137H315.436L315.441 88.4488Z" fill="#FEFEFE"/>
<path d="M315.427 84.9128C314.618 84.9165 313.827 84.6805 313.153 84.2346C312.479 83.7888 311.952 83.153 311.638 82.4077C311.325 81.6625 311.24 80.8411 311.394 80.0475C311.547 79.2539 311.933 78.5236 312.501 77.9489C313.07 77.3742 313.796 76.9809 314.588 76.8187C315.38 76.6565 316.202 76.7327 316.95 77.0377C317.699 77.3426 318.341 77.8626 318.794 78.532C319.247 79.2014 319.491 79.9901 319.497 80.7984C319.5 81.3359 319.397 81.8686 319.194 82.3663C318.991 82.864 318.692 83.3168 318.314 83.6989C317.936 84.081 317.487 84.3849 316.991 84.5932C316.496 84.8014 315.964 84.9101 315.427 84.9128Z" fill="#FEFEFE"/>
<path d="M338.495 59.093V50.2248C341.403 53.1426 344.429 56.1752 347.328 59.093H338.495Z" fill="#FEFEFE"/>
<path d="M289.738 140.898H301.114V142.5H299.404L299.386 149.898H301.096V151.5H296.272V149.898H297.568L297.586 142.5H293.266L293.248 149.898H294.544V151.5H289.72V149.898H291.43L291.448 142.5H289.738V140.898ZM302.372 155.37V153.948H303.884V145.29L302.192 144.732L302.66 143.256L305.162 144.12C305.546 143.856 305.96 143.646 306.404 143.49C306.848 143.334 307.262 143.256 307.646 143.256C308.882 143.256 309.848 143.628 310.544 144.372C311.252 145.104 311.606 146.112 311.606 147.396C311.606 148.272 311.438 149.046 311.102 149.718C310.766 150.39 310.286 150.912 309.662 151.284C309.05 151.644 308.324 151.824 307.484 151.824C306.848 151.824 306.254 151.74 305.702 151.572V153.948H307.214V155.37H302.372ZM307.466 150.366C308.186 150.366 308.75 150.108 309.158 149.592C309.566 149.076 309.77 148.35 309.77 147.414C309.77 146.538 309.584 145.872 309.212 145.416C308.84 144.96 308.294 144.732 307.574 144.732C307.226 144.732 306.878 144.792 306.53 144.912C306.182 145.032 305.9 145.194 305.684 145.398V150.006C305.888 150.114 306.152 150.204 306.476 150.276C306.812 150.336 307.142 150.366 307.466 150.366ZM312.785 143.562H316.889V145.002H316.025V149.304L319.679 143.58L322.919 143.562V145.002H321.389V150.06H322.919V151.5H318.815V150.06H319.679V145.704L316.025 151.5H312.785V150.06H314.297V145.002H312.785V143.562ZM331.699 150.546C331.195 150.978 330.667 151.296 330.115 151.5C329.575 151.704 329.005 151.806 328.405 151.806C327.517 151.806 326.743 151.632 326.083 151.284C325.423 150.936 324.913 150.444 324.553 149.808C324.205 149.16 324.031 148.404 324.031 147.54C324.031 146.688 324.199 145.944 324.535 145.308C324.871 144.66 325.345 144.156 325.957 143.796C326.581 143.436 327.295 143.256 328.099 143.256C328.891 143.256 329.575 143.424 330.151 143.76C330.727 144.084 331.171 144.54 331.483 145.128C331.807 145.716 331.969 146.406 331.969 147.198C331.969 147.33 331.963 147.474 331.951 147.63C331.939 147.786 331.921 147.936 331.897 148.08L325.777 148.098C325.813 148.626 325.951 149.058 326.191 149.394C326.443 149.718 326.755 149.964 327.127 150.132C327.511 150.288 327.925 150.366 328.369 150.366C328.885 150.366 329.365 150.288 329.809 150.132C330.253 149.976 330.655 149.748 331.015 149.448L331.699 150.546ZM330.169 146.802C330.169 146.178 329.983 145.674 329.611 145.29C329.251 144.894 328.759 144.696 328.135 144.696C327.547 144.696 327.025 144.894 326.569 145.29C326.125 145.674 325.873 146.178 325.813 146.802H330.169ZM333.158 151.5V150.06H334.67V145.002H333.158V143.562H337.424L340.016 149.16H339.458L341.942 143.562H346.118V145.002H344.606V150.06H346.118V151.5H341.978V150.06H342.842V144.012L343.148 144.084L340.34 150.438H339.044L336.038 144.138L336.434 144.066V150.06H337.298V151.5H333.158ZM352.107 143.58H356.283V145.002H355.437V146.838H359.073V145.002H358.227V143.58H362.403V145.002H360.891V150.06H362.403V151.5H358.227V150.06H359.073V148.278H355.437V150.06H356.283V151.5H352.107V150.06H353.619V145.002H352.107V143.58ZM369.52 151.068C368.704 151.56 367.852 151.806 366.964 151.806C365.884 151.806 365.062 151.596 364.498 151.176C363.946 150.756 363.664 150.144 363.652 149.34C363.64 147.696 364.702 146.874 366.838 146.874L368.962 146.892C368.962 146.136 368.812 145.578 368.512 145.218C368.224 144.846 367.816 144.66 367.288 144.66C367.012 144.66 366.748 144.678 366.496 144.714C366.244 144.75 366.004 144.804 365.776 144.876L365.596 145.812L364.102 145.578L364.426 143.778C364.894 143.61 365.368 143.484 365.848 143.4C366.328 143.304 366.808 143.256 367.288 143.256C368.428 143.256 369.292 143.562 369.88 144.174C370.48 144.774 370.78 145.662 370.78 146.838V149.88L372.364 150.402L371.896 151.878L369.52 151.068ZM366.892 148.152C366.448 148.152 366.106 148.254 365.866 148.458C365.626 148.65 365.506 148.932 365.506 149.304C365.506 150.048 366.016 150.42 367.036 150.42C367.756 150.42 368.398 150.228 368.962 149.844V148.152H366.892ZM377.659 155.37V153.948H379.171V145.29L377.479 144.732L377.947 143.256L380.449 144.12C380.833 143.856 381.247 143.646 381.691 143.49C382.135 143.334 382.549 143.256 382.933 143.256C384.169 143.256 385.135 143.628 385.831 144.372C386.539 145.104 386.893 146.112 386.893 147.396C386.893 148.272 386.725 149.046 386.389 149.718C386.053 150.39 385.573 150.912 384.949 151.284C384.337 151.644 383.611 151.824 382.771 151.824C382.135 151.824 381.541 151.74 380.989 151.572V153.948H382.501V155.37H377.659ZM382.753 150.366C383.473 150.366 384.037 150.108 384.445 149.592C384.853 149.076 385.057 148.35 385.057 147.414C385.057 146.538 384.871 145.872 384.499 145.416C384.127 144.96 383.581 144.732 382.861 144.732C382.513 144.732 382.165 144.792 381.817 144.912C381.469 145.032 381.187 145.194 380.971 145.398V150.006C381.175 150.114 381.439 150.204 381.763 150.276C382.099 150.336 382.429 150.366 382.753 150.366ZM394.041 151.068C393.225 151.56 392.373 151.806 391.485 151.806C390.405 151.806 389.583 151.596 389.019 151.176C388.467 150.756 388.185 150.144 388.173 149.34C388.161 147.696 389.223 146.874 391.359 146.874L393.483 146.892C393.483 146.136 393.333 145.578 393.033 145.218C392.745 144.846 392.337 144.66 391.809 144.66C391.533 144.66 391.269 144.678 391.017 144.714C390.765 144.75 390.525 144.804 390.297 144.876L390.117 145.812L388.623 145.578L388.947 143.778C389.415 143.61 389.889 143.484 390.369 143.4C390.849 143.304 391.329 143.256 391.809 143.256C392.949 143.256 393.813 143.562 394.401 144.174C395.001 144.774 395.301 145.662 395.301 146.838V149.88L396.885 150.402L396.417 151.878L394.041 151.068ZM391.413 148.152C390.969 148.152 390.627 148.254 390.387 148.458C390.147 148.65 390.027 148.932 390.027 149.304C390.027 150.048 390.537 150.42 391.557 150.42C392.277 150.42 392.919 150.228 393.483 149.844V148.152H391.413ZM405.143 141.114C404.951 141.246 404.705 141.378 404.405 141.51C404.105 141.642 403.769 141.768 403.397 141.888C403.037 142.008 402.671 142.128 402.299 142.248C401.939 142.356 401.609 142.464 401.309 142.572C400.709 142.788 400.241 143.052 399.905 143.364C399.581 143.676 399.341 144.06 399.185 144.516C399.041 144.96 398.939 145.5 398.879 146.136C398.999 145.788 399.191 145.452 399.455 145.128C399.731 144.804 400.079 144.54 400.499 144.336C400.931 144.132 401.429 144.03 401.993 144.03C402.725 144.03 403.367 144.186 403.919 144.498C404.483 144.81 404.921 145.254 405.233 145.83C405.557 146.406 405.719 147.096 405.719 147.9C405.719 148.716 405.551 149.418 405.215 150.006C404.879 150.594 404.417 151.044 403.829 151.356C403.253 151.656 402.581 151.806 401.813 151.806C401.057 151.806 400.409 151.68 399.869 151.428C399.341 151.176 398.903 150.834 398.555 150.402C398.219 149.958 397.973 149.454 397.817 148.89C397.661 148.326 397.583 147.738 397.583 147.126C397.583 146.406 397.619 145.728 397.691 145.092C397.775 144.456 397.931 143.874 398.159 143.346C398.399 142.818 398.735 142.356 399.167 141.96C399.611 141.552 400.187 141.222 400.895 140.97C401.255 140.838 401.657 140.7 402.101 140.556C402.557 140.4 402.995 140.238 403.415 140.07C403.847 139.902 404.195 139.734 404.459 139.566L405.143 141.114ZM401.885 145.488C400.349 145.488 399.581 146.292 399.581 147.9C399.581 149.52 400.301 150.33 401.741 150.33C403.181 150.33 403.901 149.52 403.901 147.9C403.901 146.292 403.229 145.488 401.885 145.488ZM411.317 143.256C412.181 143.256 412.919 143.43 413.531 143.778C414.155 144.114 414.635 144.606 414.971 145.254C415.307 145.89 415.475 146.658 415.475 147.558C415.475 148.89 415.103 149.934 414.359 150.69C413.615 151.434 412.601 151.806 411.317 151.806C410.477 151.806 409.745 151.638 409.121 151.302C408.509 150.966 408.035 150.48 407.699 149.844C407.375 149.196 407.213 148.434 407.213 147.558C407.213 146.658 407.375 145.89 407.699 145.254C408.035 144.606 408.509 144.114 409.121 143.778C409.745 143.43 410.477 143.256 411.317 143.256ZM411.317 144.732C410.561 144.732 409.985 144.978 409.589 145.47C409.205 145.95 409.013 146.646 409.013 147.558C409.013 148.458 409.205 149.148 409.589 149.628C409.985 150.108 410.561 150.348 411.317 150.348C412.109 150.348 412.697 150.108 413.081 149.628C413.477 149.148 413.675 148.458 413.675 147.558C413.675 146.646 413.477 145.95 413.081 145.47C412.697 144.978 412.109 144.732 411.317 144.732ZM416.449 143.58H424.675V146.586H423.325V145.002H421.471V150.06H423.019V151.5H418.105V150.06H419.671V145.002H417.817V146.586H416.449V143.58ZM427.738 155.73C427.51 155.73 427.276 155.706 427.036 155.658C426.808 155.622 426.562 155.55 426.298 155.442L426.604 154.056C426.808 154.116 426.988 154.164 427.144 154.2C427.312 154.236 427.48 154.254 427.648 154.254C427.96 154.254 428.218 154.194 428.422 154.074C428.626 153.954 428.818 153.732 428.998 153.408C429.19 153.084 429.394 152.622 429.61 152.022L432.238 145.002H431.284L431.338 143.58H435.334V145.002H433.984L430.816 152.958C430.432 153.906 429.994 154.602 429.502 155.046C429.01 155.502 428.422 155.73 427.738 155.73ZM430.006 152.724L426.388 145.002H425.074V143.58H429.232V145.002H428.224L430.798 150.996L430.006 152.724Z" fill="#FEFEFE"/>
<rect width="245" height="200" transform="translate(0 220)" fill="#333333"/>
<path d="M24.0819 328.498V321.495H48.6459V317.973H24.0983V310.929H31.0081V303.955H41.6564V310.882H48.6998V317.973C51.1007 317.973 53.354 317.973 55.605 317.957C55.728 317.937 55.8456 317.892 55.9507 317.825C56.0559 317.758 56.1462 317.67 56.2163 317.567C59.2028 313.216 63.3956 313.364 66.0682 317.922C70.0502 318.309 73.381 317.217 75.6109 313.664C72.6829 309.743 72.6806 308.062 75.557 304.824C74.1867 301.696 70.5936 300.036 66.0495 300.428C64.4286 303.29 62.2525 304.399 59.6596 303.689C58.2752 303.309 57.1486 302.529 56.5208 301.247C56.1343 300.463 55.6401 300.348 54.8812 300.35C46.9173 300.372 38.9533 300.372 30.9894 300.35C27.5462 300.336 24.7494 297.892 24.1076 294.454C23.5314 291.376 25.3163 288.065 28.3238 286.853C29.2318 286.507 30.1917 286.317 31.1627 286.292C33.3458 286.212 35.5359 286.292 37.7213 286.238C37.9291 286.214 38.1296 286.147 38.3093 286.039C38.489 285.932 38.6439 285.788 38.7636 285.616C41.0497 281.762 45.8984 281.765 48.1798 285.63C48.3414 285.907 48.7185 286.236 48.9996 286.238C53.4875 286.268 57.9754 286.25 62.4633 286.238C62.5313 286.238 62.6015 286.175 62.7795 286.085V268.5H83.9496C82.7784 270.534 81.7173 272.513 80.5344 274.424C80.0496 275.206 80.0964 275.777 80.5555 276.538C81.7079 278.433 82.7737 280.382 83.9777 282.49H66.3165V289.795H48.5382C46.8025 292.749 44.685 293.834 42.1131 293.139C40.682 292.754 39.5553 291.932 38.8971 290.615C38.5551 289.932 38.1452 289.779 37.4496 289.793C35.3415 289.838 33.2334 289.793 31.1253 289.817C29.0172 289.84 27.5251 291.387 27.5438 293.365C27.545 293.826 27.6378 294.284 27.8169 294.709C27.9959 295.135 28.2577 295.52 28.5868 295.844C28.916 296.167 29.306 296.421 29.7342 296.592C30.1623 296.762 30.6201 296.846 31.0808 296.838C39.2789 296.861 47.4771 296.838 55.6753 296.838C55.7885 296.83 55.9012 296.815 56.0126 296.793C57.6522 293.884 59.8891 292.775 62.5172 293.548C63.8523 293.94 64.9439 294.71 65.5482 295.955C65.9276 296.737 66.4195 296.894 67.1878 296.856C71.062 296.697 74.3882 297.953 77.0772 300.799C77.1914 300.906 77.2956 301.023 77.3887 301.149C78.4287 302.727 79.5835 303.997 81.4807 304.795C83.4975 305.645 84.2588 307.724 83.9238 309.936C83.5888 312.147 82.2678 313.559 80.1292 314.268C79.6027 314.43 79.1431 314.76 78.8199 315.207C76.2995 319.3 72.6829 321.456 67.8788 321.474C66.724 321.474 65.9839 321.653 65.2648 322.768C63.2668 325.872 58.7062 325.743 56.659 322.667C56.4248 322.31 56.2351 321.923 56.0266 321.554H48.749V328.5L24.0819 328.498ZM34.5989 310.842H38.1124V307.493H34.5989V310.842Z" fill="#FEFEFE"/>
<path d="M24.72 360.898H29.202V362.5H28.122V365.416H29.598L31.74 362.5H30.678V360.898H35.25V362.5H33.594L31.02 365.848L33.882 369.898H35.682V371.5H30.552V369.898H31.884L29.85 366.964H28.122L28.14 369.898H29.202V371.5H24.72V369.898H26.304V362.5H24.72V360.898ZM42.4867 371.068C41.6707 371.56 40.8187 371.806 39.9307 371.806C38.8507 371.806 38.0287 371.596 37.4647 371.176C36.9127 370.756 36.6307 370.144 36.6187 369.34C36.6067 367.696 37.6687 366.874 39.8047 366.874L41.9287 366.892C41.9287 366.136 41.7787 365.578 41.4787 365.218C41.1907 364.846 40.7827 364.66 40.2547 364.66C39.9787 364.66 39.7147 364.678 39.4627 364.714C39.2107 364.75 38.9707 364.804 38.7427 364.876L38.5627 365.812L37.0687 365.578L37.3927 363.778C37.8607 363.61 38.3347 363.484 38.8147 363.4C39.2947 363.304 39.7747 363.256 40.2547 363.256C41.3947 363.256 42.2587 363.562 42.8467 364.174C43.4467 364.774 43.7467 365.662 43.7467 366.838V369.88L45.3307 370.402L44.8627 371.878L42.4867 371.068ZM39.8587 368.152C39.4147 368.152 39.0727 368.254 38.8327 368.458C38.5927 368.65 38.4727 368.932 38.4727 369.304C38.4727 370.048 38.9827 370.42 40.0027 370.42C40.7227 370.42 41.3647 370.228 41.9287 369.844V368.152H39.8587ZM46.303 374.056L46.285 370.06H47.455C47.707 369.928 47.911 369.706 48.067 369.394C48.223 369.082 48.343 368.734 48.427 368.35C48.511 367.954 48.577 367.558 48.625 367.162C48.673 366.766 48.709 366.418 48.733 366.118L48.823 365.02H47.293V363.58H56.041V365.02H54.439V370.06H56.041V374.056H54.277V371.5H48.067V374.056H46.303ZM49.219 370.06H52.639V365.02H50.299L50.173 366.316C50.089 367.276 49.975 368.074 49.831 368.71C49.699 369.334 49.495 369.784 49.219 370.06ZM57.3935 375.37V373.948H58.9055V365.29L57.2135 364.732L57.6815 363.256L60.1835 364.12C60.5675 363.856 60.9815 363.646 61.4255 363.49C61.8695 363.334 62.2835 363.256 62.6675 363.256C63.9035 363.256 64.8695 363.628 65.5655 364.372C66.2735 365.104 66.6275 366.112 66.6275 367.396C66.6275 368.272 66.4595 369.046 66.1235 369.718C65.7875 370.39 65.3075 370.912 64.6835 371.284C64.0715 371.644 63.3455 371.824 62.5055 371.824C61.8695 371.824 61.2755 371.74 60.7235 371.572V373.948H62.2355V375.37H57.3935ZM62.4875 370.366C63.2075 370.366 63.7715 370.108 64.1795 369.592C64.5875 369.076 64.7915 368.35 64.7915 367.414C64.7915 366.538 64.6055 365.872 64.2335 365.416C63.8615 364.96 63.3155 364.732 62.5955 364.732C62.2475 364.732 61.8995 364.792 61.5515 364.912C61.2035 365.032 60.9215 365.194 60.7055 365.398V370.006C60.9095 370.114 61.1735 370.204 61.4975 370.276C61.8335 370.336 62.1635 370.366 62.4875 370.366ZM72.2077 363.256C73.0717 363.256 73.8097 363.43 74.4217 363.778C75.0457 364.114 75.5257 364.606 75.8617 365.254C76.1977 365.89 76.3657 366.658 76.3657 367.558C76.3657 368.89 75.9937 369.934 75.2497 370.69C74.5057 371.434 73.4917 371.806 72.2077 371.806C71.3677 371.806 70.6357 371.638 70.0117 371.302C69.3997 370.966 68.9257 370.48 68.5897 369.844C68.2657 369.196 68.1037 368.434 68.1037 367.558C68.1037 366.658 68.2657 365.89 68.5897 365.254C68.9257 364.606 69.3997 364.114 70.0117 363.778C70.6357 363.43 71.3677 363.256 72.2077 363.256ZM72.2077 364.732C71.4517 364.732 70.8757 364.978 70.4797 365.47C70.0957 365.95 69.9037 366.646 69.9037 367.558C69.9037 368.458 70.0957 369.148 70.4797 369.628C70.8757 370.108 71.4517 370.348 72.2077 370.348C72.9997 370.348 73.5877 370.108 73.9717 369.628C74.3677 369.148 74.5657 368.458 74.5657 367.558C74.5657 366.646 74.3677 365.95 73.9717 365.47C73.5877 364.978 72.9997 364.732 72.2077 364.732ZM82.602 363.58C83.658 363.58 84.456 363.754 84.996 364.102C85.548 364.438 85.824 364.93 85.824 365.578C85.824 365.998 85.728 366.352 85.536 366.64C85.356 366.928 85.086 367.138 84.726 367.27C85.206 367.366 85.572 367.57 85.824 367.882C86.076 368.194 86.202 368.596 86.202 369.088C86.202 369.88 85.986 370.48 85.554 370.888C85.134 371.296 84.51 371.5 83.682 371.5H77.562V370.06H79.146V365.002H77.562V363.58H82.602ZM83.052 370.114C83.928 370.114 84.366 369.748 84.366 369.016C84.366 368.344 83.952 368.008 83.124 368.008H80.982V370.114H83.052ZM82.908 366.802C83.592 366.802 83.934 366.502 83.934 365.902C83.934 365.254 83.466 364.93 82.53 364.93H80.982V366.802H82.908ZM87.7397 371.5V370.06H89.2157V365.002H87.7397V363.58H92.5817V365.002H90.9617V366.64H92.4737C93.0497 366.64 93.5777 366.712 94.0577 366.856C94.5497 367 94.9397 367.246 95.2277 367.594C95.5277 367.93 95.6777 368.398 95.6777 368.998C95.6777 369.718 95.4617 370.318 95.0297 370.798C94.6097 371.266 93.9857 371.5 93.1577 371.5H87.7397ZM90.9617 370.042H92.6177C93.0137 370.042 93.3317 369.952 93.5717 369.772C93.8237 369.592 93.9497 369.322 93.9497 368.962C93.9497 368.626 93.8357 368.374 93.6077 368.206C93.3917 368.026 93.0857 367.936 92.6897 367.936H90.9617V370.042ZM96.6857 371.5V370.06H97.1357V365.002H96.0197V363.58H100.466V365.002H98.9357V370.06H100.466V371.5H96.6857ZM102.066 363.562H106.17V365.002H105.306V369.304L108.96 363.58L112.2 363.562V365.002H110.67V370.06H112.2V371.5H108.096V370.06H108.96V365.704L105.306 371.5H102.066V370.06H103.578V365.002H102.066V363.562ZM107.286 362.392C106.386 362.392 105.69 362.164 105.198 361.708C104.706 361.24 104.406 360.67 104.298 359.998L105.612 359.8C105.648 360.184 105.798 360.502 106.062 360.754C106.338 360.994 106.746 361.114 107.286 361.114C107.85 361.114 108.264 360.988 108.528 360.736C108.804 360.484 108.96 360.172 108.996 359.8L110.31 359.998C110.214 360.67 109.914 361.24 109.41 361.708C108.918 362.164 108.21 362.392 107.286 362.392ZM118.185 363.562H128.391V365.002H126.861V370.06H128.391V371.5H124.197V370.06H125.061V365.002H121.515V370.06H122.361V371.5H118.185V370.06H119.697V365.002H118.185V363.562ZM137.17 370.546C136.666 370.978 136.138 371.296 135.586 371.5C135.046 371.704 134.476 371.806 133.876 371.806C132.988 371.806 132.214 371.632 131.554 371.284C130.894 370.936 130.384 370.444 130.024 369.808C129.676 369.16 129.502 368.404 129.502 367.54C129.502 366.688 129.67 365.944 130.006 365.308C130.342 364.66 130.816 364.156 131.428 363.796C132.052 363.436 132.766 363.256 133.57 363.256C134.362 363.256 135.046 363.424 135.622 363.76C136.198 364.084 136.642 364.54 136.954 365.128C137.278 365.716 137.44 366.406 137.44 367.198C137.44 367.33 137.434 367.474 137.422 367.63C137.41 367.786 137.392 367.936 137.368 368.08L131.248 368.098C131.284 368.626 131.422 369.058 131.662 369.394C131.914 369.718 132.226 369.964 132.598 370.132C132.982 370.288 133.396 370.366 133.84 370.366C134.356 370.366 134.836 370.288 135.28 370.132C135.724 369.976 136.126 369.748 136.486 369.448L137.17 370.546ZM135.64 366.802C135.64 366.178 135.454 365.674 135.082 365.29C134.722 364.894 134.23 364.696 133.606 364.696C133.018 364.696 132.496 364.894 132.04 365.29C131.596 365.674 131.344 366.178 131.284 366.802H135.64ZM138.358 375.37V373.948H139.87V365.29L138.178 364.732L138.646 363.256L141.148 364.12C141.532 363.856 141.946 363.646 142.39 363.49C142.834 363.334 143.248 363.256 143.632 363.256C144.868 363.256 145.834 363.628 146.53 364.372C147.238 365.104 147.592 366.112 147.592 367.396C147.592 368.272 147.424 369.046 147.088 369.718C146.752 370.39 146.272 370.912 145.648 371.284C145.036 371.644 144.31 371.824 143.47 371.824C142.834 371.824 142.24 371.74 141.688 371.572V373.948H143.2V375.37H138.358ZM143.452 370.366C144.172 370.366 144.736 370.108 145.144 369.592C145.552 369.076 145.756 368.35 145.756 367.414C145.756 366.538 145.57 365.872 145.198 365.416C144.826 364.96 144.28 364.732 143.56 364.732C143.212 364.732 142.864 364.792 142.516 364.912C142.168 365.032 141.886 365.194 141.67 365.398V370.006C141.874 370.114 142.138 370.204 142.462 370.276C142.798 370.336 143.128 370.366 143.452 370.366ZM156.647 370.546C156.143 370.978 155.615 371.296 155.063 371.5C154.523 371.704 153.953 371.806 153.353 371.806C152.465 371.806 151.691 371.632 151.031 371.284C150.371 370.936 149.861 370.444 149.5 369.808C149.153 369.16 148.979 368.404 148.979 367.54C148.979 366.688 149.147 365.944 149.483 365.308C149.819 364.66 150.293 364.156 150.905 363.796C151.529 363.436 152.243 363.256 153.047 363.256C153.839 363.256 154.523 363.424 155.099 363.76C155.675 364.084 156.119 364.54 156.431 365.128C156.755 365.716 156.917 366.406 156.917 367.198C156.917 367.33 156.911 367.474 156.899 367.63C156.887 367.786 156.869 367.936 156.845 368.08L150.725 368.098C150.761 368.626 150.899 369.058 151.139 369.394C151.391 369.718 151.703 369.964 152.075 370.132C152.459 370.288 152.873 370.366 153.317 370.366C153.833 370.366 154.313 370.288 154.757 370.132C155.201 369.976 155.603 369.748 155.963 369.448L156.647 370.546ZM155.117 366.802C155.117 366.178 154.931 365.674 154.559 365.29C154.199 364.894 153.707 364.696 153.083 364.696C152.495 364.696 151.973 364.894 151.517 365.29C151.073 365.674 150.821 366.178 150.761 366.802H155.117ZM163.145 363.58C164.201 363.58 164.999 363.754 165.539 364.102C166.091 364.438 166.367 364.93 166.367 365.578C166.367 365.998 166.271 366.352 166.079 366.64C165.899 366.928 165.629 367.138 165.269 367.27C165.749 367.366 166.115 367.57 166.367 367.882C166.619 368.194 166.745 368.596 166.745 369.088C166.745 369.88 166.529 370.48 166.097 370.888C165.677 371.296 165.053 371.5 164.225 371.5H158.105V370.06H159.689V365.002H158.105V363.58H163.145ZM163.595 370.114C164.471 370.114 164.909 369.748 164.909 369.016C164.909 368.344 164.495 368.008 163.667 368.008H161.525V370.114H163.595ZM163.451 366.802C164.135 366.802 164.477 366.502 164.477 365.902C164.477 365.254 164.009 364.93 163.073 364.93H161.525V366.802H163.451ZM172.421 363.256C173.285 363.256 174.023 363.43 174.635 363.778C175.259 364.114 175.739 364.606 176.075 365.254C176.411 365.89 176.579 366.658 176.579 367.558C176.579 368.89 176.207 369.934 175.463 370.69C174.719 371.434 173.705 371.806 172.421 371.806C171.581 371.806 170.849 371.638 170.225 371.302C169.613 370.966 169.139 370.48 168.803 369.844C168.479 369.196 168.317 368.434 168.317 367.558C168.317 366.658 168.479 365.89 168.803 365.254C169.139 364.606 169.613 364.114 170.225 363.778C170.849 363.43 171.581 363.256 172.421 363.256ZM172.421 364.732C171.665 364.732 171.089 364.978 170.693 365.47C170.309 365.95 170.117 366.646 170.117 367.558C170.117 368.458 170.309 369.148 170.693 369.628C171.089 370.108 171.665 370.348 172.421 370.348C173.213 370.348 173.801 370.108 174.185 369.628C174.581 369.148 174.779 368.458 174.779 367.558C174.779 366.646 174.581 365.95 174.185 365.47C173.801 364.978 173.213 364.732 172.421 364.732ZM177.629 374.056L177.611 370.06H178.781C179.033 369.928 179.237 369.706 179.393 369.394C179.549 369.082 179.669 368.734 179.753 368.35C179.837 367.954 179.903 367.558 179.951 367.162C179.999 366.766 180.035 366.418 180.059 366.118L180.149 365.02H178.619V363.58H187.367V365.02H185.765V370.06H187.367V374.056H185.603V371.5H179.393V374.056H177.629ZM180.545 370.06H183.965V365.02H181.625L181.499 366.316C181.415 367.276 181.301 368.074 181.157 368.71C181.025 369.334 180.821 369.784 180.545 370.06Z" fill="#FEFEFE"/>
<rect width="245" height="200" transform="translate(265 220)" fill="#333333"/>
<path d="M317.985 311.988C318.039 312.192 318.076 312.401 318.096 312.612C317.734 316.44 318.314 315.763 314.71 315.787C308.953 315.823 303.2 315.787 297.443 315.787H295.408V313.822C295.408 300.411 295.408 287 295.408 273.589C295.408 269.871 296.749 268.503 300.437 268.5C310.048 268.5 319.659 268.5 329.271 268.5H331.299C328.815 271.739 329.442 275.269 329.431 278.679C329.391 289.686 329.411 300.693 329.408 311.7C329.408 312.092 329.515 312.524 329.385 312.863C329.149 313.348 328.868 313.809 328.546 314.241C328.211 313.815 327.641 313.43 327.541 312.954C327.182 311.15 326.977 309.312 326.712 307.492C326.615 306.821 326.521 306.151 326.397 305.507C326.292 304.808 325.98 304.156 325.502 303.634C325.025 303.112 324.403 302.744 323.715 302.577C322.277 302.178 320.849 302.436 319.92 303.673C319.249 304.582 318.451 304.679 317.469 304.679C314.006 304.652 310.542 304.659 307.076 304.679C306.07 304.679 304.866 304.582 304.893 306.067C304.917 307.445 306.06 307.334 307.005 307.338C310.469 307.338 313.935 307.338 317.399 307.338C317.774 307.357 318.147 307.395 318.518 307.452C318.854 308.793 318.472 309.363 317.053 309.329C313.868 309.252 310.683 309.302 307.498 309.306C307.106 309.306 306.633 309.172 306.341 309.346C305.813 309.723 305.321 310.147 304.87 310.613C305.383 311.066 305.875 311.887 306.408 311.907C309.644 312.032 312.886 311.975 316.131 311.978L317.985 311.988ZM324.51 286.44C324.536 284.845 324.247 283.259 323.66 281.775C323.073 280.291 322.199 278.938 321.088 277.792C319.978 276.646 318.652 275.73 317.187 275.097C315.722 274.464 314.146 274.126 312.551 274.102C305.983 273.992 300.417 279.359 300.26 285.958C300.23 287.567 300.519 289.166 301.111 290.662C301.703 292.159 302.586 293.523 303.708 294.677C304.83 295.83 306.17 296.75 307.65 297.382C309.13 298.015 310.72 298.348 312.329 298.363C315.521 298.381 318.59 297.138 320.871 294.906C323.152 292.674 324.459 289.631 324.51 286.44Z" fill="#FEFEFE"/>
<path d="M332.083 297.605C334.373 298.728 335.698 300.237 336.04 302.53C336.148 303.248 336.343 303.95 336.62 304.622C338.819 309.909 339 315.274 337.354 320.745C337.019 321.858 336.935 323.045 336.683 324.188C336.103 326.78 334.259 328.356 331.607 328.446C329.596 328.518 327.584 328.518 325.573 328.446C322.428 328.346 320.232 326.237 320.366 323.112C320.6 317.661 321.036 312.216 321.486 306.774C321.529 306.211 322.2 305.702 322.579 305.165C323.024 305.695 323.745 306.171 323.866 306.761C324.295 308.89 324.483 311.063 324.828 313.208C325.254 315.89 326.649 317.141 328.851 316.947C330.903 316.766 332.073 315.217 332.077 312.645C332.077 308.237 332.077 303.829 332.077 299.419L332.083 297.605Z" fill="#FEFEFE"/>
<path d="M342.42 280.875H332.14C332.14 278.193 331.966 275.584 332.187 273.003C332.415 270.29 334.849 268.44 337.552 268.544C338.851 268.563 340.093 269.081 341.021 269.991C341.948 270.901 342.49 272.133 342.534 273.432C342.638 275.658 342.571 277.894 342.567 280.137C342.54 280.387 342.49 280.634 342.42 280.875Z" fill="#FEFEFE"/>
<path d="M304.645 291.473C302.006 287.966 302.422 282.803 305.771 279.514C309.121 276.225 314.197 275.879 317.66 278.508L304.645 291.473Z" fill="#FEFEFE"/>
<path d="M306.988 293.853C311.347 289.495 315.628 285.173 319.917 280.865C322.599 283.644 322.455 289.065 319.531 292.422C318.011 294.205 315.87 295.345 313.542 295.611C311.214 295.876 308.871 295.248 306.988 293.853Z" fill="#FEFEFE"/>
<path d="M293.212 371.842C292.9 371.842 292.582 371.812 292.258 371.752C291.946 371.704 291.568 371.62 291.124 371.5L291.592 369.934C291.856 370.042 292.126 370.126 292.402 370.186C292.69 370.246 292.936 370.276 293.14 370.276C293.464 370.276 293.704 370.192 293.86 370.024C294.016 369.856 294.172 369.562 294.328 369.142L290.656 362.5H289.072V360.898H293.716V362.5H292.672L295.12 367.162L296.884 362.5H295.768V360.898H300.448V362.5H298.666L295.804 369.628C295.504 370.36 295.174 370.912 294.814 371.284C294.454 371.656 293.92 371.842 293.212 371.842ZM305.151 363.58C306.207 363.58 307.005 363.754 307.545 364.102C308.097 364.438 308.373 364.93 308.373 365.578C308.373 365.998 308.277 366.352 308.085 366.64C307.905 366.928 307.635 367.138 307.275 367.27C307.755 367.366 308.121 367.57 308.373 367.882C308.625 368.194 308.751 368.596 308.751 369.088C308.751 369.88 308.535 370.48 308.103 370.888C307.683 371.296 307.059 371.5 306.231 371.5H300.111V370.06H301.695V365.002H300.111V363.58H305.151ZM305.601 370.114C306.477 370.114 306.915 369.748 306.915 369.016C306.915 368.344 306.501 368.008 305.673 368.008H303.531V370.114H305.601ZM305.457 366.802C306.141 366.802 306.483 366.502 306.483 365.902C306.483 365.254 306.015 364.93 305.079 364.93H303.531V366.802H305.457ZM314.426 363.256C315.29 363.256 316.028 363.43 316.64 363.778C317.264 364.114 317.744 364.606 318.08 365.254C318.416 365.89 318.584 366.658 318.584 367.558C318.584 368.89 318.212 369.934 317.468 370.69C316.724 371.434 315.71 371.806 314.426 371.806C313.586 371.806 312.854 371.638 312.23 371.302C311.618 370.966 311.144 370.48 310.808 369.844C310.484 369.196 310.322 368.434 310.322 367.558C310.322 366.658 310.484 365.89 310.808 365.254C311.144 364.606 311.618 364.114 312.23 363.778C312.854 363.43 313.586 363.256 314.426 363.256ZM314.426 364.732C313.67 364.732 313.094 364.978 312.698 365.47C312.314 365.95 312.122 366.646 312.122 367.558C312.122 368.458 312.314 369.148 312.698 369.628C313.094 370.108 313.67 370.348 314.426 370.348C315.218 370.348 315.806 370.108 316.19 369.628C316.586 369.148 316.784 368.458 316.784 367.558C316.784 366.646 316.586 365.95 316.19 365.47C315.806 364.978 315.218 364.732 314.426 364.732ZM324.931 371.5V370.06H325.687V365.002H320.467V363.562H329.089V365.002H327.487V370.06H329.107V371.5H324.931ZM319.513 371.626V370.168C320.137 370.228 320.611 370.132 320.935 369.88C321.259 369.616 321.487 369.22 321.619 368.692C321.763 368.164 321.853 367.54 321.889 366.82L322.015 364.678H323.599L323.419 367.27C323.359 368.194 323.191 369.004 322.915 369.7C322.639 370.396 322.225 370.918 321.673 371.266C321.121 371.602 320.401 371.722 319.513 371.626ZM330.732 371.5V370.06H332.208V365.002H330.732V363.58H335.574V365.002H334.044V366.55H335.844C336.432 366.55 336.972 366.628 337.464 366.784C337.968 366.928 338.37 367.18 338.67 367.54C338.982 367.888 339.138 368.374 339.138 368.998C339.138 369.718 338.916 370.318 338.472 370.798C338.028 371.266 337.38 371.5 336.528 371.5H330.732ZM334.044 370.06H335.988C336.396 370.06 336.714 369.97 336.942 369.79C337.182 369.598 337.302 369.322 337.302 368.962C337.302 368.626 337.194 368.368 336.978 368.188C336.762 368.008 336.456 367.918 336.06 367.918H334.044V370.06ZM340.312 363.58H344.488V365.002H343.642V366.838H347.278V365.002H346.432V363.58H350.608V365.002H349.096V370.06H350.608V371.5H346.432V370.06H347.278V368.278H343.642V370.06H344.488V371.5H340.312V370.06H341.824V365.002H340.312V363.58ZM359.402 370.546C358.898 370.978 358.37 371.296 357.818 371.5C357.278 371.704 356.708 371.806 356.108 371.806C355.22 371.806 354.446 371.632 353.786 371.284C353.126 370.936 352.616 370.444 352.256 369.808C351.908 369.16 351.734 368.404 351.734 367.54C351.734 366.688 351.902 365.944 352.238 365.308C352.574 364.66 353.048 364.156 353.66 363.796C354.284 363.436 354.998 363.256 355.802 363.256C356.594 363.256 357.278 363.424 357.854 363.76C358.43 364.084 358.874 364.54 359.186 365.128C359.51 365.716 359.672 366.406 359.672 367.198C359.672 367.33 359.666 367.474 359.654 367.63C359.642 367.786 359.624 367.936 359.6 368.08L353.48 368.098C353.516 368.626 353.654 369.058 353.894 369.394C354.146 369.718 354.458 369.964 354.83 370.132C355.214 370.288 355.628 370.366 356.072 370.366C356.588 370.366 357.068 370.288 357.512 370.132C357.956 369.976 358.358 369.748 358.718 369.448L359.402 370.546ZM357.872 366.802C357.872 366.178 357.686 365.674 357.314 365.29C356.954 364.894 356.462 364.696 355.838 364.696C355.25 364.696 354.728 364.894 354.272 365.29C353.828 365.674 353.576 366.178 353.516 366.802H357.872ZM360.861 363.58H365.037V365.002H364.191V366.838H367.827V365.002H366.981V363.58H371.157V365.002H369.645V370.06H371.157V371.5H366.981V370.06H367.827V368.278H364.191V370.06H365.037V371.5H360.861V370.06H362.373V365.002H360.861V363.58ZM372.779 363.562H376.883V365.002H376.019V369.304L379.673 363.58L382.913 363.562V365.002H381.383V370.06H382.913V371.5H378.809V370.06H379.673V365.704L376.019 371.5H372.779V370.06H374.291V365.002H372.779V363.562ZM391.693 370.546C391.189 370.978 390.661 371.296 390.109 371.5C389.569 371.704 388.999 371.806 388.399 371.806C387.511 371.806 386.737 371.632 386.077 371.284C385.417 370.936 384.907 370.444 384.547 369.808C384.199 369.16 384.025 368.404 384.025 367.54C384.025 366.688 384.193 365.944 384.529 365.308C384.865 364.66 385.339 364.156 385.951 363.796C386.575 363.436 387.289 363.256 388.093 363.256C388.885 363.256 389.569 363.424 390.145 363.76C390.721 364.084 391.165 364.54 391.477 365.128C391.801 365.716 391.963 366.406 391.963 367.198C391.963 367.33 391.957 367.474 391.945 367.63C391.933 367.786 391.915 367.936 391.891 368.08L385.771 368.098C385.807 368.626 385.945 369.058 386.185 369.394C386.437 369.718 386.749 369.964 387.121 370.132C387.505 370.288 387.919 370.366 388.363 370.366C388.879 370.366 389.359 370.288 389.803 370.132C390.247 369.976 390.649 369.748 391.009 369.448L391.693 370.546ZM390.163 366.802C390.163 366.178 389.977 365.674 389.605 365.29C389.245 364.894 388.753 364.696 388.129 364.696C387.541 364.696 387.019 364.894 386.563 365.29C386.119 365.674 385.867 366.178 385.807 366.802H390.163ZM403.248 364.858C403.02 364.774 402.798 364.72 402.582 364.696C402.366 364.66 402.138 364.642 401.898 364.642C401.13 364.642 400.53 364.888 400.098 365.38C399.678 365.872 399.468 366.604 399.468 367.576C399.468 368.464 399.696 369.148 400.152 369.628C400.62 370.096 401.19 370.33 401.862 370.33C402.246 370.33 402.642 370.264 403.05 370.132C403.458 369.988 403.86 369.778 404.256 369.502L404.994 370.6C404.658 370.852 404.334 371.068 404.022 371.248C403.71 371.428 403.374 371.566 403.014 371.662C402.666 371.758 402.246 371.806 401.754 371.806C400.926 371.806 400.2 371.644 399.576 371.32C398.952 370.984 398.472 370.498 398.136 369.862C397.8 369.226 397.632 368.464 397.632 367.576C397.632 366.628 397.806 365.836 398.154 365.2C398.502 364.552 398.994 364.066 399.63 363.742C400.278 363.406 401.028 363.238 401.88 363.238C402.36 363.238 402.816 363.286 403.248 363.382C403.692 363.478 404.16 363.604 404.652 363.76L405.012 365.956L403.5 366.28L403.248 364.858ZM410.583 375.37V373.948H412.095V365.29L410.403 364.732L410.871 363.256L413.373 364.12C413.757 363.856 414.171 363.646 414.615 363.49C415.059 363.334 415.473 363.256 415.857 363.256C417.093 363.256 418.059 363.628 418.755 364.372C419.463 365.104 419.817 366.112 419.817 367.396C419.817 368.272 419.649 369.046 419.313 369.718C418.977 370.39 418.497 370.912 417.873 371.284C417.261 371.644 416.535 371.824 415.695 371.824C415.059 371.824 414.465 371.74 413.913 371.572V373.948H415.425V375.37H410.583ZM415.677 370.366C416.397 370.366 416.961 370.108 417.369 369.592C417.777 369.076 417.981 368.35 417.981 367.414C417.981 366.538 417.795 365.872 417.423 365.416C417.051 364.96 416.505 364.732 415.785 364.732C415.437 364.732 415.089 364.792 414.741 364.912C414.393 365.032 414.111 365.194 413.895 365.398V370.006C414.099 370.114 414.363 370.204 414.687 370.276C415.023 370.336 415.353 370.366 415.677 370.366ZM426.965 371.068C426.149 371.56 425.297 371.806 424.409 371.806C423.329 371.806 422.507 371.596 421.943 371.176C421.391 370.756 421.109 370.144 421.097 369.34C421.085 367.696 422.147 366.874 424.283 366.874L426.407 366.892C426.407 366.136 426.257 365.578 425.957 365.218C425.669 364.846 425.261 364.66 424.733 364.66C424.457 364.66 424.193 364.678 423.941 364.714C423.689 364.75 423.449 364.804 423.221 364.876L423.041 365.812L421.547 365.578L421.871 363.778C422.339 363.61 422.813 363.484 423.293 363.4C423.773 363.304 424.253 363.256 424.733 363.256C425.873 363.256 426.737 363.562 427.325 364.174C427.925 364.774 428.225 365.662 428.225 366.838V369.88L429.809 370.402L429.341 371.878L426.965 371.068ZM424.337 368.152C423.893 368.152 423.551 368.254 423.311 368.458C423.071 368.65 422.951 368.932 422.951 369.304C422.951 370.048 423.461 370.42 424.481 370.42C425.201 370.42 425.843 370.228 426.407 369.844V368.152H424.337ZM438.067 361.114C437.875 361.246 437.629 361.378 437.329 361.51C437.029 361.642 436.693 361.768 436.321 361.888C435.961 362.008 435.595 362.128 435.223 362.248C434.863 362.356 434.533 362.464 434.233 362.572C433.633 362.788 433.165 363.052 432.829 363.364C432.505 363.676 432.265 364.06 432.109 364.516C431.965 364.96 431.863 365.5 431.803 366.136C431.923 365.788 432.115 365.452 432.379 365.128C432.655 364.804 433.003 364.54 433.423 364.336C433.855 364.132 434.353 364.03 434.917 364.03C435.649 364.03 436.291 364.186 436.843 364.498C437.407 364.81 437.845 365.254 438.157 365.83C438.481 366.406 438.643 367.096 438.643 367.9C438.643 368.716 438.475 369.418 438.139 370.006C437.803 370.594 437.341 371.044 436.753 371.356C436.177 371.656 435.505 371.806 434.737 371.806C433.981 371.806 433.333 371.68 432.793 371.428C432.265 371.176 431.827 370.834 431.479 370.402C431.143 369.958 430.897 369.454 430.741 368.89C430.585 368.326 430.507 367.738 430.507 367.126C430.507 366.406 430.543 365.728 430.615 365.092C430.699 364.456 430.855 363.874 431.083 363.346C431.323 362.818 431.659 362.356 432.091 361.96C432.535 361.552 433.111 361.222 433.819 360.97C434.179 360.838 434.581 360.7 435.025 360.556C435.481 360.4 435.919 360.238 436.339 360.07C436.771 359.902 437.119 359.734 437.383 359.566L438.067 361.114ZM434.809 365.488C433.273 365.488 432.505 366.292 432.505 367.9C432.505 369.52 433.225 370.33 434.665 370.33C436.105 370.33 436.825 369.52 436.825 367.9C436.825 366.292 436.153 365.488 434.809 365.488ZM444.241 363.256C445.105 363.256 445.843 363.43 446.455 363.778C447.079 364.114 447.559 364.606 447.895 365.254C448.231 365.89 448.399 366.658 448.399 367.558C448.399 368.89 448.027 369.934 447.283 370.69C446.539 371.434 445.525 371.806 444.241 371.806C443.401 371.806 442.669 371.638 442.045 371.302C441.433 370.966 440.959 370.48 440.623 369.844C440.299 369.196 440.137 368.434 440.137 367.558C440.137 366.658 440.299 365.89 440.623 365.254C440.959 364.606 441.433 364.114 442.045 363.778C442.669 363.43 443.401 363.256 444.241 363.256ZM444.241 364.732C443.485 364.732 442.909 364.978 442.513 365.47C442.129 365.95 441.937 366.646 441.937 367.558C441.937 368.458 442.129 369.148 442.513 369.628C442.909 370.108 443.485 370.348 444.241 370.348C445.033 370.348 445.621 370.108 446.005 369.628C446.401 369.148 446.599 368.458 446.599 367.558C446.599 366.646 446.401 365.95 446.005 365.47C445.621 364.978 445.033 364.732 444.241 364.732ZM449.373 363.58H457.599V366.586H456.249V365.002H454.395V370.06H455.943V371.5H451.029V370.06H452.595V365.002H450.741V366.586H449.373V363.58ZM458.753 371.5V370.06H460.229V365.002H458.753V363.58H463.595V365.002H461.975V366.64H463.487C464.063 366.64 464.591 366.712 465.071 366.856C465.563 367 465.953 367.246 466.241 367.594C466.541 367.93 466.691 368.398 466.691 368.998C466.691 369.718 466.475 370.318 466.043 370.798C465.623 371.266 464.999 371.5 464.171 371.5H458.753ZM461.975 370.042H463.631C464.027 370.042 464.345 369.952 464.585 369.772C464.837 369.592 464.963 369.322 464.963 368.962C464.963 368.626 464.849 368.374 464.621 368.206C464.405 368.026 464.099 367.936 463.703 367.936H461.975V370.042ZM467.699 371.5V370.06H468.149V365.002H467.033V363.58H471.479V365.002H469.949V370.06H471.479V371.5H467.699Z" fill="#FEFEFE"/>
</svg>
