<svg width="298" height="354" viewBox="0 0 298 354" fill="none" xmlns="http://www.w3.org/2000/svg">
<rect x="15.963" y="111" width="96" height="96" rx="48" fill="#D83432"/>
<path d="M63.5317 188.987C56.5402 188.881 49.5651 188.621 42.7376 186.878C39.3917 186.027 38.8224 185.306 38.9887 181.843C39.1856 177.86 39.5159 173.916 40.7765 170.086C42.0487 166.217 44.1363 163.305 48.3467 162.265C50.3857 161.719 52.3322 160.874 54.1222 159.755C54.8743 159.303 55.7623 159.826 55.7998 160.735C55.8491 161.593 55.8397 162.454 55.7717 163.312C55.4554 166.297 56.0927 169.069 57.222 171.836C59.0448 176.309 60.6521 180.87 62.3508 185.395C62.5711 185.978 62.7327 186.639 63.5434 186.632C64.3541 186.625 64.504 185.966 64.7149 185.378C66.8096 179.797 68.9065 174.216 71.0059 168.635C71.2531 167.979 71.3678 167.279 71.3433 166.578C71.2894 164.704 71.266 162.829 71.2589 160.955C71.2589 159.722 72.086 159.263 73.1333 159.882C75.242 161.107 77.5077 161.937 79.8039 162.693C82.1937 163.474 83.9393 164.898 85.0522 167.192C86.8235 170.838 87.6295 174.708 87.8638 178.705C87.9716 180.528 88.2761 182.351 87.9364 184.193C87.7326 185.303 87.2171 185.992 86.1042 186.355C81.4182 187.878 76.5775 188.37 71.7088 188.715C68.9979 188.905 66.2683 189.045 63.5317 188.987Z" fill="#FEFEFE"/>
<path d="M75.5068 139.453C75.4763 139.739 75.4412 140.322 75.3451 140.899C75.1225 142.234 74.7031 143.46 75.3311 144.919C75.877 146.189 75.3311 147.703 74.7266 148.987C74.4007 149.69 74.1274 150.417 73.9089 151.161C72.9904 154.223 71.4065 156.866 68.8995 158.893C65.5443 161.609 61.8143 161.674 58.3888 159.05C55.6212 156.961 53.6949 153.948 52.9601 150.559C52.6555 149.24 51.7886 148.106 51.6831 146.705C51.6105 145.7 51.3528 144.699 52.0486 143.781C52.3743 143.347 52.065 142.867 51.9596 142.438C51.0224 138.703 51.887 135.409 54.3893 132.527C56.7065 129.859 59.6681 128.687 63.1592 129.071C66.1184 129.406 68.9568 130.435 71.444 132.073C73.9791 133.72 75.5068 136.016 75.5068 139.453Z" fill="#FEFEFE"/>
<path d="M63.5247 184.779C63.1404 184.577 63.1873 184.179 63.1357 183.869C62.3696 179.261 61.6526 174.645 60.8466 170.046C60.699 169.212 61.2262 168.93 61.6386 168.518C63.1802 166.988 63.1896 166.997 62.0158 165.196C61.5729 164.516 61.1325 163.837 60.5092 162.874C62.5968 163.495 64.4244 163.46 66.5237 162.911C65.7271 164.151 65.1039 165.193 64.415 166.191C64.0144 166.758 63.8761 167.208 64.5392 167.639C66.1605 168.689 66.348 170.062 65.9614 171.92C65.139 175.88 64.6165 179.903 63.9534 183.895C63.8925 184.195 63.9417 184.598 63.5247 184.779Z" fill="#FEFEFE"/>
<path d="M0.877146 244.398H5.19715V245.64H4.04515L4.02715 248.952H9.21115L9.22915 245.64H8.07715V244.398H12.3791V245.64H10.6691L10.6151 253.758H12.3431V255H8.05915V253.758H9.21115V250.194H4.02715L4.00915 253.758H5.16115V255H0.859146V253.758H2.58715L2.60515 245.64H0.877146V244.398ZM13.7088 255V253.758H15.4008V245.64H13.7088V244.398H18.4788C19.4508 244.398 20.2188 244.518 20.7828 244.758C21.3588 244.998 21.7668 245.358 22.0068 245.838C22.2588 246.306 22.3848 246.894 22.3848 247.602C22.3848 248.658 22.0968 249.468 21.5208 250.032C20.9448 250.584 19.9308 250.86 18.4788 250.86H16.8408V253.758H17.9748V255H13.7088ZM16.8588 249.582H18.4788C18.9948 249.582 19.4268 249.534 19.7748 249.438C20.1228 249.342 20.3868 249.156 20.5668 248.88C20.7588 248.592 20.8548 248.172 20.8548 247.62C20.8548 247.068 20.7588 246.654 20.5668 246.378C20.3868 246.09 20.1228 245.898 19.7748 245.802C19.4268 245.694 18.9948 245.64 18.4788 245.64H16.8588V249.582ZM20.9268 255L18.6048 250.77L20.1348 250.59L21.9708 253.758H23.6088V255H20.9268ZM35.043 248.358C34.767 248.262 34.503 248.196 34.251 248.16C34.011 248.124 33.735 248.106 33.423 248.106C32.619 248.106 31.977 248.358 31.497 248.862C31.017 249.366 30.777 250.122 30.777 251.13C30.777 252.114 31.035 252.852 31.551 253.344C32.079 253.836 32.709 254.082 33.441 254.082C33.813 254.082 34.191 254.022 34.575 253.902C34.959 253.782 35.337 253.596 35.709 253.344L36.303 254.226C36.003 254.442 35.715 254.628 35.439 254.784C35.163 254.94 34.857 255.06 34.521 255.144C34.185 255.228 33.765 255.27 33.261 255.27C32.493 255.27 31.809 255.108 31.209 254.784C30.621 254.448 30.159 253.968 29.823 253.344C29.499 252.72 29.337 251.982 29.337 251.13C29.337 250.23 29.517 249.474 29.877 248.862C30.249 248.238 30.747 247.77 31.371 247.458C31.995 247.134 32.685 246.972 33.441 246.972C33.921 246.972 34.365 247.026 34.773 247.134C35.181 247.23 35.649 247.356 36.177 247.512L36.429 249.456L35.277 249.708L35.043 248.358ZM37.8105 247.278H47.5305V248.394H46.0005V253.884H47.5305V255H43.6065V253.884H44.5965V248.394H40.7445V253.884H41.7345V255H37.8105V253.884H39.3405V248.394H37.8105V247.278ZM55.9633 254.082C55.4833 254.49 54.9913 254.79 54.4873 254.982C53.9953 255.174 53.4313 255.27 52.7953 255.27C51.9553 255.27 51.2233 255.108 50.5993 254.784C49.9753 254.448 49.4893 253.974 49.1413 253.362C48.8053 252.738 48.6373 251.994 48.6373 251.13C48.6373 250.302 48.7993 249.582 49.1233 248.97C49.4473 248.346 49.9033 247.866 50.4913 247.53C51.0913 247.182 51.7813 247.008 52.5613 247.008C53.2933 247.008 53.9173 247.164 54.4333 247.476C54.9493 247.788 55.3453 248.226 55.6213 248.79C55.9093 249.342 56.0533 250.002 56.0533 250.77C56.0533 250.878 56.0473 250.992 56.0353 251.112C56.0353 251.22 56.0293 251.334 56.0173 251.454L50.0233 251.49C50.0593 252.102 50.2033 252.6 50.4553 252.984C50.7193 253.368 51.0493 253.65 51.4453 253.83C51.8533 254.01 52.2853 254.1 52.7413 254.1C53.2693 254.1 53.7433 254.028 54.1633 253.884C54.5833 253.74 54.9673 253.524 55.3153 253.236L55.9633 254.082ZM54.6673 250.356C54.6553 249.684 54.4573 249.144 54.0733 248.736C53.7013 248.316 53.2033 248.106 52.5793 248.106C51.9433 248.106 51.3853 248.316 50.9053 248.736C50.4253 249.144 50.1373 249.69 50.0413 250.374L54.6673 250.356ZM65.8576 257.574V255H57.1996V253.884H58.9096V248.394H57.1816V247.278H61.1056V248.394H60.2776V253.884H64.1656V248.394H63.3376V247.278H67.2616V248.394H65.5336V253.884H67.2436V257.574H65.8576ZM68.7656 247.278H72.6176V248.394H71.6276V253.2L75.6596 247.278H78.5036V248.394H76.9736V253.884H78.5036V255H74.6696V253.884H75.6596V249.078L71.6276 255H68.7656V253.884H70.2956V248.394H68.7656V247.278ZM85.313 254.478C84.533 255.006 83.687 255.27 82.775 255.27C81.767 255.27 80.999 255.066 80.471 254.658C79.955 254.25 79.691 253.656 79.679 252.876C79.655 251.304 80.651 250.518 82.667 250.518L84.989 250.536C84.989 249.732 84.839 249.138 84.539 248.754C84.239 248.358 83.783 248.16 83.171 248.16C82.883 248.16 82.601 248.178 82.325 248.214C82.049 248.25 81.791 248.304 81.551 248.376L81.371 249.366L80.219 249.15L80.507 247.512C80.963 247.344 81.407 247.218 81.839 247.134C82.283 247.05 82.709 247.008 83.117 247.008C84.197 247.008 85.013 247.302 85.565 247.89C86.117 248.466 86.393 249.324 86.393 250.464V253.596L88.103 254.154L87.743 255.306L85.313 254.478ZM82.721 251.652C82.205 251.652 81.809 251.754 81.533 251.958C81.257 252.162 81.119 252.462 81.119 252.858C81.119 253.698 81.695 254.118 82.847 254.118C83.675 254.118 84.389 253.89 84.989 253.434V251.67L82.721 251.652ZM94.3921 255V253.884H95.1841V248.394H89.9821V247.278H98.2621V248.394H96.5881V253.884H98.3161V255H94.3921ZM89.1001 255.108V253.956C89.7121 254.028 90.1801 253.914 90.5041 253.614C90.8401 253.314 91.0741 252.882 91.2061 252.318C91.3501 251.754 91.4401 251.136 91.4761 250.464L91.6021 248.106H92.9161L92.7181 250.878C92.6581 251.718 92.4901 252.48 92.2141 253.164C91.9501 253.836 91.5601 254.352 91.0441 254.712C90.5401 255.072 89.8921 255.204 89.1001 255.108ZM99.8085 247.278H103.661V248.394H102.671V253.2L106.703 247.278H109.547V248.394H108.017V253.884H109.547V255H105.713V253.884H106.703V249.078L102.671 255H99.8085V253.884H101.339V248.394H99.8085V247.278ZM116.377 248.358C116.101 248.262 115.837 248.196 115.585 248.16C115.345 248.124 115.069 248.106 114.757 248.106C113.953 248.106 113.311 248.358 112.831 248.862C112.351 249.366 112.111 250.122 112.111 251.13C112.111 252.114 112.369 252.852 112.885 253.344C113.413 253.836 114.043 254.082 114.775 254.082C115.147 254.082 115.525 254.022 115.909 253.902C116.293 253.782 116.671 253.596 117.043 253.344L117.637 254.226C117.337 254.442 117.049 254.628 116.773 254.784C116.497 254.94 116.191 255.06 115.855 255.144C115.519 255.228 115.099 255.27 114.595 255.27C113.827 255.27 113.143 255.108 112.543 254.784C111.955 254.448 111.493 253.968 111.157 253.344C110.833 252.72 110.671 251.982 110.671 251.13C110.671 250.23 110.851 249.474 111.211 248.862C111.583 248.238 112.081 247.77 112.705 247.458C113.329 247.134 114.019 246.972 114.775 246.972C115.255 246.972 115.699 247.026 116.107 247.134C116.515 247.23 116.983 247.356 117.511 247.512L117.763 249.456L116.611 249.708L116.377 248.358ZM118.694 247.278H126.632V249.996H125.516V248.394H123.374V253.884H124.976V255H120.368V253.884H121.97V248.394H119.81V249.996H118.694V247.278Z" fill="#FEFEFE"/>
<rect x="180.852" y="13" width="96" height="96" rx="48" fill="#D83432"/>
<path d="M203.032 49.5651C203.032 49.9465 203.032 49.8921 203.374 49.8921H208.753V75.315H212.645V46H203.032V49.5651Z" fill="#FEFEFE"/>
<path d="M202.806 55.6134C203.071 55.6134 203.071 55.6134 203.071 55.878V75.3383H206.799V51.8848H198.852V55.629H202.744L202.806 55.6134Z" fill="#FEFEFE"/>
<path d="M221.418 72.7073C223.697 74.2411 226.35 75.1263 229.093 75.2683L230.004 75.3228H258.852V71.5086H232.386C231.012 71.5438 229.637 71.4657 228.276 71.275C227.218 71.1388 226.187 70.8449 225.217 70.4032C223.558 69.6505 222.121 68.4828 221.045 67.0129C219.97 65.5431 219.291 63.8206 219.075 62.0119C218.802 60.2486 219.02 58.4441 219.706 56.7966C220.421 54.8752 221.679 53.2026 223.325 51.9813C224.972 50.76 226.938 50.0424 228.984 49.9154C230.613 49.7585 232.254 50.0267 233.748 50.6938C235.585 51.4087 237.187 52.6212 238.374 54.1955C239.56 55.7698 240.285 57.6436 240.466 59.6066C240.512 59.9102 240.512 60.2138 240.536 60.5252H244.428C244.431 60.4733 244.431 60.4213 244.428 60.3695C244.411 58.9623 244.18 57.5659 243.743 56.2283C242.899 53.6042 241.334 51.2703 239.226 49.4933C237.119 47.7163 234.554 46.5678 231.825 46.179C230.427 45.9728 229.005 45.9728 227.606 46.179C226.217 46.3884 224.865 46.7946 223.59 47.3856C221.271 48.4715 219.277 50.1448 217.805 52.2394C216.333 54.334 215.435 56.7772 215.198 59.3264C215.04 61.0005 215.177 62.6894 215.603 64.316C216.464 67.7237 218.53 70.7044 221.418 72.7073Z" fill="#FEFEFE"/>
<path d="M258.852 65.3825H247.176C241.727 65.3825 236.278 65.3825 230.829 65.3825C230.112 65.3787 229.397 65.3005 228.696 65.1489C228.108 65.0227 227.551 64.7811 227.057 64.4382C226.563 64.0952 226.143 63.6577 225.819 63.1509C225.495 62.6441 225.275 62.0781 225.172 61.4858C225.069 60.8935 225.084 60.2865 225.217 59.7C225.469 58.5321 226.159 57.5051 227.145 56.8304C228.131 56.1557 229.338 55.8845 230.518 56.0726C231.418 56.2314 232.252 56.6508 232.916 57.279C233.58 57.9072 234.045 58.7165 234.254 59.6066C234.324 59.8947 234.355 60.1904 234.41 60.494H238.099C238.103 60.4214 238.103 60.3487 238.099 60.2761C238.075 59.614 237.968 58.9577 237.78 58.3223C237.18 56.2414 235.795 54.4752 233.917 53.3962C232.039 52.3172 229.815 52.0097 227.715 52.5387C225.596 53.0533 223.763 54.3787 222.61 56.2301C221.458 58.0814 221.077 60.3111 221.55 62.4401C221.816 63.7065 222.378 64.8921 223.19 65.9C224.002 66.9079 225.04 67.7094 226.221 68.2392C227.395 68.7337 228.652 68.9979 229.926 69.0176C230.704 69.0799 231.483 69.0721 232.261 69.0721H258.852V65.3825Z" fill="#FEFEFE"/>
<path d="M252.087 51.371C251.405 51.367 250.752 51.0942 250.27 50.6119C249.788 50.1296 249.515 49.4766 249.511 48.7945C249.523 48.1166 249.802 47.4708 250.287 46.9972C250.773 46.5237 251.425 46.2604 252.103 46.2647C252.439 46.2616 252.772 46.3252 253.083 46.4518C253.394 46.5784 253.677 46.7656 253.915 47.0023C254.153 47.2391 254.342 47.5208 254.471 47.8311C254.599 48.1415 254.665 48.4742 254.664 48.8101C254.664 49.1477 254.597 49.482 254.468 49.7937C254.338 50.1054 254.148 50.3885 253.908 50.6265C253.669 50.8645 253.385 51.0528 253.072 51.1806C252.76 51.3084 252.425 51.3731 252.087 51.371ZM249.923 48.8101C249.921 49.0948 249.976 49.3771 250.084 49.6406C250.192 49.9041 250.351 50.1435 250.553 50.3448C250.754 50.5462 250.993 50.7055 251.257 50.8135C251.52 50.9216 251.803 50.9761 252.087 50.9741C252.373 50.9761 252.656 50.9213 252.92 50.8128C253.184 50.7043 253.424 50.5443 253.625 50.3421C253.826 50.1399 253.986 49.8996 254.093 49.6352C254.201 49.3709 254.255 49.0877 254.251 48.8023C254.247 48.2338 254.018 47.6902 253.614 47.2904C253.21 46.8907 252.664 46.6674 252.095 46.6694C251.812 46.6643 251.53 46.7156 251.267 46.8205C251.004 46.9253 250.764 47.0816 250.562 47.2802C250.36 47.4788 250.199 47.7156 250.089 47.977C249.98 48.2383 249.923 48.5189 249.923 48.8023V48.8101Z" fill="#FEFEFE"/>
<path d="M252.78 48.8568C253.247 49.1136 252.967 49.6352 253.138 50.0322H253.092C252.617 50.0322 252.601 50.0322 252.601 49.5807C252.601 49.1292 252.477 48.9891 252.01 48.9813H251.659V50.0244H251.2V47.5257H251.325C251.729 47.5257 252.103 47.5257 252.539 47.5257C252.641 47.5323 252.741 47.5629 252.829 47.615C252.917 47.6671 252.992 47.7392 253.048 47.8256C253.103 47.912 253.137 48.0102 253.147 48.1122C253.158 48.2143 253.144 48.3173 253.107 48.4131C253.025 48.5792 252.915 48.7295 252.78 48.8568ZM251.659 48.6699C251.924 48.6699 252.173 48.67 252.438 48.6155C252.702 48.561 252.71 48.4364 252.71 48.2418C252.717 48.1555 252.69 48.0699 252.634 48.0031C252.579 47.9364 252.5 47.8936 252.414 47.8838C252.172 47.8531 251.927 47.8349 251.683 47.8293L251.659 48.6699Z" fill="#FEFEFE"/>
<path d="M164.252 146.398H165.152L165.116 155.758H167.924V157H160.724V155.758H163.712L163.73 148.504L161.156 150.628L160.364 149.656L164.252 146.398ZM175.703 147.784C175.583 147.712 175.421 147.646 175.217 147.586C175.025 147.514 174.791 147.46 174.515 147.424C174.251 147.376 173.945 147.352 173.597 147.352C172.433 147.352 171.545 147.742 170.933 148.522C170.321 149.29 170.015 150.346 170.015 151.69C170.015 153.058 170.327 154.126 170.951 154.894C171.587 155.662 172.469 156.046 173.597 156.046C173.897 156.046 174.179 156.028 174.443 155.992C174.707 155.944 174.947 155.89 175.163 155.83C175.379 155.77 175.559 155.716 175.703 155.668L176.045 154.228L177.269 154.516L176.819 156.604C176.819 156.604 176.687 156.664 176.423 156.784C176.159 156.892 175.781 157 175.289 157.108C174.809 157.216 174.245 157.27 173.597 157.27C172.565 157.27 171.665 157.042 170.897 156.586C170.141 156.13 169.553 155.488 169.133 154.66C168.713 153.82 168.497 152.83 168.485 151.69C168.485 150.562 168.689 149.584 169.097 148.756C169.517 147.916 170.111 147.268 170.879 146.812C171.647 146.344 172.547 146.116 173.579 146.128C174.371 146.128 175.007 146.2 175.487 146.344C175.979 146.476 176.333 146.614 176.549 146.758C176.777 146.89 176.891 146.962 176.891 146.974L177.287 149.062L176.063 149.332L175.703 147.784ZM179.919 149.008C180.219 149.008 180.477 149.122 180.693 149.35C180.921 149.566 181.035 149.824 181.035 150.124C181.035 150.424 180.921 150.688 180.693 150.916C180.477 151.132 180.219 151.24 179.919 151.24C179.619 151.24 179.355 151.132 179.127 150.916C178.911 150.688 178.803 150.424 178.803 150.124C178.803 149.824 178.911 149.566 179.127 149.35C179.355 149.122 179.619 149.008 179.919 149.008ZM179.919 155.038C180.219 155.038 180.477 155.152 180.693 155.38C180.921 155.596 181.035 155.854 181.035 156.154C181.035 156.454 180.921 156.718 180.693 156.946C180.477 157.162 180.219 157.27 179.919 157.27C179.619 157.27 179.355 157.162 179.127 156.946C178.911 156.718 178.803 156.454 178.803 156.154C178.803 155.854 178.911 155.596 179.127 155.38C179.355 155.152 179.619 155.038 179.919 155.038ZM186.993 146.398H197.973V147.64H196.263L196.227 155.758H197.937V157H193.311V155.758H194.823L194.841 147.64H190.125L190.089 155.758H191.601V157H186.975V155.758H188.685L188.703 147.64H186.993V146.398ZM199.171 160.744V159.628H200.683V150.664L198.991 150.106L199.351 148.954L201.763 149.782C202.147 149.542 202.549 149.356 202.969 149.224C203.389 149.08 203.785 149.008 204.157 149.008C205.345 149.008 206.281 149.356 206.965 150.052C207.661 150.736 208.009 151.684 208.009 152.896C208.009 153.748 207.841 154.504 207.505 155.164C207.181 155.824 206.725 156.34 206.137 156.712C205.549 157.084 204.865 157.27 204.085 157.27C203.401 157.27 202.735 157.168 202.087 156.964V159.628H203.599V160.744H199.171ZM204.067 156.118C204.847 156.118 205.459 155.836 205.903 155.272C206.347 154.696 206.569 153.904 206.569 152.896C206.569 151.984 206.365 151.3 205.957 150.844C205.561 150.388 204.955 150.16 204.139 150.16C203.767 150.16 203.383 150.226 202.987 150.358C202.603 150.478 202.303 150.634 202.087 150.826V155.668C202.291 155.8 202.579 155.908 202.951 155.992C203.323 156.076 203.695 156.118 204.067 156.118ZM216.749 156.082C216.269 156.49 215.777 156.79 215.273 156.982C214.781 157.174 214.217 157.27 213.581 157.27C212.741 157.27 212.009 157.108 211.385 156.784C210.761 156.448 210.275 155.974 209.927 155.362C209.591 154.738 209.423 153.994 209.423 153.13C209.423 152.302 209.585 151.582 209.909 150.97C210.233 150.346 210.689 149.866 211.277 149.53C211.877 149.182 212.567 149.008 213.347 149.008C214.079 149.008 214.703 149.164 215.219 149.476C215.735 149.788 216.131 150.226 216.407 150.79C216.695 151.342 216.839 152.002 216.839 152.77C216.839 152.878 216.833 152.992 216.821 153.112C216.821 153.22 216.815 153.334 216.803 153.454L210.809 153.49C210.845 154.102 210.989 154.6 211.241 154.984C211.505 155.368 211.835 155.65 212.231 155.83C212.639 156.01 213.071 156.1 213.527 156.1C214.055 156.1 214.529 156.028 214.949 155.884C215.369 155.74 215.753 155.524 216.101 155.236L216.749 156.082ZM215.453 152.356C215.441 151.684 215.243 151.144 214.859 150.736C214.487 150.316 213.989 150.106 213.365 150.106C212.729 150.106 212.171 150.316 211.691 150.736C211.211 151.144 210.923 151.69 210.827 152.374L215.453 152.356ZM217.594 159.556V155.884H218.638C218.89 155.764 219.094 155.554 219.25 155.254C219.418 154.942 219.544 154.588 219.628 154.192C219.724 153.784 219.796 153.382 219.844 152.986C219.892 152.578 219.928 152.224 219.952 151.924L220.096 150.394H218.638V149.278H227.026V150.394H225.352V155.884H227.026V159.556H225.658V157H218.962V159.556H217.594ZM220.204 155.884H223.984V150.394H221.284L221.122 152.122C221.038 153.106 220.93 153.904 220.798 154.516C220.678 155.116 220.48 155.572 220.204 155.884ZM228.531 149.278H238.251V150.394H236.721V155.884H238.251V157H234.327V155.884H235.317V150.394H231.465V155.884H232.455V157H228.531V155.884H230.061V150.394H228.531V149.278ZM239.548 160.744V159.628H241.06V150.664L239.368 150.106L239.728 148.954L242.14 149.782C242.524 149.542 242.926 149.356 243.346 149.224C243.766 149.08 244.162 149.008 244.534 149.008C245.722 149.008 246.658 149.356 247.342 150.052C248.038 150.736 248.386 151.684 248.386 152.896C248.386 153.748 248.218 154.504 247.882 155.164C247.558 155.824 247.102 156.34 246.514 156.712C245.926 157.084 245.242 157.27 244.462 157.27C243.778 157.27 243.112 157.168 242.464 156.964V159.628H243.976V160.744H239.548ZM244.444 156.118C245.224 156.118 245.836 155.836 246.28 155.272C246.724 154.696 246.946 153.904 246.946 152.896C246.946 151.984 246.742 151.3 246.334 150.844C245.938 150.388 245.332 150.16 244.516 150.16C244.144 150.16 243.76 150.226 243.364 150.358C242.98 150.478 242.68 150.634 242.464 150.826V155.668C242.668 155.8 242.956 155.908 243.328 155.992C243.7 156.076 244.072 156.118 244.444 156.118ZM249.502 149.278H253.354V150.394H252.364V155.2L256.396 149.278H259.24V150.394H257.71V155.884H259.24V157H255.406V155.884H256.396V151.078L252.364 157H249.502V155.884H251.032V150.394H249.502V149.278ZM265.054 157.018V155.902H266.458V154.12L264.712 154.102C264.172 154.09 263.662 154 263.182 153.832C262.702 153.664 262.312 153.406 262.012 153.058C261.712 152.698 261.562 152.242 261.562 151.69C261.562 150.982 261.844 150.406 262.408 149.962C262.972 149.506 263.836 149.278 265 149.278H269.518V150.394H267.826V155.902H269.518V157.018H265.054ZM260.536 157L260.554 155.884H262.012L263.47 153.832L264.946 153.886L262.876 157H260.536ZM264.946 153.04H266.458V150.412H265C264.676 150.412 264.364 150.448 264.064 150.52C263.764 150.58 263.512 150.706 263.308 150.898C263.116 151.09 263.02 151.39 263.02 151.798C263.02 152.218 263.2 152.53 263.56 152.734C263.932 152.938 264.394 153.04 264.946 153.04ZM270.585 149.278H278.523V151.996H277.407V150.394H275.265V155.884H276.867V157H272.259V155.884H273.861V150.394H271.701V151.996H270.585V149.278ZM279.578 149.278H283.43V150.394H282.44V155.2L286.472 149.278H289.316V150.394H287.786V155.884H289.316V157H285.482V155.884H286.472V151.078L282.44 157H279.578V155.884H281.108V150.394H279.578V149.278ZM297.749 156.082C297.269 156.49 296.777 156.79 296.273 156.982C295.781 157.174 295.217 157.27 294.581 157.27C293.741 157.27 293.009 157.108 292.385 156.784C291.761 156.448 291.275 155.974 290.927 155.362C290.591 154.738 290.423 153.994 290.423 153.13C290.423 152.302 290.585 151.582 290.909 150.97C291.233 150.346 291.689 149.866 292.277 149.53C292.877 149.182 293.567 149.008 294.347 149.008C295.079 149.008 295.703 149.164 296.219 149.476C296.735 149.788 297.131 150.226 297.407 150.79C297.695 151.342 297.839 152.002 297.839 152.77C297.839 152.878 297.833 152.992 297.821 153.112C297.821 153.22 297.815 153.334 297.803 153.454L291.809 153.49C291.845 154.102 291.989 154.6 292.241 154.984C292.505 155.368 292.835 155.65 293.231 155.83C293.639 156.01 294.071 156.1 294.527 156.1C295.055 156.1 295.529 156.028 295.949 155.884C296.369 155.74 296.753 155.524 297.101 155.236L297.749 156.082ZM296.453 152.356C296.441 151.684 296.243 151.144 295.859 150.736C295.487 150.316 294.989 150.106 294.365 150.106C293.729 150.106 293.171 150.316 292.691 150.736C292.211 151.144 291.923 151.69 291.827 152.374L296.453 152.356Z" fill="#FEFEFE"/>
<rect x="180.926" y="206" width="96" height="96" rx="48" fill="#D83432"/>
<path d="M226.623 256.408C225.892 256.803 225.273 257.376 224.823 258.075C224.374 258.774 224.109 259.576 224.054 260.405C224.054 262.089 224.054 262.26 224.882 261.975C225.799 261.588 226.589 260.953 227.164 260.141C227.739 259.329 228.076 258.372 228.136 257.379C228.136 255.98 227.708 255.695 226.623 256.408Z" fill="#FEFEFE"/>
<path d="M231.133 256.151C230.163 255.581 229.649 255.98 229.678 257.036C229.676 257.956 229.928 258.859 230.406 259.645C230.885 260.43 231.571 261.069 232.389 261.489C232.732 261.689 233.103 262.146 233.503 261.86C233.902 261.575 233.674 261.09 233.759 260.576C233.749 259.673 233.501 258.788 233.04 258.011C232.579 257.235 231.921 256.593 231.133 256.151Z" fill="#FEFEFE"/>
<path d="M231.048 253.954C231.374 254.519 231.868 254.968 232.462 255.239C233.055 255.51 233.718 255.59 234.359 255.466C234.625 255.481 234.892 255.481 235.158 255.466C236.328 255.466 237.699 254.896 238.013 253.925C238.326 252.955 236.557 252.869 235.643 252.555C235.29 252.454 234.926 252.397 234.559 252.384C233.017 252.327 230.762 253.383 231.048 253.954Z" fill="#FEFEFE"/>
<path d="M228.993 255.181C229.144 255.167 229.292 255.122 229.426 255.049C229.56 254.976 229.677 254.876 229.771 254.756C229.865 254.635 229.933 254.497 229.971 254.349C230.009 254.201 230.016 254.047 229.992 253.897C229.996 253.752 229.97 253.608 229.915 253.473C229.86 253.339 229.777 253.219 229.672 253.119C229.567 253.019 229.442 252.943 229.305 252.895C229.168 252.847 229.023 252.828 228.878 252.84C228.731 252.832 228.584 252.855 228.446 252.908C228.309 252.961 228.184 253.043 228.082 253.149C227.979 253.255 227.9 253.381 227.85 253.52C227.8 253.659 227.781 253.807 227.794 253.954C227.794 254.696 228.222 255.095 228.993 255.181Z" fill="#FEFEFE"/>
<path d="M225.168 244.991C226.064 245.656 227.02 246.239 228.022 246.732C228.45 245.904 227.194 244.42 228.764 244.363C230.334 244.306 229.05 246.018 229.706 246.875L232.561 244.848C229.192 242.336 227.965 242.365 225.168 244.991Z" fill="#FEFEFE"/>
<path d="M232.475 263.145L229.621 261.09C229.621 262.231 230.534 263.602 228.964 263.687C227.394 263.773 228.422 262.117 227.993 261.318C227 261.792 226.094 262.429 225.31 263.202C228.993 265.714 229.278 265.714 232.475 263.145Z" fill="#FEFEFE"/>
<path d="M232.932 246.19C231.982 246.572 231.162 247.219 230.57 248.054C229.978 248.889 229.638 249.877 229.592 250.899C229.592 252.212 230.106 252.555 231.219 251.87C231.99 251.395 232.628 250.732 233.072 249.943C233.517 249.154 233.753 248.265 233.759 247.36C233.417 247.074 234.33 245.818 232.932 246.19Z" fill="#FEFEFE"/>
<path d="M238.84 249.615C238.84 248.445 236.186 245.761 235.272 246.247C234.359 246.732 234.901 248.188 234.673 249.101C234.673 249.101 234.673 249.244 234.844 249.329C235.7 249.529 236.357 247.331 237.213 248.93C238.07 250.528 235.843 249.872 235.529 250.842C235.72 250.989 235.92 251.122 236.129 251.242C238.869 252.669 238.869 252.669 238.84 249.615Z" fill="#FEFEFE"/>
<path d="M232.132 273.535L229.62 276.389C230.066 275.578 230.257 274.653 230.171 273.732C230.084 272.811 229.724 271.937 229.135 271.223C228.446 271.902 228.012 272.799 227.908 273.761C227.804 274.724 228.036 275.693 228.564 276.503C223.398 271.556 219.611 265.349 217.575 258.492C217.43 260.892 217.661 263.3 218.26 265.628C220.24 272.225 223.662 278.3 228.279 283.411C228.679 283.896 229.021 284.068 229.506 283.411C231.782 280.716 233.853 277.853 235.7 274.848C235.9 274.505 236.214 274.134 235.986 273.706C235.448 273.266 234.782 273.012 234.088 272.981C233.393 272.95 232.707 273.144 232.132 273.535ZM229.021 279.044C228.918 279.064 228.811 279.063 228.708 279.041C228.605 279.018 228.508 278.975 228.422 278.914C228.336 278.852 228.264 278.774 228.21 278.683C228.156 278.593 228.121 278.492 228.108 278.387C228.08 278.272 228.08 278.151 228.108 278.036C228.136 277.92 228.192 277.813 228.27 277.723C228.349 277.634 228.447 277.564 228.558 277.521C228.669 277.478 228.789 277.461 228.907 277.474C229.099 277.467 229.289 277.525 229.444 277.639C229.6 277.753 229.712 277.916 229.763 278.102C229.763 278.644 229.478 278.93 228.993 278.987L229.021 279.044Z" fill="#FEFEFE"/>
<path d="M217.004 270.338H213.293C214.271 270.159 215.157 269.645 215.797 268.885C216.438 268.124 216.794 267.165 216.804 266.17C215.832 266.196 214.895 266.543 214.141 267.157C213.386 267.772 212.858 268.62 212.637 269.567C212.658 262.328 214.556 255.217 218.146 248.93C215.415 251.065 213.224 253.813 211.752 256.951C209.553 262.42 208.215 268.198 207.784 274.077C207.784 274.934 208.013 275.333 208.897 275.305C212.407 275.064 215.886 274.49 219.288 273.592C219.602 273.592 219.973 273.421 219.887 272.878C219.775 272.187 219.426 271.555 218.901 271.092C218.375 270.628 217.704 270.362 217.004 270.338ZM211.695 271.908C211.587 271.908 211.481 271.886 211.382 271.844C211.283 271.803 211.194 271.741 211.119 271.664C211.045 271.587 210.986 271.495 210.948 271.395C210.91 271.294 210.892 271.187 210.896 271.08C210.894 270.961 210.919 270.843 210.967 270.735C211.016 270.626 211.087 270.529 211.177 270.45C211.266 270.372 211.372 270.313 211.486 270.279C211.6 270.245 211.72 270.236 211.838 270.252C212.351 270.252 212.637 270.623 212.694 271.137C212.68 271.254 212.643 271.366 212.585 271.469C212.527 271.571 212.449 271.66 212.356 271.732C212.263 271.804 212.156 271.856 212.043 271.886C211.929 271.917 211.811 271.924 211.695 271.908Z" fill="#FEFEFE"/>
<path d="M219.288 252.155C220.115 252.583 221.343 251.584 222.342 250.899C221.856 250.043 219.773 250.5 220.658 248.987C221.543 247.474 222.17 249.643 223.027 249.501C223.284 249.272 223.198 248.987 223.17 248.759C223.17 245.904 223.17 245.904 220.572 247.274C219.83 247.674 218.859 247.931 219.002 249.101C219.145 250.271 218.488 251.756 219.288 252.155Z" fill="#FEFEFE"/>
<path d="M234.701 258.521C234.701 259.434 234.701 260.262 234.873 261.09C234.873 261.347 234.873 261.632 235.215 261.718C236.657 261.251 237.915 260.342 238.812 259.12C238.812 258.178 238.812 257.236 238.812 256.266C238.812 255.295 238.812 255.381 238.098 255.723C237.385 256.066 236.214 256.323 235.501 257.093C236.043 257.836 238.012 257.465 237.185 258.949C236.357 260.433 235.757 258.606 234.701 258.521Z" fill="#FEFEFE"/>
<path d="M223.997 246.903C223.975 247.759 224.146 248.608 224.497 249.389C224.848 250.17 225.37 250.861 226.024 251.413C226.509 251.841 227.166 252.384 227.794 252.013C228.422 251.642 228.222 250.899 228.136 250.271C228.002 249.441 227.674 248.654 227.178 247.974C226.682 247.294 226.032 246.742 225.282 246.361C224.311 245.733 223.883 245.99 223.997 246.903Z" fill="#FEFEFE"/>
<path d="M248.031 248.073C247.854 248.351 247.738 248.663 247.691 248.989C247.645 249.315 247.668 249.647 247.76 249.963C247.852 250.279 248.01 250.572 248.224 250.822C248.438 251.072 248.704 251.274 249.002 251.413C249.656 251.881 250.267 252.407 250.829 252.983C249.031 252.184 247.803 253.354 246.376 253.954C246.95 254.641 247.763 255.088 248.651 255.204C249.539 255.32 250.439 255.098 251.171 254.582C246.42 259.619 240.409 263.295 233.759 265.229C233.943 265.329 234.133 265.415 234.33 265.485C243.95 265.2 251.457 260.405 258.593 254.467C259.192 253.954 258.85 253.697 258.593 253.383C256.005 251.161 253.268 249.12 250.401 247.274C248.973 246.475 248.659 246.646 248.031 248.073ZM253.112 253.297C253.297 253.281 253.481 253.338 253.625 253.455C253.769 253.572 253.861 253.741 253.883 253.925C253.883 254.439 253.569 254.639 253.112 254.753C252.656 254.867 252.342 254.439 252.37 253.925C252.373 253.834 252.396 253.744 252.436 253.661C252.476 253.579 252.532 253.506 252.602 253.447C252.672 253.388 252.754 253.344 252.841 253.318C252.929 253.292 253.022 253.285 253.112 253.297Z" fill="#FEFEFE"/>
<path d="M233.931 242.479C233.685 242.39 233.454 242.265 233.246 242.108C226.366 235.371 217.689 233.545 208.526 232.802C207.784 232.802 207.613 233.088 207.67 233.716C207.849 237.279 208.375 240.816 209.24 244.277C209.24 244.563 209.411 244.934 209.64 245.076C209.868 245.219 212.979 243.678 212.951 242.964C212.951 241.737 212.779 240.509 212.694 239.253C213.436 241.137 215.006 241.537 216.776 241.908C216.852 241.008 216.607 240.11 216.084 239.374C215.562 238.637 214.796 238.109 213.921 237.883C220.817 237.772 227.617 239.506 233.617 242.907L233.931 242.479ZM212.323 237.369C212.256 237.439 212.176 237.493 212.088 237.531C212 237.568 211.905 237.588 211.809 237.588C211.713 237.588 211.618 237.568 211.53 237.531C211.442 237.493 211.362 237.439 211.295 237.369C211.161 237.227 211.086 237.038 211.086 236.841C211.086 236.645 211.161 236.456 211.295 236.313C211.362 236.244 211.442 236.189 211.53 236.152C211.618 236.114 211.713 236.095 211.809 236.095C211.905 236.095 212 236.114 212.088 236.152C212.176 236.189 212.256 236.244 212.323 236.313C212.457 236.456 212.532 236.645 212.532 236.841C212.532 237.038 212.457 237.227 212.323 237.369Z" fill="#FEFEFE"/>
<path d="M219.887 253.554C219.516 253.925 219.573 254.125 219.887 254.382C220.82 255.118 221.982 255.502 223.17 255.466C224.092 255.531 225.012 255.301 225.796 254.81C226.823 254.125 226.68 253.611 225.796 253.012C224.865 252.518 223.81 252.307 222.761 252.403C221.711 252.499 220.713 252.899 219.887 253.554Z" fill="#FEFEFE"/>
<path d="M211.552 253.982C210.933 253.52 210.227 253.188 209.477 253.006C208.726 252.825 207.946 252.797 207.185 252.926C212.007 248.147 217.956 244.662 224.483 242.793C221.354 242.484 218.196 242.824 215.206 243.792C209.376 246.023 203.999 249.292 199.335 253.44C198.707 253.954 198.878 254.182 199.335 254.61C201.825 256.771 204.478 258.737 207.27 260.49C208.983 261.546 208.869 261.461 209.754 259.634C209.919 259.406 210.032 259.144 210.084 258.867C210.136 258.59 210.126 258.305 210.055 258.032C209.984 257.759 209.854 257.505 209.673 257.289C209.493 257.072 209.267 256.898 209.012 256.779C208.127 256.123 207.328 255.324 206.471 254.61C207.25 255.14 208.195 255.368 209.13 255.252C210.065 255.137 210.925 254.685 211.552 253.982ZM204.73 254.639C204.625 254.653 204.519 254.643 204.419 254.609C204.319 254.575 204.228 254.519 204.154 254.444C204.079 254.37 204.023 254.279 203.989 254.179C203.955 254.079 203.945 253.972 203.959 253.868C203.959 253.44 204.33 253.269 204.701 253.211C205.073 253.154 205.415 253.411 205.472 253.839C205.497 253.944 205.495 254.054 205.468 254.158C205.44 254.262 205.388 254.358 205.314 254.437C205.241 254.516 205.149 254.576 205.047 254.611C204.945 254.646 204.836 254.656 204.73 254.639Z" fill="#FEFEFE"/>
<path d="M239.982 238.14C241.295 238.14 242.58 237.94 243.893 237.826C241.695 238.426 241.038 240.053 240.81 242.193C242.637 241.708 244.321 241.28 244.949 239.339C245.041 246.007 243.575 252.605 240.667 258.606L241.095 258.178C247.66 251.328 249.345 242.65 250.258 233.687C250.258 232.945 250.03 232.774 249.345 232.802C245.743 233.014 242.17 233.559 238.669 234.429C238.305 234.474 237.965 234.634 237.699 234.886C237.27 235.428 239.154 238.197 239.982 238.14ZM245.348 236.741C245.348 236.313 245.748 236.199 246.148 236.199C246.31 236.205 246.466 236.268 246.586 236.378C246.707 236.488 246.784 236.637 246.804 236.799C246.804 237.284 246.462 237.541 246.062 237.512C245.959 237.529 245.854 237.521 245.755 237.487C245.657 237.454 245.568 237.396 245.497 237.32C245.426 237.243 245.376 237.15 245.35 237.049C245.324 236.948 245.323 236.843 245.348 236.741Z" fill="#FEFEFE"/>
<path d="M240.41 249.301C240.239 247.446 240.153 245.562 239.839 243.592C238.526 236.028 234.13 230.062 229.421 224.353C229.021 223.868 228.736 223.897 228.336 224.353C225.822 227.102 223.603 230.106 221.714 233.316C221.571 233.573 221.343 233.801 221.571 234.173C222.115 234.711 222.834 235.038 223.597 235.096C224.361 235.153 225.12 234.937 225.739 234.487L227.822 232.117C227.479 232.941 227.401 233.852 227.601 234.722C227.801 235.592 228.267 236.378 228.935 236.97C229.465 236.304 229.827 235.521 229.991 234.687C230.155 233.852 230.116 232.991 229.877 232.174C234.714 236.879 238.203 242.792 239.982 249.301H240.41ZM228.993 230.519C228.536 230.519 228.193 230.205 228.193 229.805C228.185 229.697 228.203 229.587 228.246 229.487C228.288 229.387 228.354 229.298 228.438 229.228C228.522 229.158 228.621 229.11 228.727 229.086C228.834 229.062 228.944 229.064 229.05 229.092C229.141 229.095 229.231 229.117 229.313 229.157C229.396 229.197 229.469 229.254 229.528 229.324C229.587 229.394 229.631 229.475 229.657 229.563C229.682 229.651 229.69 229.743 229.678 229.834C229.621 230.262 229.278 230.433 228.993 230.519Z" fill="#FEFEFE"/>
<path d="M222.37 257.179C221.572 256.573 220.687 256.092 219.744 255.752C219.173 255.438 219.059 255.752 219.002 256.294C218.821 256.84 218.759 257.417 218.82 257.989C218.881 258.56 219.064 259.112 219.356 259.607C219.648 260.102 220.043 260.528 220.513 260.858C220.984 261.188 221.52 261.413 222.085 261.518C222.484 261.689 222.913 261.917 222.97 261.232C223.125 260.287 223.125 259.323 222.97 258.378C222.484 258.778 222.228 259.006 221.942 259.206C221.2 259.748 220.315 259.406 220.401 258.606C220.486 257.807 221.571 257.693 222.37 257.179Z" fill="#FEFEFE"/>
<path d="M248.574 263.944C248.574 263.573 248.431 263.145 248.089 262.974C247.746 262.802 244.92 264.429 244.977 265.2C244.977 266.513 245.177 267.826 245.291 269.139C243.693 266.856 243.464 266.684 241.067 266.285C241.067 268.54 242.437 269.482 244.435 269.995C237.338 270.189 230.319 268.474 224.111 265.029C224.479 265.547 224.911 266.017 225.396 266.427C226.195 267.112 226.966 267.798 227.822 268.426C234.188 273.135 241.666 274.334 249.259 275.19C250.286 275.333 250.201 274.648 250.144 274.02C249.928 270.621 249.403 267.248 248.574 263.944ZM246.89 271.137C246.869 271.329 246.78 271.507 246.638 271.638C246.496 271.77 246.312 271.845 246.119 271.851C245.52 271.851 245.177 271.537 245.206 271.08C245.208 270.961 245.236 270.843 245.288 270.736C245.34 270.628 245.415 270.533 245.507 270.457C245.599 270.381 245.707 270.326 245.822 270.296C245.938 270.265 246.058 270.26 246.176 270.281C246.28 270.288 246.382 270.316 246.474 270.363C246.567 270.411 246.649 270.476 246.716 270.556C246.783 270.636 246.833 270.729 246.862 270.829C246.892 270.929 246.902 271.034 246.89 271.137Z" fill="#FEFEFE"/>
<path d="M173.373 339.398H184.353V340.64H182.643L182.607 348.758H184.317V350H179.691V348.758H181.203L181.221 340.64H176.505L176.469 348.758H177.981V350H173.355V348.758H175.065L175.083 340.64H173.373V339.398ZM189.498 342.008C190.302 342.008 190.998 342.176 191.586 342.512C192.186 342.836 192.654 343.31 192.99 343.934C193.326 344.546 193.494 345.284 193.494 346.148C193.494 347.432 193.128 348.44 192.396 349.172C191.664 349.904 190.698 350.27 189.498 350.27C188.73 350.27 188.046 350.108 187.446 349.784C186.858 349.448 186.396 348.974 186.06 348.362C185.736 347.738 185.574 347 185.574 346.148C185.574 345.284 185.736 344.546 186.06 343.934C186.396 343.31 186.858 342.836 187.446 342.512C188.046 342.176 188.73 342.008 189.498 342.008ZM189.516 343.16C188.688 343.16 188.064 343.424 187.644 343.952C187.224 344.468 187.014 345.2 187.014 346.148C187.014 347.096 187.224 347.828 187.644 348.344C188.064 348.86 188.688 349.118 189.516 349.118C190.368 349.118 191.004 348.86 191.424 348.344C191.844 347.828 192.054 347.096 192.054 346.148C192.054 345.2 191.844 344.468 191.424 343.952C191.004 343.424 190.368 343.16 189.516 343.16ZM194.411 353.744V352.628H195.923V343.664L194.231 343.106L194.591 341.954L197.003 342.782C197.387 342.542 197.789 342.356 198.209 342.224C198.629 342.08 199.025 342.008 199.397 342.008C200.585 342.008 201.521 342.356 202.205 343.052C202.901 343.736 203.249 344.684 203.249 345.896C203.249 346.748 203.081 347.504 202.745 348.164C202.421 348.824 201.965 349.34 201.377 349.712C200.789 350.084 200.105 350.27 199.325 350.27C198.641 350.27 197.975 350.168 197.327 349.964V352.628H198.839V353.744H194.411ZM199.307 349.118C200.087 349.118 200.699 348.836 201.143 348.272C201.587 347.696 201.809 346.904 201.809 345.896C201.809 344.984 201.605 344.3 201.197 343.844C200.801 343.388 200.195 343.16 199.379 343.16C199.007 343.16 198.623 343.226 198.227 343.358C197.843 343.478 197.543 343.634 197.327 343.826V348.668C197.531 348.8 197.819 348.908 198.191 348.992C198.563 349.076 198.935 349.118 199.307 349.118ZM204.214 342.278H212.152V344.996H211.036V343.394H208.894V348.884H210.496V350H205.888V348.884H207.49V343.394H205.33V344.996H204.214V342.278ZM218.733 349.478C217.953 350.006 217.107 350.27 216.195 350.27C215.187 350.27 214.419 350.066 213.891 349.658C213.375 349.25 213.111 348.656 213.099 347.876C213.075 346.304 214.071 345.518 216.087 345.518L218.409 345.536C218.409 344.732 218.259 344.138 217.959 343.754C217.659 343.358 217.203 343.16 216.591 343.16C216.303 343.16 216.021 343.178 215.745 343.214C215.469 343.25 215.211 343.304 214.971 343.376L214.791 344.366L213.639 344.15L213.927 342.512C214.383 342.344 214.827 342.218 215.259 342.134C215.703 342.05 216.129 342.008 216.537 342.008C217.617 342.008 218.433 342.302 218.985 342.89C219.537 343.466 219.813 344.324 219.813 345.464V348.596L221.523 349.154L221.163 350.306L218.733 349.478ZM216.141 346.652C215.625 346.652 215.229 346.754 214.953 346.958C214.677 347.162 214.539 347.462 214.539 347.858C214.539 348.698 215.115 349.118 216.267 349.118C217.095 349.118 217.809 348.89 218.409 348.434V346.67L216.141 346.652ZM227.812 350V348.884H228.604V343.394H223.402V342.278H231.682V343.394H230.008V348.884H231.736V350H227.812ZM222.52 350.108V348.956C223.132 349.028 223.6 348.914 223.924 348.614C224.26 348.314 224.494 347.882 224.626 347.318C224.77 346.754 224.86 346.136 224.896 345.464L225.022 343.106H226.336L226.138 345.878C226.078 346.718 225.91 347.48 225.634 348.164C225.37 348.836 224.98 349.352 224.464 349.712C223.96 350.072 223.312 350.204 222.52 350.108ZM241.904 339.128C242.936 339.116 243.83 339.344 244.586 339.812C245.354 340.268 245.948 340.916 246.368 341.756C246.788 342.584 246.992 343.562 246.98 344.69C246.98 345.806 246.77 346.784 246.35 347.624C245.942 348.452 245.366 349.1 244.622 349.568C243.89 350.036 243.032 350.27 242.048 350.27C241.136 350.27 240.332 350.048 239.636 349.604C238.94 349.148 238.394 348.518 237.998 347.714C237.602 346.898 237.404 345.95 237.404 344.87V344.222H245.432C245.336 342.962 244.994 342.002 244.406 341.342C243.83 340.682 242.99 340.352 241.886 340.352C241.274 340.352 240.758 340.406 240.338 340.514C239.918 340.622 239.606 340.724 239.402 340.82L239.06 342.332L237.818 342.062L238.214 339.974C238.226 339.962 238.346 339.89 238.574 339.758C238.814 339.614 239.198 339.476 239.726 339.344C240.266 339.2 240.992 339.128 241.904 339.128ZM242.048 349.01C242.696 349.01 243.272 348.872 243.776 348.596C244.28 348.32 244.676 347.918 244.964 347.39C245.264 346.85 245.414 346.208 245.414 345.464H238.844C238.844 346.592 239.144 347.468 239.744 348.092C240.344 348.704 241.112 349.01 242.048 349.01ZM248.609 339.398H252.587L255.611 347.12L258.599 339.398H262.433V340.64H260.741V348.758H262.433V350H258.149V348.758H259.301V340.64L258.491 342.98L256.295 348.722H254.747L252.443 342.944L251.615 340.64L251.561 348.758H252.749V350H248.537V348.758H250.265L250.283 340.64H248.609V339.398ZM263.274 350V348.758H265.002L267.99 340.64H266.172V339.398H269.664L272.922 348.758H274.632V350H270.258V348.758H271.392L270.816 347.12H266.928L266.316 348.758H267.468V350H263.274ZM267.378 345.878H270.384L268.962 341.216L267.378 345.878ZM279.732 350.27C278.88 350.27 278.136 350.192 277.5 350.036C276.876 349.88 276.354 349.724 275.934 349.568L275.592 347.372L276.78 347.264L277.032 348.614C277.392 348.734 277.77 348.836 278.166 348.92C278.574 349.004 279.09 349.046 279.714 349.046C280.158 349.046 280.566 348.986 280.938 348.866C281.322 348.734 281.628 348.53 281.856 348.254C282.096 347.966 282.216 347.582 282.216 347.102C282.216 346.622 282.09 346.208 281.838 345.86C281.586 345.512 281.106 345.29 280.398 345.194L279.03 344.996C277.998 344.84 277.206 344.498 276.654 343.97C276.114 343.442 275.844 342.782 275.844 341.99C275.844 341.45 275.976 340.964 276.24 340.532C276.516 340.1 276.936 339.758 277.5 339.506C278.064 339.254 278.778 339.128 279.642 339.128C280.11 339.128 280.524 339.146 280.884 339.182C281.256 339.218 281.61 339.278 281.946 339.362C282.294 339.446 282.666 339.566 283.062 339.722L283.368 341.954L282.18 342.08L281.946 340.64C281.706 340.544 281.394 340.472 281.01 340.424C280.626 340.364 280.176 340.334 279.66 340.334C278.892 340.334 278.28 340.472 277.824 340.748C277.38 341.024 277.158 341.426 277.158 341.954C277.158 342.458 277.32 342.848 277.644 343.124C277.98 343.4 278.442 343.58 279.03 343.664L280.668 343.916C281.688 344.072 282.438 344.414 282.918 344.942C283.41 345.47 283.656 346.124 283.656 346.904C283.656 347.456 283.548 347.948 283.332 348.38C283.128 348.8 282.846 349.148 282.486 349.424C282.126 349.7 281.706 349.91 281.226 350.054C280.758 350.198 280.26 350.27 279.732 350.27Z" fill="#FEFEFE"/>
<path d="M133.149 115.962C132.436 116.384 132.188 117.311 132.595 118.033C133.002 118.754 133.91 118.997 134.623 118.576L133.149 115.962ZM155.979 105.438C156.195 104.63 155.729 103.802 154.937 103.59L142.032 100.133C141.24 99.921 140.423 100.404 140.206 101.213C139.99 102.021 140.456 102.849 141.248 103.061L152.719 106.134L149.582 117.844C149.365 118.652 149.832 119.48 150.624 119.692C151.415 119.904 152.233 119.421 152.45 118.612L155.979 105.438ZM134.623 118.576L155.281 106.361L153.808 103.747L133.149 115.962L134.623 118.576Z" fill="#FEFEFE"/>
<path d="M134.623 199.413C133.91 198.992 133.002 199.235 132.595 199.956C132.188 200.678 132.436 201.605 133.149 202.027L134.623 199.413ZM154.937 214.399C155.729 214.187 156.195 213.36 155.979 212.551L152.45 199.377C152.233 198.568 151.415 198.085 150.624 198.297C149.832 198.509 149.365 199.337 149.582 200.145L152.719 211.856L141.248 214.928C140.456 215.141 139.99 215.968 140.206 216.776C140.423 217.585 141.24 218.068 142.032 217.856L154.937 214.399ZM133.149 202.027L153.808 214.242L155.281 211.629L134.623 199.413L133.149 202.027Z" fill="#FEFEFE"/>
</svg>
