<svg width="466" height="245" viewBox="0 0 466 245" fill="none" xmlns="http://www.w3.org/2000/svg">
<rect x="15.5" y="110" width="96" height="96" rx="48" fill="#D83432"/>
<path d="M63.5687 187.987C56.5772 187.881 49.6021 187.621 42.7746 185.878C39.4288 185.027 38.8594 184.306 39.0258 180.843C39.2226 176.86 39.553 172.916 40.8135 169.086C42.0858 165.217 44.1734 162.305 48.3837 161.265C50.4228 160.719 52.3693 159.874 54.1592 158.755C54.9114 158.303 55.7994 158.826 55.8368 159.735C55.8862 160.593 55.8768 161.454 55.8087 162.312C55.4924 165.297 56.1297 168.069 57.259 170.836C59.0819 175.309 60.6892 179.87 62.3879 184.395C62.6081 184.978 62.7698 185.639 63.5805 185.632C64.3911 185.625 64.5411 184.966 64.752 184.378C66.8466 178.797 68.9436 173.216 71.0429 167.635C71.2902 166.979 71.4048 166.279 71.3803 165.578C71.3264 163.704 71.303 161.829 71.296 159.955C71.296 158.722 72.1231 158.263 73.1704 158.882C75.2791 160.107 77.5448 160.937 79.8409 161.693C82.2308 162.474 83.9763 163.898 85.0892 166.192C86.8605 169.838 87.6665 173.708 87.9008 177.705C88.0086 179.528 88.3132 181.351 87.9735 183.193C87.7696 184.303 87.2542 184.992 86.1412 185.355C81.4552 186.878 76.6146 187.37 71.7458 187.715C69.035 187.905 66.3054 188.045 63.5687 187.987Z" fill="#FEFEFE"/>
<path d="M75.5438 138.453C75.5134 138.739 75.4782 139.322 75.3822 139.899C75.1596 141.234 74.7402 142.46 75.3681 143.919C75.914 145.189 75.3681 146.703 74.7636 147.987C74.4378 148.69 74.1645 149.417 73.9459 150.161C73.0275 153.223 71.4436 155.866 68.9366 157.893C65.5814 160.609 61.8513 160.674 58.4259 158.05C55.6582 155.961 53.7319 152.948 52.9971 149.559C52.6925 148.24 51.8256 147.106 51.7202 145.705C51.6475 144.7 51.3898 143.699 52.0857 142.781C52.4114 142.347 52.1021 141.867 51.9967 141.438C51.0595 137.703 51.924 134.409 54.4264 131.527C56.7436 128.859 59.7051 127.687 63.1962 128.071C66.1554 128.406 68.9939 129.435 71.4811 131.073C74.0162 132.72 75.5438 135.016 75.5438 138.453Z" fill="#FEFEFE"/>
<path d="M63.5617 183.779C63.1775 183.577 63.2243 183.179 63.1728 182.869C62.4066 178.261 61.6897 173.645 60.8837 169.046C60.7361 168.212 61.2632 167.93 61.6756 167.518C63.2173 165.988 63.2267 165.997 62.0528 164.196C61.61 163.516 61.1695 162.837 60.5463 161.874C62.6339 162.495 64.4614 162.46 66.5608 161.911C65.7641 163.151 65.1409 164.193 64.4521 165.191C64.0514 165.758 63.9132 166.208 64.5762 166.639C66.1976 167.689 66.385 169.062 65.9984 170.92C65.176 174.88 64.6536 178.903 63.9905 182.895C63.9296 183.195 63.9788 183.598 63.5617 183.779Z" fill="#FEFEFE"/>
<path d="M0.814859 230.398H5.13486V231.64H3.98286L3.96486 234.952H9.14886L9.16686 231.64H8.01486V230.398H12.3169V231.64H10.6069L10.5529 239.758H12.2809V241H7.99686V239.758H9.14886V236.194H3.96486L3.94686 239.758H5.09886V241H0.796859V239.758H2.52486L2.54286 231.64H0.814859V230.398ZM13.6465 241V239.758H15.3385V231.64H13.6465V230.398H18.4165C19.3885 230.398 20.1565 230.518 20.7205 230.758C21.2965 230.998 21.7045 231.358 21.9445 231.838C22.1965 232.306 22.3225 232.894 22.3225 233.602C22.3225 234.658 22.0345 235.468 21.4585 236.032C20.8825 236.584 19.8685 236.86 18.4165 236.86H16.7785V239.758H17.9125V241H13.6465ZM16.7965 235.582H18.4165C18.9325 235.582 19.3645 235.534 19.7125 235.438C20.0605 235.342 20.3245 235.156 20.5045 234.88C20.6965 234.592 20.7925 234.172 20.7925 233.62C20.7925 233.068 20.6965 232.654 20.5045 232.378C20.3245 232.09 20.0605 231.898 19.7125 231.802C19.3645 231.694 18.9325 231.64 18.4165 231.64H16.7965V235.582ZM20.8645 241L18.5425 236.77L20.0725 236.59L21.9085 239.758H23.5465V241H20.8645ZM34.9807 234.358C34.7047 234.262 34.4407 234.196 34.1887 234.16C33.9487 234.124 33.6727 234.106 33.3607 234.106C32.5567 234.106 31.9147 234.358 31.4347 234.862C30.9547 235.366 30.7147 236.122 30.7147 237.13C30.7147 238.114 30.9727 238.852 31.4887 239.344C32.0167 239.836 32.6467 240.082 33.3787 240.082C33.7507 240.082 34.1287 240.022 34.5127 239.902C34.8967 239.782 35.2747 239.596 35.6467 239.344L36.2407 240.226C35.9407 240.442 35.6527 240.628 35.3767 240.784C35.1007 240.94 34.7947 241.06 34.4587 241.144C34.1227 241.228 33.7027 241.27 33.1987 241.27C32.4307 241.27 31.7467 241.108 31.1467 240.784C30.5587 240.448 30.0967 239.968 29.7607 239.344C29.4367 238.72 29.2747 237.982 29.2747 237.13C29.2747 236.23 29.4547 235.474 29.8147 234.862C30.1867 234.238 30.6847 233.77 31.3087 233.458C31.9327 233.134 32.6227 232.972 33.3787 232.972C33.8587 232.972 34.3027 233.026 34.7107 233.134C35.1187 233.23 35.5867 233.356 36.1147 233.512L36.3667 235.456L35.2147 235.708L34.9807 234.358ZM37.7482 233.278H47.4682V234.394H45.9382V239.884H47.4682V241H43.5442V239.884H44.5342V234.394H40.6822V239.884H41.6722V241H37.7482V239.884H39.2782V234.394H37.7482V233.278ZM55.901 240.082C55.421 240.49 54.929 240.79 54.425 240.982C53.933 241.174 53.369 241.27 52.733 241.27C51.893 241.27 51.161 241.108 50.537 240.784C49.913 240.448 49.427 239.974 49.079 239.362C48.743 238.738 48.575 237.994 48.575 237.13C48.575 236.302 48.737 235.582 49.061 234.97C49.385 234.346 49.841 233.866 50.429 233.53C51.029 233.182 51.719 233.008 52.499 233.008C53.231 233.008 53.855 233.164 54.371 233.476C54.887 233.788 55.283 234.226 55.559 234.79C55.847 235.342 55.991 236.002 55.991 236.77C55.991 236.878 55.985 236.992 55.973 237.112C55.973 237.22 55.967 237.334 55.955 237.454L49.961 237.49C49.997 238.102 50.141 238.6 50.393 238.984C50.657 239.368 50.987 239.65 51.383 239.83C51.791 240.01 52.223 240.1 52.679 240.1C53.207 240.1 53.681 240.028 54.101 239.884C54.521 239.74 54.905 239.524 55.253 239.236L55.901 240.082ZM54.605 236.356C54.593 235.684 54.395 235.144 54.011 234.736C53.639 234.316 53.141 234.106 52.517 234.106C51.881 234.106 51.323 234.316 50.843 234.736C50.363 235.144 50.075 235.69 49.979 236.374L54.605 236.356ZM65.7953 243.574V241H57.1373V239.884H58.8473V234.394H57.1193V233.278H61.0433V234.394H60.2153V239.884H64.1033V234.394H63.2753V233.278H67.1993V234.394H65.4713V239.884H67.1813V243.574H65.7953ZM68.7033 233.278H72.5553V234.394H71.5653V239.2L75.5973 233.278H78.4413V234.394H76.9113V239.884H78.4413V241H74.6073V239.884H75.5973V235.078L71.5653 241H68.7033V239.884H70.2333V234.394H68.7033V233.278ZM85.2508 240.478C84.4708 241.006 83.6248 241.27 82.7128 241.27C81.7048 241.27 80.9368 241.066 80.4088 240.658C79.8928 240.25 79.6288 239.656 79.6168 238.876C79.5928 237.304 80.5888 236.518 82.6048 236.518L84.9268 236.536C84.9268 235.732 84.7768 235.138 84.4768 234.754C84.1768 234.358 83.7208 234.16 83.1088 234.16C82.8208 234.16 82.5388 234.178 82.2628 234.214C81.9868 234.25 81.7288 234.304 81.4888 234.376L81.3088 235.366L80.1567 235.15L80.4448 233.512C80.9008 233.344 81.3448 233.218 81.7768 233.134C82.2208 233.05 82.6468 233.008 83.0548 233.008C84.1348 233.008 84.9508 233.302 85.5028 233.89C86.0548 234.466 86.3308 235.324 86.3308 236.464V239.596L88.0408 240.154L87.6808 241.306L85.2508 240.478ZM82.6588 237.652C82.1428 237.652 81.7468 237.754 81.4708 237.958C81.1948 238.162 81.0568 238.462 81.0568 238.858C81.0568 239.698 81.6328 240.118 82.7848 240.118C83.6128 240.118 84.3268 239.89 84.9268 239.434V237.67L82.6588 237.652ZM94.3298 241V239.884H95.1218V234.394H89.9198V233.278H98.1998V234.394H96.5258V239.884H98.2538V241H94.3298ZM89.0378 241.108V239.956C89.6498 240.028 90.1178 239.914 90.4418 239.614C90.7778 239.314 91.0118 238.882 91.1438 238.318C91.2878 237.754 91.3778 237.136 91.4138 236.464L91.5398 234.106H92.8538L92.6558 236.878C92.5958 237.718 92.4278 238.48 92.1518 239.164C91.8878 239.836 91.4978 240.352 90.9818 240.712C90.4778 241.072 89.8298 241.204 89.0378 241.108ZM99.7462 233.278H103.598V234.394H102.608V239.2L106.64 233.278H109.484V234.394H107.954V239.884H109.484V241H105.65V239.884H106.64V235.078L102.608 241H99.7462V239.884H101.276V234.394H99.7462V233.278ZM116.315 234.358C116.039 234.262 115.775 234.196 115.523 234.16C115.283 234.124 115.007 234.106 114.695 234.106C113.891 234.106 113.249 234.358 112.769 234.862C112.289 235.366 112.049 236.122 112.049 237.13C112.049 238.114 112.307 238.852 112.823 239.344C113.351 239.836 113.981 240.082 114.713 240.082C115.085 240.082 115.463 240.022 115.847 239.902C116.231 239.782 116.609 239.596 116.981 239.344L117.575 240.226C117.275 240.442 116.987 240.628 116.711 240.784C116.435 240.94 116.129 241.06 115.793 241.144C115.457 241.228 115.037 241.27 114.533 241.27C113.765 241.27 113.081 241.108 112.481 240.784C111.893 240.448 111.431 239.968 111.095 239.344C110.771 238.72 110.609 237.982 110.609 237.13C110.609 236.23 110.789 235.474 111.149 234.862C111.521 234.238 112.019 233.77 112.643 233.458C113.267 233.134 113.957 232.972 114.713 232.972C115.193 232.972 115.637 233.026 116.045 233.134C116.453 233.23 116.921 233.356 117.449 233.512L117.701 235.456L116.549 235.708L116.315 234.358ZM118.632 233.278H126.57V235.996H125.454V234.394H123.312V239.884H124.914V241H120.306V239.884H121.908V234.394H119.748V235.996H118.632V233.278Z" fill="#FEFEFE"/>
<path d="M137 156.5C136.172 156.5 135.5 157.172 135.5 158C135.5 158.828 136.172 159.5 137 159.5V156.5ZM162.061 159.061C162.646 158.475 162.646 157.525 162.061 156.939L152.515 147.393C151.929 146.808 150.979 146.808 150.393 147.393C149.808 147.979 149.808 148.929 150.393 149.515L158.879 158L150.393 166.485C149.808 167.071 149.808 168.021 150.393 168.607C150.979 169.192 151.929 169.192 152.515 168.607L162.061 159.061ZM137 159.5H161V156.5H137V159.5Z" fill="#FEFEFE"/>
<rect x="192.5" y="110" width="96" height="96" rx="48" fill="#D83432"/>
<path d="M215.18 146.565C215.18 146.947 215.18 146.892 215.523 146.892H220.901V172.315H224.793V143H215.18V146.565Z" fill="#FEFEFE"/>
<path d="M214.954 152.613C215.219 152.613 215.219 152.613 215.219 152.878V172.338H218.948V148.885H211V152.629H214.892L214.954 152.613Z" fill="#FEFEFE"/>
<path d="M233.566 169.707C235.845 171.241 238.498 172.126 241.241 172.268L242.152 172.323H271V168.509H244.534C243.16 168.544 241.785 168.466 240.424 168.275C239.366 168.139 238.335 167.845 237.365 167.403C235.706 166.651 234.269 165.483 233.194 164.013C232.118 162.543 231.439 160.821 231.223 159.012C230.95 157.249 231.169 155.444 231.854 153.797C232.569 151.875 233.827 150.203 235.474 148.981C237.12 147.76 239.086 147.042 241.132 146.915C242.761 146.758 244.402 147.027 245.896 147.694C247.733 148.409 249.335 149.621 250.522 151.196C251.708 152.77 252.433 154.644 252.614 156.607C252.661 156.91 252.661 157.214 252.684 157.525H256.576C256.579 157.473 256.579 157.421 256.576 157.369C256.559 155.962 256.328 154.566 255.891 153.228C255.047 150.604 253.482 148.27 251.375 146.493C249.267 144.716 246.703 143.568 243.974 143.179C242.575 142.973 241.153 142.973 239.755 143.179C238.365 143.388 237.013 143.795 235.738 144.386C233.42 145.471 231.425 147.145 229.953 149.239C228.481 151.334 227.583 153.777 227.347 156.326C227.188 158 227.325 159.689 227.751 161.316C228.612 164.724 230.678 167.704 233.566 169.707Z" fill="#FEFEFE"/>
<path d="M271 162.382H259.324C253.875 162.382 248.426 162.382 242.977 162.382C242.26 162.379 241.545 162.3 240.844 162.149C240.256 162.023 239.699 161.781 239.205 161.438C238.712 161.095 238.291 160.658 237.967 160.151C237.643 159.644 237.424 159.078 237.32 158.486C237.217 157.893 237.232 157.286 237.365 156.7C237.617 155.532 238.307 154.505 239.293 153.83C240.279 153.156 241.486 152.884 242.666 153.073C243.566 153.231 244.4 153.651 245.064 154.279C245.728 154.907 246.194 155.717 246.402 156.607C246.472 156.895 246.503 157.19 246.558 157.494H250.248C250.251 157.421 250.251 157.349 250.248 157.276C250.223 156.614 250.116 155.958 249.928 155.322C249.328 153.241 247.943 151.475 246.065 150.396C244.187 149.317 241.964 149.01 239.864 149.539C237.744 150.053 235.911 151.379 234.759 153.23C233.606 155.081 233.225 157.311 233.698 159.44C233.964 160.707 234.526 161.892 235.338 162.9C236.15 163.908 237.188 164.709 238.369 165.239C239.543 165.734 240.801 165.998 242.074 166.018C242.853 166.08 243.631 166.072 244.409 166.072H271V162.382Z" fill="#FEFEFE"/>
<path d="M264.236 148.371C263.554 148.367 262.901 148.094 262.418 147.612C261.936 147.13 261.663 146.477 261.659 145.794C261.671 145.117 261.95 144.471 262.436 143.997C262.921 143.524 263.573 143.26 264.251 143.265C264.587 143.262 264.92 143.325 265.231 143.452C265.542 143.578 265.825 143.766 266.063 144.002C266.302 144.239 266.491 144.521 266.619 144.831C266.748 145.141 266.813 145.474 266.812 145.81C266.812 146.148 266.745 146.482 266.616 146.794C266.486 147.105 266.296 147.388 266.057 147.626C265.817 147.864 265.533 148.053 265.22 148.181C264.908 148.308 264.573 148.373 264.236 148.371ZM262.072 145.81C262.07 146.095 262.124 146.377 262.232 146.641C262.34 146.904 262.499 147.143 262.701 147.345C262.902 147.546 263.142 147.706 263.405 147.814C263.669 147.922 263.951 147.976 264.236 147.974C264.521 147.976 264.804 147.921 265.068 147.813C265.332 147.704 265.572 147.544 265.773 147.342C265.975 147.14 266.134 146.9 266.241 146.635C266.349 146.371 266.403 146.088 266.4 145.802C266.395 145.234 266.166 144.69 265.762 144.29C265.358 143.891 264.812 143.667 264.243 143.669C263.96 143.664 263.679 143.716 263.415 143.82C263.152 143.925 262.912 144.082 262.71 144.28C262.508 144.479 262.347 144.716 262.238 144.977C262.128 145.238 262.072 145.519 262.072 145.802V145.81Z" fill="#FEFEFE"/>
<path d="M264.928 145.857C265.395 146.114 265.115 146.635 265.286 147.032H265.24C264.765 147.032 264.749 147.032 264.749 146.581C264.749 146.129 264.625 145.989 264.158 145.981H263.807V147.024H263.348V144.526H263.473C263.878 144.526 264.251 144.526 264.687 144.526C264.789 144.532 264.889 144.563 264.977 144.615C265.066 144.667 265.14 144.739 265.196 144.826C265.251 144.912 265.285 145.01 265.296 145.112C265.306 145.214 265.292 145.317 265.255 145.413C265.174 145.579 265.063 145.729 264.928 145.857ZM263.807 145.67C264.072 145.67 264.321 145.67 264.586 145.615C264.851 145.561 264.858 145.436 264.858 145.242C264.865 145.155 264.838 145.07 264.783 145.003C264.727 144.936 264.649 144.894 264.563 144.884C264.32 144.853 264.075 144.835 263.831 144.829L263.807 145.67Z" fill="#FEFEFE"/>
<path d="M175.685 230.398H176.585L176.549 239.758H179.357V241H172.157V239.758H175.145L175.163 232.504L172.589 234.628L171.797 233.656L175.685 230.398ZM187.136 231.784C187.016 231.712 186.854 231.646 186.65 231.586C186.458 231.514 186.224 231.46 185.948 231.424C185.684 231.376 185.378 231.352 185.03 231.352C183.866 231.352 182.978 231.742 182.366 232.522C181.754 233.29 181.448 234.346 181.448 235.69C181.448 237.058 181.76 238.126 182.384 238.894C183.02 239.662 183.902 240.046 185.03 240.046C185.33 240.046 185.612 240.028 185.876 239.992C186.14 239.944 186.38 239.89 186.596 239.83C186.812 239.77 186.992 239.716 187.136 239.668L187.478 238.228L188.702 238.516L188.252 240.604C188.252 240.604 188.12 240.664 187.856 240.784C187.592 240.892 187.214 241 186.722 241.108C186.242 241.216 185.678 241.27 185.03 241.27C183.998 241.27 183.098 241.042 182.33 240.586C181.574 240.13 180.986 239.488 180.566 238.66C180.146 237.82 179.93 236.83 179.918 235.69C179.918 234.562 180.122 233.584 180.53 232.756C180.95 231.916 181.544 231.268 182.312 230.812C183.08 230.344 183.98 230.116 185.012 230.128C185.804 230.128 186.44 230.2 186.92 230.344C187.412 230.476 187.766 230.614 187.982 230.758C188.21 230.89 188.324 230.962 188.324 230.974L188.72 233.062L187.496 233.332L187.136 231.784ZM191.351 233.008C191.651 233.008 191.909 233.122 192.125 233.35C192.353 233.566 192.467 233.824 192.467 234.124C192.467 234.424 192.353 234.688 192.125 234.916C191.909 235.132 191.651 235.24 191.351 235.24C191.051 235.24 190.787 235.132 190.559 234.916C190.343 234.688 190.235 234.424 190.235 234.124C190.235 233.824 190.343 233.566 190.559 233.35C190.787 233.122 191.051 233.008 191.351 233.008ZM191.351 239.038C191.651 239.038 191.909 239.152 192.125 239.38C192.353 239.596 192.467 239.854 192.467 240.154C192.467 240.454 192.353 240.718 192.125 240.946C191.909 241.162 191.651 241.27 191.351 241.27C191.051 241.27 190.787 241.162 190.559 240.946C190.343 240.718 190.235 240.454 190.235 240.154C190.235 239.854 190.343 239.596 190.559 239.38C190.787 239.152 191.051 239.038 191.351 239.038ZM198.425 230.398H209.405V231.64H207.695L207.659 239.758H209.369V241H204.743V239.758H206.255L206.273 231.64H201.557L201.521 239.758H203.033V241H198.407V239.758H200.117L200.135 231.64H198.425V230.398ZM210.603 244.744V243.628H212.115V234.664L210.423 234.106L210.783 232.954L213.195 233.782C213.579 233.542 213.981 233.356 214.401 233.224C214.821 233.08 215.217 233.008 215.589 233.008C216.777 233.008 217.713 233.356 218.397 234.052C219.093 234.736 219.441 235.684 219.441 236.896C219.441 237.748 219.273 238.504 218.937 239.164C218.613 239.824 218.157 240.34 217.569 240.712C216.981 241.084 216.297 241.27 215.517 241.27C214.833 241.27 214.167 241.168 213.519 240.964V243.628H215.031V244.744H210.603ZM215.499 240.118C216.279 240.118 216.891 239.836 217.335 239.272C217.779 238.696 218.001 237.904 218.001 236.896C218.001 235.984 217.797 235.3 217.389 234.844C216.993 234.388 216.387 234.16 215.571 234.16C215.199 234.16 214.815 234.226 214.419 234.358C214.035 234.478 213.735 234.634 213.519 234.826V239.668C213.723 239.8 214.011 239.908 214.383 239.992C214.755 240.076 215.127 240.118 215.499 240.118ZM228.181 240.082C227.701 240.49 227.209 240.79 226.705 240.982C226.213 241.174 225.649 241.27 225.013 241.27C224.173 241.27 223.441 241.108 222.817 240.784C222.193 240.448 221.707 239.974 221.359 239.362C221.023 238.738 220.855 237.994 220.855 237.13C220.855 236.302 221.017 235.582 221.341 234.97C221.665 234.346 222.121 233.866 222.709 233.53C223.309 233.182 223.999 233.008 224.779 233.008C225.511 233.008 226.135 233.164 226.651 233.476C227.167 233.788 227.563 234.226 227.839 234.79C228.127 235.342 228.271 236.002 228.271 236.77C228.271 236.878 228.265 236.992 228.253 237.112C228.253 237.22 228.247 237.334 228.235 237.454L222.241 237.49C222.277 238.102 222.421 238.6 222.673 238.984C222.937 239.368 223.267 239.65 223.663 239.83C224.071 240.01 224.503 240.1 224.959 240.1C225.487 240.1 225.961 240.028 226.381 239.884C226.801 239.74 227.185 239.524 227.533 239.236L228.181 240.082ZM226.885 236.356C226.873 235.684 226.675 235.144 226.291 234.736C225.919 234.316 225.421 234.106 224.797 234.106C224.161 234.106 223.603 234.316 223.123 234.736C222.643 235.144 222.355 235.69 222.259 236.374L226.885 236.356ZM229.027 243.556V239.884H230.071C230.323 239.764 230.527 239.554 230.683 239.254C230.851 238.942 230.977 238.588 231.061 238.192C231.157 237.784 231.229 237.382 231.277 236.986C231.325 236.578 231.361 236.224 231.385 235.924L231.529 234.394H230.071V233.278H238.459V234.394H236.785V239.884H238.459V243.556H237.091V241H230.395V243.556H229.027ZM231.637 239.884H235.417V234.394H232.717L232.555 236.122C232.471 237.106 232.363 237.904 232.231 238.516C232.111 239.116 231.913 239.572 231.637 239.884ZM239.964 233.278H249.684V234.394H248.154V239.884H249.684V241H245.76V239.884H246.75V234.394H242.898V239.884H243.888V241H239.964V239.884H241.494V234.394H239.964V233.278ZM250.98 244.744V243.628H252.492V234.664L250.8 234.106L251.16 232.954L253.572 233.782C253.956 233.542 254.358 233.356 254.778 233.224C255.198 233.08 255.594 233.008 255.966 233.008C257.154 233.008 258.09 233.356 258.774 234.052C259.47 234.736 259.818 235.684 259.818 236.896C259.818 237.748 259.65 238.504 259.314 239.164C258.99 239.824 258.534 240.34 257.946 240.712C257.358 241.084 256.674 241.27 255.894 241.27C255.21 241.27 254.544 241.168 253.896 240.964V243.628H255.408V244.744H250.98ZM255.876 240.118C256.656 240.118 257.268 239.836 257.712 239.272C258.156 238.696 258.378 237.904 258.378 236.896C258.378 235.984 258.174 235.3 257.766 234.844C257.37 234.388 256.764 234.16 255.948 234.16C255.576 234.16 255.192 234.226 254.796 234.358C254.412 234.478 254.112 234.634 253.896 234.826V239.668C254.1 239.8 254.388 239.908 254.76 239.992C255.132 240.076 255.504 240.118 255.876 240.118ZM260.935 233.278H264.787V234.394H263.797V239.2L267.829 233.278H270.673V234.394H269.143V239.884H270.673V241H266.839V239.884H267.829V235.078L263.797 241H260.935V239.884H262.465V234.394H260.935V233.278ZM276.487 241.018V239.902H277.891V238.12L276.145 238.102C275.605 238.09 275.095 238 274.615 237.832C274.135 237.664 273.745 237.406 273.445 237.058C273.145 236.698 272.995 236.242 272.995 235.69C272.995 234.982 273.277 234.406 273.841 233.962C274.405 233.506 275.269 233.278 276.433 233.278H280.951V234.394H279.259V239.902H280.951V241.018H276.487ZM271.969 241L271.987 239.884H273.445L274.903 237.832L276.379 237.886L274.309 241H271.969ZM276.379 237.04H277.891V234.412H276.433C276.109 234.412 275.797 234.448 275.497 234.52C275.197 234.58 274.945 234.706 274.741 234.898C274.549 235.09 274.453 235.39 274.453 235.798C274.453 236.218 274.633 236.53 274.993 236.734C275.365 236.938 275.827 237.04 276.379 237.04ZM282.018 233.278H289.956V235.996H288.84V234.394H286.698V239.884H288.3V241H283.692V239.884H285.294V234.394H283.134V235.996H282.018V233.278ZM291.011 233.278H294.863V234.394H293.873V239.2L297.905 233.278H300.749V234.394H299.219V239.884H300.749V241H296.915V239.884H297.905V235.078L293.873 241H291.011V239.884H292.541V234.394H291.011V233.278ZM309.181 240.082C308.701 240.49 308.209 240.79 307.705 240.982C307.213 241.174 306.649 241.27 306.013 241.27C305.173 241.27 304.441 241.108 303.817 240.784C303.193 240.448 302.707 239.974 302.359 239.362C302.023 238.738 301.855 237.994 301.855 237.13C301.855 236.302 302.017 235.582 302.341 234.97C302.665 234.346 303.121 233.866 303.709 233.53C304.309 233.182 304.999 233.008 305.779 233.008C306.511 233.008 307.135 233.164 307.651 233.476C308.167 233.788 308.563 234.226 308.839 234.79C309.127 235.342 309.271 236.002 309.271 236.77C309.271 236.878 309.265 236.992 309.253 237.112C309.253 237.22 309.247 237.334 309.235 237.454L303.241 237.49C303.277 238.102 303.421 238.6 303.673 238.984C303.937 239.368 304.267 239.65 304.663 239.83C305.071 240.01 305.503 240.1 305.959 240.1C306.487 240.1 306.961 240.028 307.381 239.884C307.801 239.74 308.185 239.524 308.533 239.236L309.181 240.082ZM307.885 236.356C307.873 235.684 307.675 235.144 307.291 234.736C306.919 234.316 306.421 234.106 305.797 234.106C305.161 234.106 304.603 234.316 304.123 234.736C303.643 235.144 303.355 235.69 303.259 236.374L307.885 236.356Z" fill="#FEFEFE"/>
<path d="M320 156.5C319.172 156.5 318.5 157.172 318.5 158C318.5 158.828 319.172 159.5 320 159.5V156.5ZM345.061 159.061C345.646 158.475 345.646 157.525 345.061 156.939L335.515 147.393C334.929 146.808 333.979 146.808 333.393 147.393C332.808 147.979 332.808 148.929 333.393 149.515L341.879 158L333.393 166.485C332.808 167.071 332.808 168.021 333.393 168.607C333.979 169.192 334.929 169.192 335.515 168.607L345.061 159.061ZM320 159.5H344V156.5H320V159.5Z" fill="#FEFEFE"/>
<rect x="362" y="110" width="96" height="96" rx="48" fill="#D83432"/>
<path d="M407.697 160.408C406.966 160.803 406.347 161.376 405.897 162.075C405.448 162.774 405.184 163.576 405.128 164.405C405.128 166.089 405.128 166.26 405.956 165.975C406.873 165.588 407.664 164.953 408.239 164.141C408.814 163.329 409.15 162.372 409.21 161.379C409.21 159.98 408.782 159.695 407.697 160.408Z" fill="#FEFEFE"/>
<path d="M412.207 160.151C411.237 159.581 410.723 159.98 410.752 161.036C410.75 161.956 411.002 162.859 411.481 163.645C411.959 164.43 412.645 165.069 413.463 165.489C413.806 165.689 414.177 166.146 414.577 165.86C414.976 165.575 414.748 165.09 414.833 164.576C414.823 163.673 414.575 162.788 414.114 162.011C413.653 161.235 412.995 160.593 412.207 160.151Z" fill="#FEFEFE"/>
<path d="M412.122 157.954C412.448 158.519 412.942 158.968 413.536 159.239C414.129 159.51 414.792 159.59 415.433 159.466C415.699 159.481 415.966 159.481 416.232 159.466C417.403 159.466 418.773 158.896 419.087 157.925C419.401 156.955 417.631 156.869 416.717 156.555C416.364 156.454 416 156.397 415.633 156.384C414.091 156.327 411.836 157.383 412.122 157.954Z" fill="#FEFEFE"/>
<path d="M410.067 159.181C410.219 159.167 410.366 159.122 410.5 159.049C410.634 158.976 410.751 158.876 410.845 158.756C410.939 158.635 411.007 158.497 411.045 158.349C411.083 158.201 411.09 158.047 411.066 157.897C411.07 157.752 411.044 157.608 410.989 157.473C410.934 157.339 410.851 157.219 410.746 157.119C410.641 157.019 410.516 156.943 410.379 156.895C410.242 156.847 410.097 156.828 409.952 156.84C409.805 156.832 409.658 156.855 409.52 156.908C409.383 156.961 409.259 157.043 409.156 157.149C409.053 157.255 408.974 157.381 408.924 157.52C408.874 157.659 408.855 157.807 408.868 157.954C408.868 158.696 409.296 159.095 410.067 159.181Z" fill="#FEFEFE"/>
<path d="M406.242 148.991C407.138 149.656 408.094 150.239 409.096 150.732C409.524 149.904 408.268 148.42 409.838 148.363C411.408 148.306 410.124 150.018 410.78 150.875L413.635 148.848C410.266 146.336 409.039 146.365 406.242 148.991Z" fill="#FEFEFE"/>
<path d="M413.549 167.145L410.695 165.09C410.695 166.231 411.608 167.602 410.038 167.687C408.468 167.773 409.496 166.117 409.068 165.318C408.074 165.792 407.168 166.429 406.384 167.202C410.067 169.714 410.352 169.714 413.549 167.145Z" fill="#FEFEFE"/>
<path d="M414.006 150.19C413.056 150.572 412.236 151.219 411.644 152.054C411.052 152.889 410.713 153.877 410.666 154.899C410.666 156.212 411.18 156.555 412.293 155.87C413.064 155.395 413.702 154.732 414.147 153.943C414.591 153.154 414.827 152.265 414.833 151.36C414.491 151.074 415.404 149.818 414.006 150.19Z" fill="#FEFEFE"/>
<path d="M419.914 153.615C419.914 152.445 417.26 149.761 416.346 150.247C415.433 150.732 415.975 152.188 415.747 153.101C415.747 153.101 415.747 153.244 415.918 153.329C416.775 153.529 417.431 151.331 418.287 152.93C419.144 154.528 416.917 153.872 416.603 154.842C416.794 154.989 416.994 155.122 417.203 155.242C419.943 156.669 419.943 156.669 419.914 153.615Z" fill="#FEFEFE"/>
<path d="M413.206 177.535L410.695 180.389C411.14 179.578 411.331 178.653 411.245 177.732C411.158 176.811 410.798 175.937 410.209 175.223C409.52 175.902 409.086 176.799 408.982 177.761C408.878 178.724 409.11 179.693 409.638 180.503C404.473 175.556 400.685 169.349 398.649 162.492C398.504 164.892 398.735 167.3 399.334 169.628C401.314 176.225 404.736 182.3 409.353 187.411C409.753 187.896 410.095 188.068 410.58 187.411C412.857 184.716 414.927 181.853 416.775 178.848C416.974 178.505 417.288 178.134 417.06 177.706C416.522 177.266 415.856 177.012 415.162 176.981C414.467 176.95 413.782 177.144 413.206 177.535ZM410.095 183.044C409.992 183.064 409.885 183.063 409.782 183.041C409.679 183.018 409.582 182.975 409.496 182.914C409.411 182.852 409.338 182.774 409.284 182.683C409.23 182.593 409.195 182.492 409.182 182.387C409.154 182.272 409.154 182.151 409.182 182.036C409.21 181.92 409.266 181.813 409.344 181.723C409.423 181.634 409.521 181.564 409.632 181.521C409.743 181.478 409.863 181.461 409.981 181.474C410.174 181.467 410.363 181.525 410.518 181.639C410.674 181.753 410.786 181.916 410.837 182.102C410.837 182.644 410.552 182.93 410.067 182.987L410.095 183.044Z" fill="#FEFEFE"/>
<path d="M398.078 174.338H394.367C395.345 174.159 396.231 173.645 396.871 172.885C397.512 172.124 397.868 171.165 397.878 170.17C396.906 170.196 395.969 170.543 395.215 171.157C394.461 171.772 393.932 172.62 393.711 173.567C393.732 166.328 395.63 159.217 399.22 152.93C396.489 155.065 394.298 157.813 392.826 160.951C390.627 166.42 389.289 172.198 388.858 178.077C388.858 178.934 389.087 179.333 389.972 179.305C393.481 179.064 396.96 178.49 400.362 177.592C400.676 177.592 401.047 177.421 400.961 176.878C400.849 176.187 400.5 175.555 399.975 175.092C399.449 174.628 398.778 174.362 398.078 174.338ZM392.769 175.908C392.661 175.908 392.555 175.886 392.456 175.844C392.357 175.803 392.268 175.741 392.193 175.664C392.119 175.587 392.061 175.495 392.022 175.395C391.984 175.294 391.966 175.187 391.97 175.08C391.968 174.961 391.993 174.843 392.042 174.735C392.09 174.626 392.162 174.529 392.251 174.45C392.34 174.372 392.446 174.313 392.56 174.279C392.674 174.245 392.794 174.236 392.912 174.252C393.425 174.252 393.711 174.623 393.768 175.137C393.754 175.254 393.717 175.366 393.659 175.469C393.601 175.571 393.523 175.66 393.43 175.732C393.337 175.804 393.231 175.856 393.117 175.886C393.004 175.917 392.885 175.924 392.769 175.908Z" fill="#FEFEFE"/>
<path d="M400.362 156.155C401.189 156.583 402.417 155.584 403.416 154.899C402.931 154.043 400.847 154.5 401.732 152.987C402.617 151.474 403.245 153.643 404.101 153.501C404.358 153.272 404.272 152.987 404.244 152.759C404.244 149.904 404.244 149.904 401.646 151.274C400.904 151.674 399.933 151.931 400.076 153.101C400.219 154.271 399.562 155.756 400.362 156.155Z" fill="#FEFEFE"/>
<path d="M415.775 162.521C415.775 163.434 415.775 164.262 415.947 165.09C415.947 165.347 415.947 165.632 416.289 165.718C417.731 165.251 418.989 164.342 419.886 163.12C419.886 162.178 419.886 161.236 419.886 160.266C419.886 159.295 419.886 159.381 419.172 159.723C418.459 160.066 417.288 160.323 416.575 161.093C417.117 161.836 419.087 161.465 418.259 162.949C417.431 164.433 416.832 162.606 415.775 162.521Z" fill="#FEFEFE"/>
<path d="M405.071 150.903C405.05 151.759 405.22 152.608 405.571 153.389C405.922 154.17 406.444 154.861 407.098 155.413C407.583 155.841 408.24 156.384 408.868 156.013C409.496 155.642 409.296 154.899 409.21 154.271C409.076 153.441 408.748 152.654 408.252 151.974C407.756 151.294 407.106 150.742 406.356 150.361C405.385 149.733 404.957 149.99 405.071 150.903Z" fill="#FEFEFE"/>
<path d="M429.106 152.073C428.928 152.351 428.812 152.663 428.766 152.989C428.719 153.315 428.742 153.647 428.834 153.963C428.926 154.279 429.084 154.572 429.298 154.822C429.513 155.072 429.778 155.274 430.076 155.413C430.73 155.881 431.342 156.407 431.903 156.983C430.105 156.184 428.877 157.354 427.45 157.954C428.024 158.641 428.837 159.088 429.725 159.204C430.614 159.32 431.513 159.098 432.245 158.582C427.494 163.619 421.483 167.295 414.833 169.229C415.017 169.329 415.208 169.415 415.404 169.485C425.024 169.2 432.531 164.405 439.667 158.467C440.266 157.954 439.924 157.697 439.667 157.383C437.079 155.161 434.342 153.12 431.475 151.274C430.048 150.475 429.734 150.646 429.106 152.073ZM434.186 157.297C434.371 157.281 434.555 157.338 434.699 157.455C434.843 157.572 434.936 157.741 434.957 157.925C434.957 158.439 434.643 158.639 434.186 158.753C433.73 158.867 433.416 158.439 433.444 157.925C433.447 157.834 433.47 157.744 433.51 157.661C433.55 157.579 433.606 157.506 433.676 157.447C433.746 157.388 433.828 157.344 433.916 157.318C434.003 157.292 434.096 157.285 434.186 157.297Z" fill="#FEFEFE"/>
<path d="M415.005 146.479C414.759 146.39 414.528 146.265 414.32 146.108C407.441 139.371 398.763 137.545 389.6 136.802C388.858 136.802 388.687 137.088 388.744 137.716C388.923 141.279 389.449 144.816 390.314 148.277C390.314 148.563 390.485 148.934 390.714 149.076C390.942 149.219 394.053 147.678 394.025 146.964C394.025 145.737 393.854 144.509 393.768 143.253C394.51 145.137 396.08 145.537 397.85 145.908C397.926 145.008 397.681 144.11 397.158 143.374C396.636 142.637 395.87 142.109 394.995 141.883C401.891 141.772 408.691 143.506 414.691 146.907L415.005 146.479ZM393.397 141.369C393.33 141.439 393.25 141.493 393.162 141.531C393.074 141.568 392.979 141.588 392.883 141.588C392.787 141.588 392.692 141.568 392.604 141.531C392.516 141.493 392.436 141.439 392.369 141.369C392.235 141.227 392.16 141.038 392.16 140.841C392.16 140.645 392.235 140.456 392.369 140.313C392.436 140.244 392.516 140.189 392.604 140.152C392.692 140.114 392.787 140.095 392.883 140.095C392.979 140.095 393.074 140.114 393.162 140.152C393.25 140.189 393.33 140.244 393.397 140.313C393.531 140.456 393.606 140.645 393.606 140.841C393.606 141.038 393.531 141.227 393.397 141.369Z" fill="#FEFEFE"/>
<path d="M400.961 157.554C400.59 157.925 400.647 158.125 400.961 158.382C401.894 159.118 403.056 159.502 404.244 159.466C405.166 159.531 406.086 159.301 406.87 158.81C407.897 158.125 407.755 157.611 406.87 157.012C405.939 156.518 404.884 156.307 403.835 156.403C402.785 156.499 401.787 156.899 400.961 157.554Z" fill="#FEFEFE"/>
<path d="M392.626 157.982C392.007 157.52 391.301 157.188 390.551 157.006C389.8 156.825 389.02 156.797 388.259 156.926C393.081 152.147 399.03 148.662 405.557 146.793C402.429 146.484 399.27 146.824 396.28 147.792C390.451 150.023 385.074 153.292 380.409 157.44C379.781 157.954 379.953 158.182 380.409 158.61C382.899 160.771 385.552 162.737 388.345 164.49C390.057 165.546 389.943 165.461 390.828 163.634C390.993 163.406 391.106 163.144 391.158 162.867C391.21 162.59 391.2 162.305 391.129 162.032C391.058 161.759 390.928 161.505 390.748 161.289C390.567 161.072 390.341 160.898 390.086 160.779C389.201 160.123 388.402 159.324 387.545 158.61C388.324 159.14 389.269 159.368 390.204 159.252C391.139 159.137 392 158.685 392.626 157.982ZM385.804 158.639C385.7 158.653 385.593 158.643 385.493 158.609C385.393 158.575 385.302 158.519 385.228 158.444C385.153 158.37 385.097 158.279 385.063 158.179C385.029 158.079 385.019 157.972 385.033 157.868C385.033 157.44 385.405 157.269 385.776 157.211C386.147 157.154 386.489 157.411 386.546 157.839C386.571 157.944 386.57 158.054 386.542 158.158C386.515 158.262 386.462 158.358 386.388 158.437C386.315 158.516 386.223 158.576 386.121 158.611C386.02 158.646 385.911 158.656 385.804 158.639Z" fill="#FEFEFE"/>
<path d="M421.056 142.14C422.369 142.14 423.654 141.94 424.967 141.826C422.769 142.426 422.112 144.053 421.884 146.193C423.711 145.708 425.395 145.28 426.023 143.339C426.116 150.007 424.649 156.605 421.741 162.606L422.169 162.178C428.735 155.328 430.419 146.65 431.332 137.687C431.332 136.945 431.104 136.774 430.419 136.802C426.818 137.014 423.244 137.559 419.743 138.429C419.379 138.474 419.039 138.634 418.773 138.886C418.344 139.428 420.228 142.197 421.056 142.14ZM426.422 140.741C426.422 140.313 426.822 140.199 427.222 140.199C427.384 140.205 427.54 140.268 427.66 140.378C427.781 140.488 427.858 140.637 427.878 140.799C427.878 141.284 427.536 141.541 427.136 141.512C427.033 141.529 426.928 141.521 426.829 141.487C426.731 141.454 426.642 141.396 426.571 141.32C426.5 141.243 426.45 141.15 426.424 141.049C426.398 140.948 426.397 140.843 426.422 140.741Z" fill="#FEFEFE"/>
<path d="M421.484 153.301C421.313 151.446 421.227 149.562 420.913 147.592C419.6 140.028 415.205 134.062 410.495 128.353C410.095 127.868 409.81 127.897 409.41 128.353C406.897 131.102 404.677 134.106 402.788 137.316C402.645 137.573 402.417 137.801 402.645 138.173C403.189 138.711 403.908 139.038 404.671 139.096C405.435 139.153 406.194 138.937 406.813 138.487L408.896 136.117C408.553 136.941 408.476 137.852 408.675 138.722C408.875 139.592 409.341 140.378 410.01 140.97C410.539 140.304 410.901 139.521 411.065 138.687C411.229 137.852 411.19 136.991 410.951 136.174C415.788 140.879 419.277 146.792 421.056 153.301H421.484ZM410.067 134.519C409.61 134.519 409.267 134.205 409.267 133.805C409.259 133.697 409.277 133.587 409.32 133.487C409.362 133.387 409.428 133.298 409.512 133.228C409.596 133.158 409.695 133.11 409.801 133.086C409.908 133.062 410.018 133.064 410.124 133.092C410.215 133.095 410.305 133.117 410.387 133.157C410.47 133.197 410.543 133.254 410.602 133.324C410.661 133.394 410.705 133.475 410.731 133.563C410.757 133.651 410.764 133.743 410.752 133.834C410.695 134.262 410.352 134.433 410.067 134.519Z" fill="#FEFEFE"/>
<path d="M403.444 161.179C402.646 160.573 401.761 160.092 400.818 159.752C400.247 159.438 400.133 159.752 400.076 160.294C399.895 160.84 399.833 161.417 399.894 161.989C399.955 162.56 400.138 163.112 400.43 163.607C400.722 164.102 401.117 164.528 401.588 164.858C402.058 165.188 402.594 165.413 403.159 165.518C403.559 165.689 403.987 165.917 404.044 165.232C404.199 164.287 404.199 163.323 404.044 162.378C403.559 162.778 403.302 163.006 403.016 163.206C402.274 163.748 401.389 163.406 401.475 162.606C401.56 161.807 402.645 161.693 403.444 161.179Z" fill="#FEFEFE"/>
<path d="M429.648 167.944C429.648 167.573 429.505 167.145 429.163 166.974C428.82 166.802 425.994 168.429 426.051 169.2C426.051 170.513 426.251 171.826 426.365 173.139C424.767 170.856 424.539 170.684 422.141 170.285C422.141 172.54 423.511 173.482 425.509 173.995C418.412 174.189 411.393 172.474 405.186 169.029C405.553 169.547 405.985 170.017 406.47 170.427C407.269 171.112 408.04 171.798 408.896 172.426C415.262 177.135 422.74 178.334 430.333 179.19C431.361 179.333 431.275 178.648 431.218 178.02C431.002 174.621 430.477 171.248 429.648 167.944ZM427.964 175.137C427.943 175.329 427.854 175.507 427.712 175.638C427.57 175.77 427.386 175.845 427.193 175.851C426.594 175.851 426.251 175.537 426.28 175.08C426.282 174.961 426.31 174.843 426.362 174.736C426.414 174.628 426.489 174.533 426.581 174.457C426.673 174.381 426.781 174.326 426.896 174.296C427.012 174.265 427.133 174.26 427.25 174.281C427.354 174.288 427.456 174.316 427.548 174.363C427.641 174.411 427.723 174.476 427.79 174.556C427.857 174.636 427.907 174.729 427.936 174.829C427.966 174.929 427.976 175.034 427.964 175.137Z" fill="#FEFEFE"/>
<path d="M354.794 230.398H365.774V231.64H364.064L364.028 239.758H365.738V241H361.112V239.758H362.624L362.642 231.64H357.926L357.89 239.758H359.402V241H354.776V239.758H356.486L356.504 231.64H354.794V230.398ZM370.919 233.008C371.723 233.008 372.419 233.176 373.007 233.512C373.607 233.836 374.075 234.31 374.411 234.934C374.747 235.546 374.915 236.284 374.915 237.148C374.915 238.432 374.549 239.44 373.817 240.172C373.085 240.904 372.119 241.27 370.919 241.27C370.151 241.27 369.467 241.108 368.867 240.784C368.279 240.448 367.817 239.974 367.481 239.362C367.157 238.738 366.995 238 366.995 237.148C366.995 236.284 367.157 235.546 367.481 234.934C367.817 234.31 368.279 233.836 368.867 233.512C369.467 233.176 370.151 233.008 370.919 233.008ZM370.937 234.16C370.109 234.16 369.485 234.424 369.065 234.952C368.645 235.468 368.435 236.2 368.435 237.148C368.435 238.096 368.645 238.828 369.065 239.344C369.485 239.86 370.109 240.118 370.937 240.118C371.789 240.118 372.425 239.86 372.845 239.344C373.265 238.828 373.475 238.096 373.475 237.148C373.475 236.2 373.265 235.468 372.845 234.952C372.425 234.424 371.789 234.16 370.937 234.16ZM375.832 244.744V243.628H377.344V234.664L375.652 234.106L376.012 232.954L378.424 233.782C378.808 233.542 379.21 233.356 379.63 233.224C380.05 233.08 380.446 233.008 380.818 233.008C382.006 233.008 382.942 233.356 383.626 234.052C384.322 234.736 384.67 235.684 384.67 236.896C384.67 237.748 384.502 238.504 384.166 239.164C383.842 239.824 383.386 240.34 382.798 240.712C382.21 241.084 381.526 241.27 380.746 241.27C380.062 241.27 379.396 241.168 378.748 240.964V243.628H380.26V244.744H375.832ZM380.728 240.118C381.508 240.118 382.12 239.836 382.564 239.272C383.008 238.696 383.23 237.904 383.23 236.896C383.23 235.984 383.026 235.3 382.618 234.844C382.222 234.388 381.616 234.16 380.8 234.16C380.428 234.16 380.044 234.226 379.648 234.358C379.264 234.478 378.964 234.634 378.748 234.826V239.668C378.952 239.8 379.24 239.908 379.612 239.992C379.984 240.076 380.356 240.118 380.728 240.118ZM385.635 233.278H393.573V235.996H392.457V234.394H390.315V239.884H391.917V241H387.309V239.884H388.911V234.394H386.751V235.996H385.635V233.278ZM400.154 240.478C399.374 241.006 398.528 241.27 397.616 241.27C396.608 241.27 395.84 241.066 395.312 240.658C394.796 240.25 394.532 239.656 394.52 238.876C394.496 237.304 395.492 236.518 397.508 236.518L399.83 236.536C399.83 235.732 399.68 235.138 399.38 234.754C399.08 234.358 398.624 234.16 398.012 234.16C397.724 234.16 397.442 234.178 397.166 234.214C396.89 234.25 396.632 234.304 396.392 234.376L396.212 235.366L395.06 235.15L395.348 233.512C395.804 233.344 396.248 233.218 396.68 233.134C397.124 233.05 397.55 233.008 397.958 233.008C399.038 233.008 399.854 233.302 400.406 233.89C400.958 234.466 401.234 235.324 401.234 236.464V239.596L402.944 240.154L402.584 241.306L400.154 240.478ZM397.562 237.652C397.046 237.652 396.65 237.754 396.374 237.958C396.098 238.162 395.96 238.462 395.96 238.858C395.96 239.698 396.536 240.118 397.688 240.118C398.516 240.118 399.23 239.89 399.83 239.434V237.67L397.562 237.652ZM409.233 241V239.884H410.025V234.394H404.823V233.278H413.103V234.394H411.429V239.884H413.157V241H409.233ZM403.941 241.108V239.956C404.553 240.028 405.021 239.914 405.345 239.614C405.681 239.314 405.915 238.882 406.047 238.318C406.191 237.754 406.281 237.136 406.317 236.464L406.443 234.106H407.757L407.559 236.878C407.499 237.718 407.331 238.48 407.055 239.164C406.791 239.836 406.401 240.352 405.885 240.712C405.381 241.072 404.733 241.204 403.941 241.108ZM423.325 230.128C424.357 230.116 425.251 230.344 426.007 230.812C426.775 231.268 427.369 231.916 427.789 232.756C428.209 233.584 428.413 234.562 428.401 235.69C428.401 236.806 428.191 237.784 427.771 238.624C427.363 239.452 426.787 240.1 426.043 240.568C425.311 241.036 424.453 241.27 423.469 241.27C422.557 241.27 421.753 241.048 421.057 240.604C420.361 240.148 419.815 239.518 419.419 238.714C419.023 237.898 418.825 236.95 418.825 235.87V235.222H426.853C426.757 233.962 426.415 233.002 425.827 232.342C425.251 231.682 424.411 231.352 423.307 231.352C422.695 231.352 422.179 231.406 421.759 231.514C421.339 231.622 421.027 231.724 420.823 231.82L420.481 233.332L419.239 233.062L419.635 230.974C419.647 230.962 419.767 230.89 419.995 230.758C420.235 230.614 420.619 230.476 421.147 230.344C421.687 230.2 422.413 230.128 423.325 230.128ZM423.469 240.01C424.117 240.01 424.693 239.872 425.197 239.596C425.701 239.32 426.097 238.918 426.385 238.39C426.685 237.85 426.835 237.208 426.835 236.464H420.265C420.265 237.592 420.565 238.468 421.165 239.092C421.765 239.704 422.533 240.01 423.469 240.01ZM430.03 230.398H434.008L437.032 238.12L440.02 230.398H443.854V231.64H442.162V239.758H443.854V241H439.57V239.758H440.722V231.64L439.912 233.98L437.716 239.722H436.168L433.864 233.944L433.036 231.64L432.982 239.758H434.17V241H429.958V239.758H431.686L431.704 231.64H430.03V230.398ZM444.695 241V239.758H446.423L449.411 231.64H447.593V230.398H451.085L454.343 239.758H456.053V241H451.679V239.758H452.813L452.237 238.12H448.349L447.737 239.758H448.889V241H444.695ZM448.799 236.878H451.805L450.383 232.216L448.799 236.878ZM461.153 241.27C460.301 241.27 459.557 241.192 458.921 241.036C458.297 240.88 457.775 240.724 457.355 240.568L457.013 238.372L458.201 238.264L458.453 239.614C458.813 239.734 459.191 239.836 459.587 239.92C459.995 240.004 460.511 240.046 461.135 240.046C461.579 240.046 461.987 239.986 462.359 239.866C462.743 239.734 463.049 239.53 463.277 239.254C463.517 238.966 463.637 238.582 463.637 238.102C463.637 237.622 463.511 237.208 463.259 236.86C463.007 236.512 462.527 236.29 461.819 236.194L460.451 235.996C459.419 235.84 458.627 235.498 458.075 234.97C457.535 234.442 457.265 233.782 457.265 232.99C457.265 232.45 457.397 231.964 457.661 231.532C457.937 231.1 458.357 230.758 458.921 230.506C459.485 230.254 460.199 230.128 461.063 230.128C461.531 230.128 461.945 230.146 462.305 230.182C462.677 230.218 463.031 230.278 463.367 230.362C463.715 230.446 464.087 230.566 464.483 230.722L464.789 232.954L463.601 233.08L463.367 231.64C463.127 231.544 462.815 231.472 462.431 231.424C462.047 231.364 461.597 231.334 461.081 231.334C460.313 231.334 459.701 231.472 459.245 231.748C458.801 232.024 458.579 232.426 458.579 232.954C458.579 233.458 458.741 233.848 459.065 234.124C459.401 234.4 459.863 234.58 460.451 234.664L462.089 234.916C463.109 235.072 463.859 235.414 464.339 235.942C464.831 236.47 465.077 237.124 465.077 237.904C465.077 238.456 464.969 238.948 464.753 239.38C464.549 239.8 464.267 240.148 463.907 240.424C463.547 240.7 463.127 240.91 462.647 241.054C462.179 241.198 461.681 241.27 461.153 241.27Z" fill="#FEFEFE"/>
</svg>
